<svg width="1920" height="2627" viewBox="0 0 1920 2627" fill="none" xmlns="http://www.w3.org/2000/svg">
<path fill-rule="evenodd" clip-rule="evenodd" d="M1689.5 254C1689.42 256.612 1687.79 261.701 1681.99 262.221C1681.63 262.214 1681.3 262.23 1681 262.264C1681.34 262.264 1681.67 262.249 1681.99 262.221C1684.97 262.276 1689.5 263.941 1689.5 270.52C1689.5 270.522 1689.5 270.524 1689.5 270.525C1689.5 270.524 1689.5 270.522 1689.5 270.52C1689.5 263.941 1694.03 262.276 1697.01 262.221C1697.33 262.249 1697.66 262.264 1698 262.264C1697.7 262.23 1697.37 262.214 1697.01 262.221C1691.21 261.701 1689.58 256.612 1689.5 254Z" fill="white"/>
<path d="M1689.5 254L1690 253.985L1689 253.985L1689.5 254ZM1681 262.264L1680.94 261.767L1681 262.764V262.264ZM1698 262.264V262.764L1698.06 261.767L1698 262.264ZM1682.03 262.719C1685.09 262.444 1687.08 260.954 1688.3 259.178C1689.51 257.421 1689.96 255.398 1690 254.015L1689 253.985C1688.96 255.214 1688.56 257.041 1687.48 258.612C1686.41 260.164 1684.68 261.477 1681.94 261.723L1682.03 262.719ZM1681.06 262.761C1681.33 262.73 1681.64 262.715 1681.98 262.721L1682 261.721C1681.62 261.714 1681.27 261.731 1680.94 261.767L1681.06 262.761ZM1681.94 261.723C1681.64 261.75 1681.33 261.764 1681 261.764V262.764C1681.36 262.764 1681.7 262.749 1682.03 262.719L1681.94 261.723ZM1690 270.52C1690 267.104 1688.82 264.893 1687.18 263.539C1685.56 262.201 1683.56 261.75 1682 261.721L1681.98 262.721C1683.39 262.747 1685.15 263.156 1686.54 264.309C1687.92 265.447 1689 267.358 1689 270.521L1690 270.52ZM1690 270.525C1690 270.524 1690 270.523 1690 270.523C1690 270.522 1690 270.521 1690 270.52H1689C1689 270.521 1689 270.522 1689 270.523C1689 270.524 1689 270.525 1689 270.525H1690ZM1690 270.525C1690 270.524 1690 270.523 1690 270.523C1690 270.522 1690 270.521 1690 270.52H1689C1689 270.521 1689 270.522 1689 270.523C1689 270.524 1689 270.525 1689 270.525H1690ZM1690 270.521C1690 267.358 1691.08 265.447 1692.46 264.309C1693.85 263.156 1695.61 262.747 1697.02 262.721L1697 261.721C1695.44 261.75 1693.44 262.201 1691.82 263.539C1690.18 264.893 1689 267.104 1689 270.52L1690 270.521ZM1696.97 262.719C1697.3 262.749 1697.64 262.764 1698 262.764V261.764C1697.67 261.764 1697.36 261.75 1697.06 261.723L1696.97 262.719ZM1698.06 261.767C1697.73 261.731 1697.38 261.714 1697 261.721L1697.02 262.721C1697.36 262.715 1697.67 262.73 1697.94 262.761L1698.06 261.767ZM1697.06 261.723C1694.32 261.477 1692.59 260.164 1691.52 258.612C1690.44 257.041 1690.04 255.214 1690 253.985L1689 254.015C1689.04 255.398 1689.49 257.421 1690.7 259.178C1691.92 260.954 1693.91 262.444 1696.97 262.719L1697.06 261.723Z" fill="black"/>
<path fill-rule="evenodd" clip-rule="evenodd" d="M1593.5 403C1593.42 405.612 1591.79 410.701 1585.99 411.221C1585.63 411.214 1585.3 411.23 1585 411.264C1585.34 411.264 1585.67 411.249 1585.99 411.221C1588.97 411.276 1593.5 412.941 1593.5 419.52C1593.5 419.522 1593.5 419.524 1593.5 419.525C1593.5 419.524 1593.5 419.522 1593.5 419.52C1593.5 412.941 1598.03 411.276 1601.01 411.221C1601.33 411.249 1601.66 411.264 1602 411.264C1601.7 411.23 1601.37 411.214 1601.01 411.221C1595.21 410.701 1593.58 405.612 1593.5 403Z" fill="white"/>
<path d="M1593.5 403L1594 402.985L1593 402.985L1593.5 403ZM1585 411.264L1584.94 410.767L1585 411.764V411.264ZM1602 411.264V411.764L1602.06 410.767L1602 411.264ZM1586.03 411.719C1589.09 411.444 1591.08 409.954 1592.3 408.178C1593.51 406.421 1593.96 404.398 1594 403.015L1593 402.985C1592.96 404.214 1592.56 406.041 1591.48 407.612C1590.41 409.164 1588.68 410.477 1585.94 410.723L1586.03 411.719ZM1585.06 411.761C1585.33 411.73 1585.64 411.715 1585.98 411.721L1586 410.721C1585.62 410.714 1585.27 410.731 1584.94 410.767L1585.06 411.761ZM1585.94 410.723C1585.64 410.75 1585.33 410.764 1585 410.764V411.764C1585.36 411.764 1585.7 411.749 1586.03 411.719L1585.94 410.723ZM1594 419.52C1594 416.104 1592.82 413.893 1591.18 412.539C1589.56 411.201 1587.56 410.75 1586 410.721L1585.98 411.721C1587.39 411.747 1589.15 412.156 1590.54 413.309C1591.92 414.447 1593 416.358 1593 419.521L1594 419.52ZM1594 419.525C1594 419.524 1594 419.523 1594 419.523C1594 419.522 1594 419.521 1594 419.52H1593C1593 419.521 1593 419.522 1593 419.523C1593 419.524 1593 419.525 1593 419.525H1594ZM1594 419.525C1594 419.524 1594 419.523 1594 419.523C1594 419.522 1594 419.521 1594 419.52H1593C1593 419.521 1593 419.522 1593 419.523C1593 419.524 1593 419.525 1593 419.525H1594ZM1594 419.521C1594 416.358 1595.08 414.447 1596.46 413.309C1597.85 412.156 1599.61 411.747 1601.02 411.721L1601 410.721C1599.44 410.75 1597.44 411.201 1595.82 412.539C1594.18 413.893 1593 416.104 1593 419.52L1594 419.521ZM1600.97 411.719C1601.3 411.749 1601.64 411.764 1602 411.764V410.764C1601.67 410.764 1601.36 410.75 1601.06 410.723L1600.97 411.719ZM1602.06 410.767C1601.73 410.731 1601.38 410.714 1601 410.721L1601.02 411.721C1601.36 411.715 1601.67 411.73 1601.94 411.761L1602.06 410.767ZM1601.06 410.723C1598.32 410.477 1596.59 409.164 1595.52 407.612C1594.44 406.041 1594.04 404.214 1594 402.985L1593 403.015C1593.04 404.398 1593.49 406.421 1594.7 408.178C1595.92 409.954 1597.91 411.444 1600.97 411.719L1601.06 410.723Z" fill="black"/>
<path fill-rule="evenodd" clip-rule="evenodd" d="M1442.5 310C1442.42 312.612 1440.79 317.701 1434.99 318.221C1434.63 318.214 1434.3 318.23 1434 318.264C1434.34 318.264 1434.67 318.249 1434.99 318.221C1437.97 318.276 1442.5 319.941 1442.5 326.52C1442.5 326.522 1442.5 326.524 1442.5 326.525C1442.5 326.524 1442.5 326.522 1442.5 326.52C1442.5 319.941 1447.03 318.276 1450.01 318.221C1450.33 318.249 1450.66 318.264 1451 318.264C1450.7 318.23 1450.37 318.214 1450.01 318.221C1444.21 317.701 1442.58 312.612 1442.5 310Z" fill="white"/>
<path d="M1442.5 310L1443 309.985L1442 309.985L1442.5 310ZM1434 318.264L1433.94 317.767L1434 318.764V318.264ZM1451 318.264V318.764L1451.06 317.767L1451 318.264ZM1435.03 318.719C1438.09 318.444 1440.08 316.954 1441.3 315.178C1442.51 313.421 1442.96 311.398 1443 310.015L1442 309.985C1441.96 311.214 1441.56 313.041 1440.48 314.612C1439.41 316.164 1437.68 317.477 1434.94 317.723L1435.03 318.719ZM1434.06 318.761C1434.33 318.73 1434.64 318.715 1434.98 318.721L1435 317.721C1434.62 317.714 1434.27 317.731 1433.94 317.767L1434.06 318.761ZM1434.94 317.723C1434.64 317.75 1434.33 317.764 1434 317.764V318.764C1434.36 318.764 1434.7 318.749 1435.03 318.719L1434.94 317.723ZM1443 326.52C1443 323.104 1441.82 320.893 1440.18 319.539C1438.56 318.201 1436.56 317.75 1435 317.721L1434.98 318.721C1436.39 318.747 1438.15 319.156 1439.54 320.309C1440.92 321.447 1442 323.358 1442 326.521L1443 326.52ZM1443 326.525C1443 326.524 1443 326.523 1443 326.523C1443 326.522 1443 326.521 1443 326.52H1442C1442 326.521 1442 326.522 1442 326.523C1442 326.524 1442 326.525 1442 326.525H1443ZM1443 326.525C1443 326.524 1443 326.523 1443 326.523C1443 326.522 1443 326.521 1443 326.52H1442C1442 326.521 1442 326.522 1442 326.523C1442 326.524 1442 326.525 1442 326.525H1443ZM1443 326.521C1443 323.358 1444.08 321.447 1445.46 320.309C1446.85 319.156 1448.61 318.747 1450.02 318.721L1450 317.721C1448.44 317.75 1446.44 318.201 1444.82 319.539C1443.18 320.893 1442 323.104 1442 326.52L1443 326.521ZM1449.97 318.719C1450.3 318.749 1450.64 318.764 1451 318.764V317.764C1450.67 317.764 1450.36 317.75 1450.06 317.723L1449.97 318.719ZM1451.06 317.767C1450.73 317.731 1450.38 317.714 1450 317.721L1450.02 318.721C1450.36 318.715 1450.67 318.73 1450.94 318.761L1451.06 317.767ZM1450.06 317.723C1447.32 317.477 1445.59 316.164 1444.52 314.612C1443.44 313.041 1443.04 311.214 1443 309.985L1442 310.015C1442.04 311.398 1442.49 313.421 1443.7 315.178C1444.92 316.954 1446.91 318.444 1449.97 318.719L1450.06 317.723Z" fill="black"/>
<path fill-rule="evenodd" clip-rule="evenodd" d="M1293.5 420C1293.42 422.612 1291.79 427.701 1285.99 428.221C1285.63 428.214 1285.3 428.23 1285 428.264C1285.34 428.264 1285.67 428.249 1285.99 428.221C1288.97 428.276 1293.5 429.941 1293.5 436.52C1293.5 436.522 1293.5 436.524 1293.5 436.525C1293.5 436.524 1293.5 436.522 1293.5 436.52C1293.5 429.941 1298.03 428.276 1301.01 428.221C1301.33 428.249 1301.66 428.264 1302 428.264C1301.7 428.23 1301.37 428.214 1301.01 428.221C1295.21 427.701 1293.58 422.612 1293.5 420Z" fill="white"/>
<path d="M1293.5 420L1294 419.985L1293 419.985L1293.5 420ZM1285 428.264L1284.94 427.767L1285 428.764V428.264ZM1302 428.264V428.764L1302.06 427.767L1302 428.264ZM1286.03 428.719C1289.09 428.444 1291.08 426.954 1292.3 425.178C1293.51 423.421 1293.96 421.398 1294 420.015L1293 419.985C1292.96 421.214 1292.56 423.041 1291.48 424.612C1290.41 426.164 1288.68 427.477 1285.94 427.723L1286.03 428.719ZM1285.06 428.761C1285.33 428.73 1285.64 428.715 1285.98 428.721L1286 427.721C1285.62 427.714 1285.27 427.731 1284.94 427.767L1285.06 428.761ZM1285.94 427.723C1285.64 427.75 1285.33 427.764 1285 427.764V428.764C1285.36 428.764 1285.7 428.749 1286.03 428.719L1285.94 427.723ZM1294 436.52C1294 433.104 1292.82 430.893 1291.18 429.539C1289.56 428.201 1287.56 427.75 1286 427.721L1285.98 428.721C1287.39 428.747 1289.15 429.156 1290.54 430.309C1291.92 431.447 1293 433.358 1293 436.521L1294 436.52ZM1294 436.525C1294 436.524 1294 436.523 1294 436.523C1294 436.522 1294 436.521 1294 436.52H1293C1293 436.521 1293 436.522 1293 436.523C1293 436.524 1293 436.525 1293 436.525H1294ZM1294 436.525C1294 436.524 1294 436.523 1294 436.523C1294 436.522 1294 436.521 1294 436.52H1293C1293 436.521 1293 436.522 1293 436.523C1293 436.524 1293 436.525 1293 436.525H1294ZM1294 436.521C1294 433.358 1295.08 431.447 1296.46 430.309C1297.85 429.156 1299.61 428.747 1301.02 428.721L1301 427.721C1299.44 427.75 1297.44 428.201 1295.82 429.539C1294.18 430.893 1293 433.104 1293 436.52L1294 436.521ZM1300.97 428.719C1301.3 428.749 1301.64 428.764 1302 428.764V427.764C1301.67 427.764 1301.36 427.75 1301.06 427.723L1300.97 428.719ZM1302.06 427.767C1301.73 427.731 1301.38 427.714 1301 427.721L1301.02 428.721C1301.36 428.715 1301.67 428.73 1301.94 428.761L1302.06 427.767ZM1301.06 427.723C1298.32 427.477 1296.59 426.164 1295.52 424.612C1294.44 423.041 1294.04 421.214 1294 419.985L1293 420.015C1293.04 421.398 1293.49 423.421 1294.7 425.178C1295.92 426.954 1297.91 428.444 1300.97 428.719L1301.06 427.723Z" fill="black"/>
<path fill-rule="evenodd" clip-rule="evenodd" d="M1442.5 482C1442.42 484.612 1440.79 489.701 1434.99 490.221C1434.63 490.214 1434.3 490.23 1434 490.264C1434.34 490.264 1434.67 490.249 1434.99 490.221C1437.97 490.276 1442.5 491.941 1442.5 498.52C1442.5 498.522 1442.5 498.524 1442.5 498.525C1442.5 498.524 1442.5 498.522 1442.5 498.52C1442.5 491.941 1447.03 490.276 1450.01 490.221C1450.33 490.249 1450.66 490.264 1451 490.264C1450.7 490.23 1450.37 490.214 1450.01 490.221C1444.21 489.701 1442.58 484.612 1442.5 482Z" fill="white"/>
<path d="M1442.5 482L1443 481.985L1442 481.985L1442.5 482ZM1434 490.264L1433.94 489.767L1434 490.764V490.264ZM1451 490.264V490.764L1451.06 489.767L1451 490.264ZM1435.03 490.719C1438.09 490.444 1440.08 488.954 1441.3 487.178C1442.51 485.421 1442.96 483.398 1443 482.015L1442 481.985C1441.96 483.214 1441.56 485.041 1440.48 486.612C1439.41 488.164 1437.68 489.477 1434.94 489.723L1435.03 490.719ZM1434.06 490.761C1434.33 490.73 1434.64 490.715 1434.98 490.721L1435 489.721C1434.62 489.714 1434.27 489.731 1433.94 489.767L1434.06 490.761ZM1434.94 489.723C1434.64 489.75 1434.33 489.764 1434 489.764V490.764C1434.36 490.764 1434.7 490.749 1435.03 490.719L1434.94 489.723ZM1443 498.52C1443 495.104 1441.82 492.893 1440.18 491.539C1438.56 490.201 1436.56 489.75 1435 489.721L1434.98 490.721C1436.39 490.747 1438.15 491.156 1439.54 492.309C1440.92 493.447 1442 495.358 1442 498.521L1443 498.52ZM1443 498.525C1443 498.524 1443 498.523 1443 498.523C1443 498.522 1443 498.521 1443 498.52H1442C1442 498.521 1442 498.522 1442 498.523C1442 498.524 1442 498.525 1442 498.525H1443ZM1443 498.525C1443 498.524 1443 498.523 1443 498.523C1443 498.522 1443 498.521 1443 498.52H1442C1442 498.521 1442 498.522 1442 498.523C1442 498.524 1442 498.525 1442 498.525H1443ZM1443 498.521C1443 495.358 1444.08 493.447 1445.46 492.309C1446.85 491.156 1448.61 490.747 1450.02 490.721L1450 489.721C1448.44 489.75 1446.44 490.201 1444.82 491.539C1443.18 492.893 1442 495.104 1442 498.52L1443 498.521ZM1449.97 490.719C1450.3 490.749 1450.64 490.764 1451 490.764V489.764C1450.67 489.764 1450.36 489.75 1450.06 489.723L1449.97 490.719ZM1451.06 489.767C1450.73 489.731 1450.38 489.714 1450 489.721L1450.02 490.721C1450.36 490.715 1450.67 490.73 1450.94 490.761L1451.06 489.767ZM1450.06 489.723C1447.32 489.477 1445.59 488.164 1444.52 486.612C1443.44 485.041 1443.04 483.214 1443 481.985L1442 482.015C1442.04 483.398 1442.49 485.421 1443.7 487.178C1444.92 488.954 1446.91 490.444 1449.97 490.719L1450.06 489.723Z" fill="black"/>
<path fill-rule="evenodd" clip-rule="evenodd" d="M1120.5 516C1120.42 518.612 1118.79 523.701 1112.99 524.221C1112.63 524.214 1112.3 524.23 1112 524.264C1112.34 524.264 1112.67 524.249 1112.99 524.221C1115.97 524.276 1120.5 525.941 1120.5 532.52C1120.5 532.522 1120.5 532.524 1120.5 532.525C1120.5 532.524 1120.5 532.522 1120.5 532.52C1120.5 525.941 1125.03 524.276 1128.01 524.221C1128.33 524.249 1128.66 524.264 1129 524.264C1128.7 524.23 1128.37 524.214 1128.01 524.221C1122.21 523.701 1120.58 518.612 1120.5 516Z" fill="white"/>
<path d="M1120.5 516L1121 515.985L1120 515.985L1120.5 516ZM1112 524.264L1111.94 523.767L1112 524.764V524.264ZM1129 524.264V524.764L1129.06 523.767L1129 524.264ZM1113.03 524.719C1116.09 524.444 1118.08 522.954 1119.3 521.178C1120.51 519.421 1120.96 517.398 1121 516.015L1120 515.985C1119.96 517.214 1119.56 519.041 1118.48 520.612C1117.41 522.164 1115.68 523.477 1112.94 523.723L1113.03 524.719ZM1112.06 524.761C1112.33 524.73 1112.64 524.715 1112.98 524.721L1113 523.721C1112.62 523.714 1112.27 523.731 1111.94 523.767L1112.06 524.761ZM1112.94 523.723C1112.64 523.75 1112.33 523.764 1112 523.764V524.764C1112.36 524.764 1112.7 524.749 1113.03 524.719L1112.94 523.723ZM1121 532.52C1121 529.104 1119.82 526.893 1118.18 525.539C1116.56 524.201 1114.56 523.75 1113 523.721L1112.98 524.721C1114.39 524.747 1116.15 525.156 1117.54 526.309C1118.92 527.447 1120 529.358 1120 532.521L1121 532.52ZM1121 532.525C1121 532.524 1121 532.523 1121 532.523C1121 532.522 1121 532.521 1121 532.52H1120C1120 532.521 1120 532.522 1120 532.523C1120 532.524 1120 532.525 1120 532.525H1121ZM1121 532.525C1121 532.524 1121 532.523 1121 532.523C1121 532.522 1121 532.521 1121 532.52H1120C1120 532.521 1120 532.522 1120 532.523C1120 532.524 1120 532.525 1120 532.525H1121ZM1121 532.521C1121 529.358 1122.08 527.447 1123.46 526.309C1124.85 525.156 1126.61 524.747 1128.02 524.721L1128 523.721C1126.44 523.75 1124.44 524.201 1122.82 525.539C1121.18 526.893 1120 529.104 1120 532.52L1121 532.521ZM1127.97 524.719C1128.3 524.749 1128.64 524.764 1129 524.764V523.764C1128.67 523.764 1128.36 523.75 1128.06 523.723L1127.97 524.719ZM1129.06 523.767C1128.73 523.731 1128.38 523.714 1128 523.721L1128.02 524.721C1128.36 524.715 1128.67 524.73 1128.94 524.761L1129.06 523.767ZM1128.06 523.723C1125.32 523.477 1123.59 522.164 1122.52 520.612C1121.44 519.041 1121.04 517.214 1121 515.985L1120 516.015C1120.04 517.398 1120.49 519.421 1121.7 521.178C1122.92 522.954 1124.91 524.444 1127.97 524.719L1128.06 523.723Z" fill="black"/>
<path fill-rule="evenodd" clip-rule="evenodd" d="M590.5 719C590.423 721.612 588.789 726.701 582.987 727.221C582.633 727.214 582.301 727.23 582 727.264C582.342 727.264 582.671 727.249 582.987 727.221C585.971 727.276 590.497 728.941 590.5 735.52C590.5 735.522 590.5 735.524 590.5 735.525C590.5 735.524 590.5 735.522 590.5 735.52C590.503 728.941 595.029 727.276 598.013 727.221C598.329 727.249 598.658 727.264 599 727.264C598.699 727.23 598.367 727.214 598.013 727.221C592.211 726.701 590.577 721.612 590.5 719Z" fill="white"/>
<path d="M590.5 719L591 718.985L590 718.985L590.5 719ZM582 727.264L581.945 726.767L582 727.764V727.264ZM599 727.264V727.764L599.055 726.767L599 727.264ZM583.032 727.719C586.094 727.444 588.082 725.954 589.302 724.178C590.51 722.421 590.959 720.398 591 719.015L590 718.985C589.964 720.214 589.558 722.041 588.478 723.612C587.412 725.164 585.682 726.477 582.943 726.723L583.032 727.719ZM582.055 727.761C582.334 727.73 582.645 727.715 582.978 727.721L582.997 726.721C582.622 726.714 582.268 726.731 581.945 726.767L582.055 727.761ZM582.943 726.723C582.642 726.75 582.327 726.764 582 726.764V727.764C582.356 727.764 582.7 727.749 583.032 727.719L582.943 726.723ZM591 735.52C590.998 732.104 589.816 729.893 588.18 728.539C586.563 727.201 584.565 726.75 582.997 726.721L582.978 727.721C584.394 727.747 586.15 728.156 587.542 729.309C588.917 730.447 589.998 732.358 590 735.521L591 735.52ZM591 735.525C591 735.524 591 735.523 591 735.523C591 735.522 591 735.521 591 735.52H590C590 735.521 590 735.522 590 735.523C590 735.524 590 735.525 590 735.525H591ZM591 735.525C591 735.524 591 735.523 591 735.523C591 735.522 591 735.521 591 735.52H590C590 735.521 590 735.522 590 735.523C590 735.524 590 735.525 590 735.525H591ZM591 735.521C591.002 732.358 592.083 730.447 593.458 729.309C594.85 728.156 596.606 727.747 598.022 727.721L598.003 726.721C596.435 726.75 594.437 727.201 592.82 728.539C591.184 729.893 590.002 732.104 590 735.52L591 735.521ZM597.968 727.719C598.3 727.749 598.644 727.764 599 727.764V726.764C598.673 726.764 598.358 726.75 598.057 726.723L597.968 727.719ZM599.055 726.767C598.732 726.731 598.378 726.714 598.003 726.721L598.022 727.721C598.355 727.715 598.666 727.73 598.945 727.761L599.055 726.767ZM598.057 726.723C595.318 726.477 593.588 725.164 592.522 723.612C591.442 722.041 591.036 720.214 591 718.985L590 719.015C590.041 720.398 590.49 722.421 591.698 724.178C592.918 725.954 594.906 727.444 597.968 727.719L598.057 726.723Z" fill="black"/>
<path fill-rule="evenodd" clip-rule="evenodd" d="M398.5 657C398.423 659.612 396.789 664.701 390.987 665.221C390.633 665.214 390.301 665.23 390 665.264C390.342 665.264 390.671 665.249 390.987 665.221C393.971 665.276 398.497 666.941 398.5 673.52C398.5 673.522 398.5 673.524 398.5 673.525C398.5 673.524 398.5 673.522 398.5 673.52C398.503 666.941 403.029 665.276 406.013 665.221C406.329 665.249 406.658 665.264 407 665.264C406.699 665.23 406.367 665.214 406.013 665.221C400.211 664.701 398.577 659.612 398.5 657Z" fill="white"/>
<path d="M398.5 657L399 656.985L398 656.985L398.5 657ZM390 665.264L389.945 664.767L390 665.764V665.264ZM407 665.264V665.764L407.055 664.767L407 665.264ZM391.032 665.719C394.094 665.444 396.082 663.954 397.302 662.178C398.51 660.421 398.959 658.398 399 657.015L398 656.985C397.964 658.214 397.558 660.041 396.478 661.612C395.412 663.164 393.682 664.477 390.943 664.723L391.032 665.719ZM390.055 665.761C390.334 665.73 390.645 665.715 390.978 665.721L390.997 664.721C390.622 664.714 390.268 664.731 389.945 664.767L390.055 665.761ZM390.943 664.723C390.642 664.75 390.327 664.764 390 664.764V665.764C390.356 665.764 390.7 665.749 391.032 665.719L390.943 664.723ZM399 673.52C398.998 670.104 397.816 667.893 396.18 666.539C394.563 665.201 392.565 664.75 390.997 664.721L390.978 665.721C392.394 665.747 394.15 666.156 395.542 667.309C396.917 668.447 397.998 670.358 398 673.521L399 673.52ZM399 673.525C399 673.524 399 673.523 399 673.523C399 673.522 399 673.521 399 673.52H398C398 673.521 398 673.522 398 673.523C398 673.524 398 673.525 398 673.525H399ZM399 673.525C399 673.524 399 673.523 399 673.523C399 673.522 399 673.521 399 673.52H398C398 673.521 398 673.522 398 673.523C398 673.524 398 673.525 398 673.525H399ZM399 673.521C399.002 670.358 400.083 668.447 401.458 667.309C402.85 666.156 404.606 665.747 406.022 665.721L406.003 664.721C404.435 664.75 402.437 665.201 400.82 666.539C399.184 667.893 398.002 670.104 398 673.52L399 673.521ZM405.968 665.719C406.3 665.749 406.644 665.764 407 665.764V664.764C406.673 664.764 406.358 664.75 406.057 664.723L405.968 665.719ZM407.055 664.767C406.732 664.731 406.378 664.714 406.003 664.721L406.022 665.721C406.355 665.715 406.666 665.73 406.945 665.761L407.055 664.767ZM406.057 664.723C403.318 664.477 401.588 663.164 400.522 661.612C399.442 660.041 399.036 658.214 399 656.985L398 657.015C398.041 658.398 398.49 660.421 399.698 662.178C400.918 663.954 402.906 665.444 405.968 665.719L406.057 664.723Z" fill="black"/>
<path fill-rule="evenodd" clip-rule="evenodd" d="M1293.5 640C1293.42 642.612 1291.79 647.701 1285.99 648.221C1285.63 648.214 1285.3 648.23 1285 648.264C1285.34 648.264 1285.67 648.249 1285.99 648.221C1288.97 648.276 1293.5 649.941 1293.5 656.52C1293.5 656.522 1293.5 656.524 1293.5 656.525C1293.5 656.524 1293.5 656.522 1293.5 656.52C1293.5 649.941 1298.03 648.276 1301.01 648.221C1301.33 648.249 1301.66 648.264 1302 648.264C1301.7 648.23 1301.37 648.214 1301.01 648.221C1295.21 647.701 1293.58 642.612 1293.5 640Z" fill="white"/>
<path d="M1293.5 640L1294 639.985L1293 639.985L1293.5 640ZM1285 648.264L1284.94 647.767L1285 648.764V648.264ZM1302 648.264V648.764L1302.06 647.767L1302 648.264ZM1286.03 648.719C1289.09 648.444 1291.08 646.954 1292.3 645.178C1293.51 643.421 1293.96 641.398 1294 640.015L1293 639.985C1292.96 641.214 1292.56 643.041 1291.48 644.612C1290.41 646.164 1288.68 647.477 1285.94 647.723L1286.03 648.719ZM1285.06 648.761C1285.33 648.73 1285.64 648.715 1285.98 648.721L1286 647.721C1285.62 647.714 1285.27 647.731 1284.94 647.767L1285.06 648.761ZM1285.94 647.723C1285.64 647.75 1285.33 647.764 1285 647.764V648.764C1285.36 648.764 1285.7 648.749 1286.03 648.719L1285.94 647.723ZM1294 656.52C1294 653.104 1292.82 650.893 1291.18 649.539C1289.56 648.201 1287.56 647.75 1286 647.721L1285.98 648.721C1287.39 648.747 1289.15 649.156 1290.54 650.309C1291.92 651.447 1293 653.358 1293 656.521L1294 656.52ZM1294 656.525C1294 656.524 1294 656.523 1294 656.523C1294 656.522 1294 656.521 1294 656.52H1293C1293 656.521 1293 656.522 1293 656.523C1293 656.524 1293 656.525 1293 656.525H1294ZM1294 656.525C1294 656.524 1294 656.523 1294 656.523C1294 656.522 1294 656.521 1294 656.52H1293C1293 656.521 1293 656.522 1293 656.523C1293 656.524 1293 656.525 1293 656.525H1294ZM1294 656.521C1294 653.358 1295.08 651.447 1296.46 650.309C1297.85 649.156 1299.61 648.747 1301.02 648.721L1301 647.721C1299.44 647.75 1297.44 648.201 1295.82 649.539C1294.18 650.893 1293 653.104 1293 656.52L1294 656.521ZM1300.97 648.719C1301.3 648.749 1301.64 648.764 1302 648.764V647.764C1301.67 647.764 1301.36 647.75 1301.06 647.723L1300.97 648.719ZM1302.06 647.767C1301.73 647.731 1301.38 647.714 1301 647.721L1301.02 648.721C1301.36 648.715 1301.67 648.73 1301.94 648.761L1302.06 647.767ZM1301.06 647.723C1298.32 647.477 1296.59 646.164 1295.52 644.612C1294.44 643.041 1294.04 641.214 1294 639.985L1293 640.015C1293.04 641.398 1293.49 643.421 1294.7 645.178C1295.92 646.954 1297.91 648.444 1300.97 648.719L1301.06 647.723Z" fill="black"/>
<path fill-rule="evenodd" clip-rule="evenodd" d="M815.5 599C815.423 601.612 813.789 606.701 807.987 607.221C807.633 607.214 807.301 607.23 807 607.264C807.342 607.264 807.671 607.249 807.987 607.221C810.971 607.276 815.497 608.941 815.5 615.52C815.5 615.522 815.5 615.524 815.5 615.525C815.5 615.524 815.5 615.522 815.5 615.52C815.503 608.941 820.029 607.276 823.013 607.221C823.329 607.249 823.658 607.264 824 607.264C823.699 607.23 823.367 607.214 823.013 607.221C817.211 606.701 815.577 601.612 815.5 599Z" fill="white"/>
<path d="M815.5 599L816 598.985L815 598.985L815.5 599ZM807 607.264L806.945 606.767L807 607.764V607.264ZM824 607.264V607.764L824.055 606.767L824 607.264ZM808.032 607.719C811.094 607.444 813.082 605.954 814.302 604.178C815.51 602.421 815.959 600.398 816 599.015L815 598.985C814.964 600.214 814.558 602.041 813.478 603.612C812.412 605.164 810.682 606.477 807.943 606.723L808.032 607.719ZM807.055 607.761C807.334 607.73 807.645 607.715 807.978 607.721L807.997 606.721C807.622 606.714 807.268 606.731 806.945 606.767L807.055 607.761ZM807.943 606.723C807.642 606.75 807.327 606.764 807 606.764V607.764C807.356 607.764 807.7 607.749 808.032 607.719L807.943 606.723ZM816 615.52C815.998 612.104 814.816 609.893 813.18 608.539C811.563 607.201 809.565 606.75 807.997 606.721L807.978 607.721C809.394 607.747 811.15 608.156 812.542 609.309C813.917 610.447 814.998 612.358 815 615.521L816 615.52ZM816 615.525C816 615.524 816 615.523 816 615.523C816 615.522 816 615.521 816 615.52H815C815 615.521 815 615.522 815 615.523C815 615.524 815 615.525 815 615.525H816ZM816 615.525C816 615.524 816 615.523 816 615.523C816 615.522 816 615.521 816 615.52H815C815 615.521 815 615.522 815 615.523C815 615.524 815 615.525 815 615.525H816ZM816 615.521C816.002 612.358 817.083 610.447 818.458 609.309C819.85 608.156 821.606 607.747 823.022 607.721L823.003 606.721C821.435 606.75 819.437 607.201 817.82 608.539C816.184 609.893 815.002 612.104 815 615.52L816 615.521ZM822.968 607.719C823.3 607.749 823.644 607.764 824 607.764V606.764C823.673 606.764 823.358 606.75 823.057 606.723L822.968 607.719ZM824.055 606.767C823.732 606.731 823.378 606.714 823.003 606.721L823.022 607.721C823.355 607.715 823.666 607.73 823.945 607.761L824.055 606.767ZM823.057 606.723C820.318 606.477 818.588 605.164 817.522 603.612C816.442 602.041 816.036 600.214 816 598.985L815 599.015C815.041 600.398 815.49 602.421 816.698 604.178C817.918 605.954 819.906 607.444 822.968 607.719L823.057 606.723Z" fill="black"/>
<path fill-rule="evenodd" clip-rule="evenodd" d="M1721.09 150.45C1762.1 66.2902 1835.27 8.04919 1920 0.770752V1701H6.27055C6.11923 1695.35 6.04298 1689.68 6.04298 1683.99C6.04298 1679.34 6.09386 1674.7 6.19496 1670.08C4.11991 1668.49 2.05488 1666.88 0 1665.25V616.593C80.52 552.868 176.633 515.846 279.854 515.846C393.485 515.846 498.501 560.712 583.584 636.676C677.03 508.532 813.415 427.775 965.306 427.775C1026.48 427.775 1085.13 440.873 1139.48 464.889C1165.51 419.942 1207.41 389.573 1255.27 385.843C1328.82 235.613 1463.67 134.966 1617.85 134.966C1653.47 134.966 1688.05 140.337 1721.09 150.45Z" fill="url(#paint0_linear_64_12)" fill-opacity="0.6"/>
<rect y="1669" width="1920" height="958" fill="url(#paint1_linear_64_12)"/>
<defs>
<linearGradient id="paint0_linear_64_12" x1="978" y1="1.60847e-08" x2="978" y2="1766" gradientUnits="userSpaceOnUse">
<stop stop-color="#FF8743" stop-opacity="0"/>
<stop offset="1" stop-color="#F84795"/>
</linearGradient>
<linearGradient id="paint1_linear_64_12" x1="960" y1="1669" x2="960" y2="2627" gradientUnits="userSpaceOnUse">
<stop stop-color="#FB9AC1"/>
<stop offset="1" stop-color="#D272FF" stop-opacity="0.7"/>
</linearGradient>
</defs>
</svg>
