<svg width="117" height="164" viewBox="0 0 117 164" fill="none" xmlns="http://www.w3.org/2000/svg">
<path d="M47 1H67.1008V6.9916H57.6303L67.4874 17.6218V23.0336H47V16.8487H56.8571L47 6.41176V1Z" stroke="black"/>
<path d="M70.9663 1H91.0672V6.9916H81.5966L91.4537 17.6218V23.0336H70.9663V16.8487H80.8235L70.9663 6.41176V1Z" stroke="black"/>
<path d="M116 32.6974H1L11.437 149.823L58.2101 163.16L105.176 149.823L116 32.6974Z" stroke="black"/>
<path d="M94.7392 55.891H22.2603L23.8065 70.1935H78.6972L77.5376 85.0759H41.2014L42.5544 99.5717H76.1846L74.6384 117.933L58.5964 122.378L42.5544 117.933L41.588 106.723H27.0922L28.8317 129.143L58.5964 137.647L88.1678 129.143L94.7392 55.891Z" stroke="black"/>
<path d="M43.1341 7.37815V1H25.5459V23.0336H43.1341V16.6555H32.8904V7.37815H43.1341Z" stroke="black"/>
</svg>
