<svg width="240" height="200" viewBox="0 0 240 200" fill="none" xmlns="http://www.w3.org/2000/svg">
<rect x="80.3335" y="1" width="19.8333" height="19.8333" fill="black"/>
<rect x="80.3335" y="1" width="19.8333" height="19.8333" stroke="#DCDCDC"/>
<rect x="100.167" y="1" width="19.8333" height="19.8333" fill="black"/>
<rect x="100.167" y="1" width="19.8333" height="19.8333" stroke="#DCDCDC"/>
<rect x="120" y="1" width="19.8333" height="19.8333" fill="black"/>
<rect x="120" y="1" width="19.8333" height="19.8333" stroke="#DCDCDC"/>
<rect x="139.833" y="1" width="19.8333" height="19.8333" fill="black"/>
<rect x="139.833" y="1" width="19.8333" height="19.8333" stroke="#DCDCDC"/>
<rect x="40.6665" y="20.8333" width="19.8333" height="19.8333" fill="black"/>
<rect x="40.6665" y="20.8333" width="19.8333" height="19.8333" stroke="#DCDCDC"/>
<rect x="60.5" y="20.8333" width="19.8333" height="19.8333" fill="black"/>
<rect x="60.5" y="20.8333" width="19.8333" height="19.8333" stroke="#DCDCDC"/>
<rect x="80.3335" y="20.8333" width="19.8333" height="19.8333" fill="#EEDBDE"/>
<rect x="80.3335" y="20.8333" width="19.8333" height="19.8333" stroke="#DCDCDC"/>
<rect x="100.167" y="20.8333" width="19.8333" height="19.8333" fill="#A3777D"/>
<rect x="100.167" y="20.8333" width="19.8333" height="19.8333" stroke="#DCDCDC"/>
<rect x="120" y="20.8333" width="19.8333" height="19.8333" fill="#A3777D"/>
<rect x="120" y="20.8333" width="19.8333" height="19.8333" stroke="#DCDCDC"/>
<rect x="139.833" y="20.8333" width="19.8333" height="19.8333" fill="#EEDBDE"/>
<rect x="139.833" y="20.8333" width="19.8333" height="19.8333" stroke="#DCDCDC"/>
<rect x="159.667" y="20.8333" width="19.8333" height="19.8333" fill="black"/>
<rect x="159.667" y="20.8333" width="19.8333" height="19.8333" stroke="#DCDCDC"/>
<rect x="20.8335" y="40.6667" width="19.8333" height="19.8333" fill="black"/>
<rect x="20.8335" y="40.6667" width="19.8333" height="19.8333" stroke="#DCDCDC"/>
<rect x="40.6665" y="40.6667" width="19.8333" height="19.8333" fill="black"/>
<rect x="40.6665" y="40.6667" width="19.8333" height="19.8333" stroke="#DCDCDC"/>
<rect x="60.5" y="40.6667" width="19.8333" height="19.8333" fill="#EEDBDE"/>
<rect x="60.5" y="40.6667" width="19.8333" height="19.8333" stroke="#DCDCDC"/>
<rect x="80.3335" y="40.6667" width="19.8333" height="19.8333" fill="#B38E94"/>
<rect x="80.3335" y="40.6667" width="19.8333" height="19.8333" stroke="#DCDCDC"/>
<rect x="100.167" y="40.6667" width="19.8333" height="19.8333" fill="#AF8188"/>
<rect x="100.167" y="40.6667" width="19.8333" height="19.8333" stroke="#DCDCDC"/>
<rect x="120" y="40.6667" width="19.8333" height="19.8333" fill="#EEDBDE"/>
<rect x="120" y="40.6667" width="19.8333" height="19.8333" stroke="#DCDCDC"/>
<rect x="139.833" y="40.6667" width="19.8333" height="19.8333" fill="black"/>
<rect x="139.833" y="40.6667" width="19.8333" height="19.8333" stroke="#DCDCDC"/>
<rect x="159.667" y="40.6667" width="19.8333" height="19.8333" fill="#FF9898"/>
<rect x="159.667" y="40.6667" width="19.8333" height="19.8333" stroke="#DCDCDC"/>
<rect x="179.5" y="40.6667" width="19.8333" height="19.8333" fill="black"/>
<rect x="179.5" y="40.6667" width="19.8333" height="19.8333" stroke="#DCDCDC"/>
<rect x="1" y="60.5" width="19.8333" height="19.8333" fill="black"/>
<rect x="1" y="60.5" width="19.8333" height="19.8333" stroke="#DCDCDC"/>
<rect x="20.8335" y="60.5" width="19.8333" height="19.8333" fill="#FF9898"/>
<rect x="20.8335" y="60.5" width="19.8333" height="19.8333" stroke="#DCDCDC"/>
<rect x="40.6665" y="60.5" width="19.8333" height="19.8333" fill="black"/>
<rect x="40.6665" y="60.5" width="19.8333" height="19.8333" stroke="#DCDCDC"/>
<rect x="60.5" y="60.5" width="19.8333" height="19.8333" fill="#EEDBDE"/>
<rect x="60.5" y="60.5" width="19.8333" height="19.8333" stroke="#DCDCDC"/>
<rect x="80.3335" y="60.5" width="19.8333" height="19.8333" fill="#B79399"/>
<rect x="80.3335" y="60.5" width="19.8333" height="19.8333" stroke="#DCDCDC"/>
<rect x="100.167" y="60.5" width="19.8333" height="19.8333" fill="#EEDBDE"/>
<rect x="100.167" y="60.5" width="19.8333" height="19.8333" stroke="#DCDCDC"/>
<rect x="120" y="60.5" width="19.8333" height="19.8333" fill="black"/>
<rect x="120" y="60.5" width="19.8333" height="19.8333" stroke="#DCDCDC"/>
<rect x="139.833" y="60.5" width="19.8333" height="19.8333" fill="#FF9898"/>
<rect x="139.833" y="60.5" width="19.8333" height="19.8333" stroke="#DCDCDC"/>
<rect x="159.667" y="60.5" width="19.8333" height="19.8333" fill="#FF9898"/>
<rect x="159.667" y="60.5" width="19.8333" height="19.8333" stroke="#DCDCDC"/>
<rect x="179.5" y="60.5" width="19.8333" height="19.8333" fill="#EEDBDE"/>
<rect x="179.5" y="60.5" width="19.8333" height="19.8333" stroke="#DCDCDC"/>
<rect x="199.333" y="60.5" width="19.8333" height="19.8333" fill="black"/>
<rect x="199.333" y="60.5" width="19.8333" height="19.8333" stroke="#DCDCDC"/>
<rect x="1" y="80.3333" width="19.8333" height="19.8333" fill="black"/>
<rect x="1" y="80.3333" width="19.8333" height="19.8333" stroke="#DCDCDC"/>
<rect x="20.8335" y="80.3333" width="19.8333" height="19.8333" fill="#EEDBDE"/>
<rect x="20.8335" y="80.3333" width="19.8333" height="19.8333" stroke="#DCDCDC"/>
<rect x="40.6665" y="80.3333" width="19.8333" height="19.8333" fill="#EEDBDE"/>
<rect x="40.6665" y="80.3333" width="19.8333" height="19.8333" stroke="#DCDCDC"/>
<rect x="60.5" y="80.3333" width="19.8333" height="19.8333" fill="#C0A2A7"/>
<rect x="60.5" y="80.3333" width="19.8333" height="19.8333" stroke="#DCDCDC"/>
<rect x="80.3335" y="80.3333" width="19.8333" height="19.8333" fill="#C0A2A7"/>
<rect x="80.3335" y="80.3333" width="19.8333" height="19.8333" stroke="#DCDCDC"/>
<rect x="100.167" y="80.3333" width="19.8333" height="19.8333" fill="#EEDBDE"/>
<rect x="100.167" y="80.3333" width="19.8333" height="19.8333" stroke="#DCDCDC"/>
<rect x="120" y="80.3333" width="19.8333" height="19.8333" fill="#EEDBDE"/>
<rect x="120" y="80.3333" width="19.8333" height="19.8333" stroke="#DCDCDC"/>
<rect x="139.833" y="80.3333" width="19.8333" height="19.8333" fill="#EEDBDE"/>
<rect x="139.833" y="80.3333" width="19.8333" height="19.8333" stroke="#DCDCDC"/>
<rect x="159.667" y="80.3333" width="19.8333" height="19.8333" fill="#EEDBDE"/>
<rect x="159.667" y="80.3333" width="19.8333" height="19.8333" stroke="#DCDCDC"/>
<rect x="179.5" y="80.3333" width="19.8333" height="19.8333" fill="#EEDBDE"/>
<rect x="179.5" y="80.3333" width="19.8333" height="19.8333" stroke="#DCDCDC"/>
<rect x="199.333" y="80.3333" width="19.8333" height="19.8333" fill="#EEDBDE"/>
<rect x="199.333" y="80.3333" width="19.8333" height="19.8333" stroke="#DCDCDC"/>
<rect x="219.167" y="80.3333" width="19.8333" height="19.8333" fill="black"/>
<rect x="219.167" y="80.3333" width="19.8333" height="19.8333" stroke="#DCDCDC"/>
<rect x="1" y="100.167" width="19.8333" height="19.8333" fill="black"/>
<rect x="1" y="100.167" width="19.8333" height="19.8333" stroke="#DCDCDC"/>
<rect x="20.8335" y="100.167" width="19.8333" height="19.8333" fill="#EEDBDE"/>
<rect x="20.8335" y="100.167" width="19.8333" height="19.8333" stroke="#DCDCDC"/>
<rect x="40.6665" y="100.167" width="19.8333" height="19.8333" fill="black"/>
<rect x="40.6665" y="100.167" width="19.8333" height="19.8333" stroke="#DCDCDC"/>
<rect x="60.5" y="100.167" width="19.8333" height="19.8333" fill="#EEDBDE"/>
<rect x="60.5" y="100.167" width="19.8333" height="19.8333" stroke="#DCDCDC"/>
<rect x="80.3335" y="100.167" width="19.8333" height="19.8333" fill="#EEDBDE"/>
<rect x="80.3335" y="100.167" width="19.8333" height="19.8333" stroke="#DCDCDC"/>
<rect x="100.167" y="100.167" width="19.8333" height="19.8333" fill="black"/>
<rect x="100.167" y="100.167" width="19.8333" height="19.8333" stroke="#DCDCDC"/>
<rect x="120" y="100.167" width="19.8333" height="19.8333" fill="white"/>
<rect x="120" y="100.167" width="19.8333" height="19.8333" stroke="#DCDCDC"/>
<rect x="139.833" y="100.167" width="19.8333" height="19.8333" fill="#EEDBDE"/>
<rect x="139.833" y="100.167" width="19.8333" height="19.8333" stroke="#DCDCDC"/>
<rect x="159.667" y="100.167" width="19.8333" height="19.8333" fill="#EEDBDE"/>
<rect x="159.667" y="100.167" width="19.8333" height="19.8333" stroke="#DCDCDC"/>
<rect x="179.5" y="100.167" width="19.8333" height="19.8333" fill="#FDF1F3"/>
<rect x="179.5" y="100.167" width="19.8333" height="19.8333" stroke="#DCDCDC"/>
<rect x="199.333" y="100.167" width="19.8333" height="19.8333" fill="#FDF1F3"/>
<rect x="199.333" y="100.167" width="19.8333" height="19.8333" stroke="#DCDCDC"/>
<rect x="219.167" y="100.167" width="19.8333" height="19.8333" fill="black"/>
<rect x="219.167" y="100.167" width="19.8333" height="19.8333" stroke="#DCDCDC"/>
<rect x="1" y="120" width="19.8333" height="19.8333" fill="black"/>
<rect x="1" y="120" width="19.8333" height="19.8333" stroke="#DCDCDC"/>
<rect x="20.8335" y="120" width="19.8333" height="19.8333" fill="#EEDBDE"/>
<rect x="20.8335" y="120" width="19.8333" height="19.8333" stroke="#DCDCDC"/>
<rect x="40.6665" y="120" width="19.8333" height="19.8333" fill="black"/>
<rect x="40.6665" y="120" width="19.8333" height="19.8333" stroke="#DCDCDC"/>
<rect x="60.5" y="120" width="19.8333" height="19.8333" fill="#EEDBDE"/>
<rect x="60.5" y="120" width="19.8333" height="19.8333" stroke="#DCDCDC"/>
<rect x="80.3335" y="120" width="19.8333" height="19.8333" fill="#EEDBDE"/>
<rect x="80.3335" y="120" width="19.8333" height="19.8333" stroke="#DCDCDC"/>
<rect x="100.167" y="120" width="19.8333" height="19.8333" fill="black"/>
<rect x="100.167" y="120" width="19.8333" height="19.8333" stroke="#DCDCDC"/>
<rect x="120" y="120" width="19.8333" height="19.8333" fill="black"/>
<rect x="120" y="120" width="19.8333" height="19.8333" stroke="#DCDCDC"/>
<rect x="139.833" y="120" width="19.8333" height="19.8333" fill="#EEDBDE"/>
<rect x="139.833" y="120" width="19.8333" height="19.8333" stroke="#DCDCDC"/>
<rect x="159.667" y="120" width="19.8333" height="19.8333" fill="#EEDBDE"/>
<rect x="159.667" y="120" width="19.8333" height="19.8333" stroke="#DCDCDC"/>
<rect x="179.5" y="120" width="19.8333" height="19.8333" fill="#FDF1F3"/>
<rect x="179.5" y="120" width="19.8333" height="19.8333" stroke="#DCDCDC"/>
<rect x="199.333" y="120" width="19.8333" height="19.8333" fill="#FDF1F3"/>
<rect x="199.333" y="120" width="19.8333" height="19.8333" stroke="#DCDCDC"/>
<rect x="219.167" y="120" width="19.8333" height="19.8333" fill="black"/>
<rect x="219.167" y="120" width="19.8333" height="19.8333" stroke="#DCDCDC"/>
<rect x="1" y="139.833" width="19.8333" height="19.8333" fill="black"/>
<rect x="1" y="139.833" width="19.8333" height="19.8333" stroke="#DCDCDC"/>
<rect x="20.8335" y="139.833" width="19.8333" height="19.8333" fill="#EEDBDE"/>
<rect x="20.8335" y="139.833" width="19.8333" height="19.8333" stroke="#DCDCDC"/>
<rect x="40.6665" y="139.833" width="19.8333" height="19.8333" fill="#EEDBDE"/>
<rect x="40.6665" y="139.833" width="19.8333" height="19.8333" stroke="#DCDCDC"/>
<rect x="60.5" y="139.833" width="19.8333" height="19.8333" fill="#EEDBDE"/>
<rect x="60.5" y="139.833" width="19.8333" height="19.8333" stroke="#DCDCDC"/>
<rect x="80.3335" y="139.833" width="19.8333" height="19.8333" fill="#EEDBDE"/>
<rect x="80.3335" y="139.833" width="19.8333" height="19.8333" stroke="#DCDCDC"/>
<rect x="100.167" y="139.833" width="19.8333" height="19.8333" fill="#EEDBDE"/>
<rect x="100.167" y="139.833" width="19.8333" height="19.8333" stroke="#DCDCDC"/>
<rect x="120" y="139.833" width="19.8333" height="19.8333" fill="#EEDBDE"/>
<rect x="120" y="139.833" width="19.8333" height="19.8333" stroke="#DCDCDC"/>
<rect x="139.833" y="139.833" width="19.8333" height="19.8333" fill="#EEDBDE"/>
<rect x="139.833" y="139.833" width="19.8333" height="19.8333" stroke="#DCDCDC"/>
<rect x="159.667" y="139.833" width="19.8333" height="19.8333" fill="#FDF1F3"/>
<rect x="159.667" y="139.833" width="19.8333" height="19.8333" stroke="#DCDCDC"/>
<rect x="179.5" y="139.833" width="19.8333" height="19.8333" fill="#FDF1F3"/>
<rect x="179.5" y="139.833" width="19.8333" height="19.8333" stroke="#DCDCDC"/>
<rect x="199.333" y="139.833" width="19.8333" height="19.8333" fill="#FDF1F3"/>
<rect x="199.333" y="139.833" width="19.8333" height="19.8333" stroke="#DCDCDC"/>
<rect x="219.167" y="139.833" width="19.8333" height="19.8333" fill="black"/>
<rect x="219.167" y="139.833" width="19.8333" height="19.8333" stroke="#DCDCDC"/>
<rect x="1" y="159.667" width="19.8333" height="19.8333" fill="black"/>
<rect x="1" y="159.667" width="19.8333" height="19.8333" stroke="#DCDCDC"/>
<rect x="20.8335" y="159.667" width="19.8333" height="19.8333" fill="#EEDBDE"/>
<rect x="20.8335" y="159.667" width="19.8333" height="19.8333" stroke="#DCDCDC"/>
<rect x="40.6665" y="159.667" width="19.8333" height="19.8333" fill="#EEDBDE"/>
<rect x="40.6665" y="159.667" width="19.8333" height="19.8333" stroke="#DCDCDC"/>
<rect x="60.5" y="159.667" width="19.8333" height="19.8333" fill="#FF9898"/>
<rect x="60.5" y="159.667" width="19.8333" height="19.8333" stroke="#DCDCDC"/>
<rect x="80.3335" y="159.667" width="19.8333" height="19.8333" fill="#EEDBDE"/>
<rect x="80.3335" y="159.667" width="19.8333" height="19.8333" stroke="#DCDCDC"/>
<rect x="100.167" y="159.667" width="19.8333" height="19.8333" fill="#EEDBDE"/>
<rect x="100.167" y="159.667" width="19.8333" height="19.8333" stroke="#DCDCDC"/>
<rect x="120" y="159.667" width="19.8333" height="19.8333" fill="#FDF1F3"/>
<rect x="120" y="159.667" width="19.8333" height="19.8333" stroke="#DCDCDC"/>
<rect x="139.833" y="159.667" width="19.8333" height="19.8333" fill="#FDF1F3"/>
<rect x="139.833" y="159.667" width="19.8333" height="19.8333" stroke="#DCDCDC"/>
<rect x="159.667" y="159.667" width="19.8333" height="19.8333" fill="#FDF1F3"/>
<rect x="159.667" y="159.667" width="19.8333" height="19.8333" stroke="#DCDCDC"/>
<rect x="179.5" y="159.667" width="19.8333" height="19.8333" fill="#FDF1F3"/>
<rect x="179.5" y="159.667" width="19.8333" height="19.8333" stroke="#DCDCDC"/>
<rect x="199.333" y="159.667" width="19.8333" height="19.8333" fill="black"/>
<rect x="199.333" y="159.667" width="19.8333" height="19.8333" stroke="#DCDCDC"/>
<rect x="20.8335" y="179.5" width="19.8333" height="19.8333" fill="black"/>
<rect x="20.8335" y="179.5" width="19.8333" height="19.8333" stroke="#DCDCDC"/>
<rect x="40.6665" y="179.5" width="19.8333" height="19.8333" fill="black"/>
<rect x="40.6665" y="179.5" width="19.8333" height="19.8333" stroke="#DCDCDC"/>
<rect x="60.5" y="179.5" width="19.8333" height="19.8333" fill="black"/>
<rect x="60.5" y="179.5" width="19.8333" height="19.8333" stroke="#DCDCDC"/>
<rect x="80.3335" y="179.5" width="19.8333" height="19.8333" fill="black"/>
<rect x="80.3335" y="179.5" width="19.8333" height="19.8333" stroke="#DCDCDC"/>
<rect x="100.167" y="179.5" width="19.8333" height="19.8333" fill="black"/>
<rect x="100.167" y="179.5" width="19.8333" height="19.8333" stroke="#DCDCDC"/>
<rect x="120" y="179.5" width="19.8333" height="19.8333" fill="black"/>
<rect x="120" y="179.5" width="19.8333" height="19.8333" stroke="#DCDCDC"/>
<rect x="139.833" y="179.5" width="19.8333" height="19.8333" fill="black"/>
<rect x="139.833" y="179.5" width="19.8333" height="19.8333" stroke="#DCDCDC"/>
<rect x="159.667" y="179.5" width="19.8333" height="19.8333" fill="black"/>
<rect x="159.667" y="179.5" width="19.8333" height="19.8333" stroke="#DCDCDC"/>
<rect x="179.5" y="179.5" width="19.8333" height="19.8333" fill="black"/>
<rect x="179.5" y="179.5" width="19.8333" height="19.8333" stroke="#DCDCDC"/>
</svg>
