<svg width="57" height="83" viewBox="0 0 57 83" fill="none" xmlns="http://www.w3.org/2000/svg">
<rect x="1.5" y="0.5" width="54.0963" height="26.5481" rx="13.2741" stroke="black"/>
<path fill-rule="evenodd" clip-rule="evenodd" d="M28.7092 27.3871H14.7741C7.16686 27.3871 1 33.5539 1 41.1612C1 48.7684 7.16685 54.9352 14.7741 54.9352H28.7092V53.9352H14.7741C7.71914 53.9352 2 48.2161 2 41.1612C2 34.1062 7.71915 28.3871 14.7741 28.3871H28.7092V27.3871Z" fill="black"/>
<rect x="29.209" y="27.8871" width="26.387" height="26.5481" rx="13.1935" stroke="black"/>
<line x1="29.209" y1="27.3871" x2="29.209" y2="54.9352" stroke="black"/>
<path d="M28.7093 54.9352H29.2093V54.4352H28.7093V54.9352ZM28.7093 68.8477L28.5294 69.3142L29.2093 69.5763V68.8477H28.7093ZM14.9813 54.9352V54.4352H14.9681L14.9549 54.4359L14.9813 54.9352ZM10.1636 56.0717L10.3187 56.547L10.3323 56.5426L10.3455 56.5374L10.1636 56.0717ZM28.7085 68.8474L28.8884 68.3809L28.2159 68.1216L28.2086 68.8423L28.7085 68.8474ZM28.2093 54.9352V68.8477H29.2093V54.9352H28.2093ZM14.9813 55.4352H28.7093V54.4352H14.9813V55.4352ZM10.3455 56.5374C12.2608 55.7892 14.0159 55.4869 15.0076 55.4345L14.9549 54.4359C13.8525 54.4941 11.9926 54.8204 9.98167 55.606L10.3455 56.5374ZM1.5 68.7092C1.5 63.0324 5.19853 58.2181 10.3187 56.547L10.0085 55.5964C4.48905 57.3977 0.5 62.587 0.5 68.7092H1.5ZM14.2908 81.5C7.22663 81.5 1.5 75.7734 1.5 68.7092H0.5C0.5 76.3256 6.67434 82.5 14.2908 82.5V81.5ZM15.4185 81.5H14.2908V82.5H15.4185V81.5ZM28.2086 68.8423C28.1372 75.8451 22.4382 81.5 15.4185 81.5V82.5C22.9871 82.5 29.1316 76.403 29.2085 68.8525L28.2086 68.8423ZM28.8891 68.3812L28.8884 68.3809L28.5287 69.3139L28.5294 69.3142L28.8891 68.3812Z" fill="black"/>
</svg>
