<svg width="117" height="164" viewBox="0 0 117 164" fill="none" xmlns="http://www.w3.org/2000/svg">
<path d="M116 32.6974H1L11.437 149.823L58.2101 163.16L105.176 149.823L116 32.6974Z" stroke="black"/>
<path d="M93.1934 71.5463L94.1598 56.8572H22.0674L26.1262 100.538H75.7985L74.4455 119.286L58.5968 123.538L42.1682 119.286L41.3951 107.689H26.8993L28.6388 130.303L58.5968 138.42L87.7817 130.303L91.6472 85.6555H39.2691L38.3027 71.5463H93.1934Z" stroke="black"/>
<path d="M94.9329 1H87.5884V23.0336H105.37V15.6891H94.9329V1Z" stroke="black"/>
<path d="M59.3696 23.0336V1H67.1007L71.5461 8.34454L76.1848 1H84.1091V23.0336H76.5713V12.2101L71.5461 19.9412L66.7142 12.2101V23.0336H59.3696Z" stroke="black"/>
<path d="M11.437 23.0336V1H18.7815V8.34454H25.353V1H32.8908V23.0336H25.353V15.6891H18.7815V23.0336H11.437Z" stroke="black"/>
<path d="M56.0837 1H35.9829V8.34454H42.3611V23.0336H49.7056V8.34454H56.0837V1Z" stroke="black"/>
</svg>
