<svg width="118" height="118" viewBox="0 0 118 118" fill="none" xmlns="http://www.w3.org/2000/svg">
<mask id="path-1-inside-1_100_25" fill="white">
<path fill-rule="evenodd" clip-rule="evenodd" d="M0 0H117.368V117.368H0V0ZM96.4308 67.076C93.8466 62.7151 89.7011 62.1633 87.9514 62.4325L87.9513 62.4324C86.6727 62.7689 84.075 64.0071 83.9135 66.2683H73.0114C73.146 62.2978 75.8783 54.0741 85.7305 52.9436L85.7306 52.9436C97.2384 51.3284 103.295 57.6544 104.91 61.423L96.4308 67.076ZM89.3645 98.3691C95.0174 99.0151 96.8344 95.0042 97.0364 92.918C97.3594 89.5263 93.8061 87.2651 91.9891 86.6594L91.9892 86.6593C86.1747 84.7212 80.4141 81.141 78.2606 79.5932L78.0587 79.3913C73.2134 76.1611 72.675 69.2968 73.0115 66.2685H83.9136C83.2675 69.9832 87.0091 72.3924 88.9607 73.1327L88.9608 73.1327C89.7684 73.4557 96.8345 76.7667 100.267 78.3818L100.267 78.3819C107.212 81.6122 108.544 89.4859 108.342 92.918C108.342 105.839 95.6904 108.396 89.3645 108.06L89.3645 108.06C77.7356 108.06 71.1944 100.657 69.3773 96.9557L78.6643 91.5046C81.5715 96.673 87.0091 98.2343 89.3645 98.3689L89.3645 98.3691ZM52.6849 94.1549V53.7283H63.6392V94.1549H52.6849ZM47.4688 98.5888C51.4332 98.5888 52.5982 95.6329 52.6852 94.1549H63.6395C63.6395 105.631 52.859 108.152 47.4688 107.978C37.8707 107.978 32.6892 101.719 31.2981 98.5888L40.1659 92.8509C41.4179 97.6499 45.5561 98.6758 47.4688 98.5888Z"/>
</mask>
<path d="M117.368 0H118.368V-1H117.368V0ZM0 0V-1H-1V0H0ZM117.368 117.368V118.368H118.368V117.368H117.368ZM0 117.368H-1V118.368H0V117.368ZM87.9514 62.4325L87.2007 63.0931L87.5624 63.5041L88.1035 63.4209L87.9514 62.4325ZM96.4308 67.076L95.5705 67.5858L96.1081 68.493L96.9855 67.908L96.4308 67.076ZM87.9513 62.4324L88.702 61.7718L88.2941 61.3082L87.6968 61.4653L87.9513 62.4324ZM83.9135 66.2683V67.2683H84.8446L84.911 66.3396L83.9135 66.2683ZM73.0114 66.2683L72.012 66.2345L71.977 67.2683H73.0114V66.2683ZM85.7305 52.9436L86.342 52.1523L86.0203 51.9037L85.6165 51.9501L85.7305 52.9436ZM85.7306 52.9436L85.1192 53.7349L85.4525 53.9925L85.8696 53.9339L85.7306 52.9436ZM104.91 61.423L105.465 62.2551L106.157 61.7937L105.829 61.0291L104.91 61.423ZM97.0364 92.918L98.0317 93.0144L98.0319 93.0128L97.0364 92.918ZM89.3645 98.3691L88.3729 98.2397L88.2415 99.2472L89.2509 99.3626L89.3645 98.3691ZM91.9891 86.6594L91.07 86.2655L90.6418 87.2644L91.6729 87.6081L91.9891 86.6594ZM91.9892 86.6593L92.9083 87.0532L93.3364 86.0543L92.3054 85.7106L91.9892 86.6593ZM78.2606 79.5932L77.5536 80.3003L77.611 80.3578L77.677 80.4052L78.2606 79.5932ZM78.0587 79.3913L78.7658 78.6842L78.6958 78.6142L78.6134 78.5593L78.0587 79.3913ZM73.0115 66.2685V65.2685H72.1164L72.0176 66.158L73.0115 66.2685ZM83.9136 66.2685L84.8988 66.4398L85.1025 65.2685H83.9136V66.2685ZM88.9607 73.1327L88.6061 74.0677L89.0159 74.2232L89.4079 74.0271L88.9607 73.1327ZM88.9608 73.1327L89.3322 72.2042L88.9152 72.0374L88.5136 72.2382L88.9608 73.1327ZM100.267 78.3818L101.208 78.7181L101.514 77.8634L100.692 77.477L100.267 78.3818ZM100.267 78.3819L99.3249 78.0456L99.0182 78.9042L99.8449 79.2886L100.267 78.3819ZM108.342 92.918L107.344 92.8593L107.342 92.8886V92.918H108.342ZM89.3645 108.06L88.3729 107.93L88.2332 109.001L89.3114 109.058L89.3645 108.06ZM89.3645 108.06L90.3561 108.189L90.5034 107.06H89.3645V108.06ZM69.3773 96.9557L68.8711 96.0932L68.0706 96.5631L68.4797 97.3963L69.3773 96.9557ZM78.6643 91.5046L79.5359 91.0144L79.0365 90.1266L78.1581 90.6422L78.6643 91.5046ZM89.3645 98.3689L90.3561 98.4982L90.4952 97.4319L89.4215 97.3705L89.3645 98.3689ZM52.6849 53.7283V52.7283H51.6849V53.7283H52.6849ZM52.6849 94.1549H51.6849V95.1549H52.6849V94.1549ZM63.6392 53.7283H64.6392V52.7283H63.6392V53.7283ZM63.6392 94.1549V95.1549H64.6392V94.1549H63.6392ZM52.6852 94.1549V93.1549H51.7422L51.6869 94.0962L52.6852 94.1549ZM47.4688 98.5888V97.5888H47.4461L47.4234 97.5899L47.4688 98.5888ZM63.6395 94.1549H64.6395V93.1549H63.6395V94.1549ZM47.4688 107.978L47.501 106.979L47.4849 106.978H47.4688V107.978ZM31.2981 98.5888L30.7549 97.7493L30.0371 98.2137L30.3843 98.995L31.2981 98.5888ZM40.1659 92.8509L41.1335 92.5984L40.7843 91.2596L39.6227 92.0113L40.1659 92.8509ZM117.368 -1H0V1H117.368V-1ZM118.368 117.368V0H116.368V117.368H118.368ZM0 118.368H117.368V116.368H0V118.368ZM-1 0V117.368H1V0H-1ZM88.1035 63.4209C89.5342 63.2008 93.2348 63.6443 95.5705 67.5858L97.2911 66.5662C94.4584 61.786 89.8681 61.1259 87.7994 61.4441L88.1035 63.4209ZM87.2006 63.093L87.2007 63.0931L88.7021 61.7719L88.702 61.7718L87.2006 63.093ZM84.911 66.3396C84.9635 65.6043 85.4142 64.9634 86.1209 64.423C86.8263 63.8836 87.669 63.5407 88.2058 63.3995L87.6968 61.4653C86.955 61.6606 85.8596 62.1051 84.906 62.8342C83.9539 63.5623 83.025 64.6712 82.9161 66.1971L84.911 66.3396ZM73.0114 67.2683H83.9135V65.2683H73.0114V67.2683ZM85.6165 51.9501C80.3935 52.5494 77.0002 55.0491 74.9142 57.9582C72.8523 60.8338 72.085 64.08 72.012 66.2345L74.0109 66.3022C74.0724 64.4861 74.7386 61.6352 76.5395 59.1237C78.3164 56.6457 81.2153 54.4683 85.8445 53.937L85.6165 51.9501ZM86.3421 52.1523L86.342 52.1523L85.1191 53.7348L85.1192 53.7349L86.3421 52.1523ZM105.829 61.0291C104.048 56.8727 97.5747 50.2714 85.5916 51.9533L85.8696 53.9339C96.902 52.3855 102.542 58.4361 103.991 61.8169L105.829 61.0291ZM96.9855 67.908L105.465 62.2551L104.356 60.591L95.8761 66.2439L96.9855 67.908ZM96.041 92.8217C95.958 93.679 95.5302 94.9711 94.5384 95.96C93.5864 96.9094 92.0291 97.6671 89.478 97.3755L89.2509 99.3626C92.3528 99.7171 94.5304 98.7924 95.9506 97.3763C97.3311 95.9997 97.9128 94.2432 98.0317 93.0144L96.041 92.8217ZM91.6729 87.6081C92.45 87.8671 93.6558 88.5077 94.6115 89.4544C95.5612 90.3951 96.164 91.5302 96.0409 92.8232L98.0319 93.0128C98.2317 90.9141 97.2195 89.2227 96.019 88.0335C94.8245 86.8502 93.3453 86.0574 92.3053 85.7107L91.6729 87.6081ZM91.07 86.2654L91.07 86.2655L92.9082 87.0534L92.9083 87.0532L91.07 86.2654ZM77.677 80.4052C79.8794 81.9882 85.731 85.6274 91.6729 87.608L92.3054 85.7106C86.6184 83.815 80.9488 80.2938 78.8442 78.7811L77.677 80.4052ZM77.3517 80.0985L77.5536 80.3003L78.9676 78.886L78.7658 78.6842L77.3517 80.0985ZM72.0176 66.158C71.8368 67.7848 71.8923 70.388 72.6288 73.0233C73.3656 75.6599 74.8148 78.4306 77.504 80.2234L78.6134 78.5593C76.4573 77.1218 75.2146 74.8453 74.555 72.485C73.8951 70.1235 73.8496 67.7805 74.0054 66.3789L72.0176 66.158ZM83.9136 65.2685H73.0115V67.2685H83.9136V65.2685ZM89.3154 72.1977C88.4471 71.8683 87.162 71.1549 86.1888 70.1281C85.2286 69.1149 84.6469 67.8878 84.8988 66.4398L82.9283 66.0971C82.5341 68.3638 83.5003 70.1987 84.7372 71.5039C85.9613 72.7954 87.5227 73.6568 88.6061 74.0677L89.3154 72.1977ZM88.5136 72.2382L88.5135 72.2383L89.4079 74.0271L89.408 74.0271L88.5136 72.2382ZM100.692 77.477C97.2872 75.8745 90.1762 72.5418 89.3322 72.2042L88.5894 74.0611C89.3605 74.3696 96.3818 77.6589 99.8409 79.2866L100.692 77.477ZM101.208 78.7183L101.208 78.7181L99.3249 78.0455L99.3249 78.0456L101.208 78.7183ZM109.34 92.9768C109.45 91.1214 109.147 88.1409 107.907 85.1872C106.66 82.2177 104.44 79.2202 100.688 77.4752L99.8449 79.2886C103.038 80.7738 104.957 83.3283 106.062 85.9614C107.174 88.6101 107.437 91.2825 107.344 92.8593L109.34 92.9768ZM89.3114 109.058C92.6026 109.233 97.5493 108.664 101.714 106.333C105.943 103.967 109.342 99.7847 109.342 92.918H107.342C107.342 98.9724 104.415 102.53 100.737 104.588C96.9944 106.682 92.4523 107.223 89.4176 107.061L89.3114 109.058ZM88.3729 107.93L88.3729 107.93L90.3561 108.189L90.3561 108.189L88.3729 107.93ZM68.4797 97.3963C70.4274 101.364 77.2761 109.06 89.3645 109.06V107.06C78.1951 107.06 71.9614 99.9501 70.275 96.515L68.4797 97.3963ZM78.1581 90.6422L68.8711 96.0932L69.8836 97.8181L79.1705 92.367L78.1581 90.6422ZM89.4215 97.3705C87.2823 97.2483 82.223 95.7914 79.5359 91.0144L77.7927 91.9949C80.9201 97.5547 86.7359 99.2203 89.3075 99.3673L89.4215 97.3705ZM90.3561 98.4984L90.3561 98.4982L88.3729 98.2396L88.3729 98.2397L90.3561 98.4984ZM51.6849 53.7283V94.1549H53.6849V53.7283H51.6849ZM63.6392 52.7283H52.6849V54.7283H63.6392V52.7283ZM64.6392 94.1549V53.7283H62.6392V94.1549H64.6392ZM52.6849 95.1549H63.6392V93.1549H52.6849V95.1549ZM51.6869 94.0962C51.6543 94.6507 51.4069 95.5398 50.7742 96.2725C50.173 96.9687 49.1706 97.5888 47.4688 97.5888V99.5888C49.7314 99.5888 51.2937 98.731 52.2879 97.5797C53.2505 96.4649 53.6291 95.1372 53.6834 94.2137L51.6869 94.0962ZM63.6395 93.1549H52.6852V95.1549H63.6395V93.1549ZM47.4366 108.978C50.268 109.069 54.5163 108.46 58.094 106.29C61.7322 104.084 64.6395 100.276 64.6395 94.1549H62.6395C62.6395 99.5101 60.1565 102.7 57.0569 104.58C53.8968 106.497 50.0598 107.061 47.501 106.979L47.4366 108.978ZM30.3843 98.995C31.898 102.401 37.3901 108.978 47.4688 108.978V106.978C38.3514 106.978 33.4803 101.036 32.212 98.1827L30.3843 98.995ZM39.6227 92.0113L30.7549 97.7493L31.8414 99.4284L40.7092 93.6904L39.6227 92.0113ZM47.4234 97.5899C45.7984 97.6637 42.2253 96.7835 41.1335 92.5984L39.1983 93.1033C40.6104 98.5162 45.3139 99.6878 47.5142 99.5878L47.4234 97.5899Z" fill="black" mask="url(#path-1-inside-1_100_25)"/>
</svg>
