<svg width="240" height="249" viewBox="0 0 240 249" fill="none" xmlns="http://www.w3.org/2000/svg">
<path d="M68.7827 69.6175C85.2949 50.7813 130.795 10.6872 180.699 1" stroke="black"/>
<path d="M55.5724 69.9886L56.0722 70.0034L56.0724 69.996V69.9886H55.5724ZM42.3628 82.8272L42.3076 82.3303L42.3628 83.3272V82.8272ZM55.5724 95.5958L56.0725 95.5958L56.0724 95.5941L55.5724 95.5958ZM55.5725 95.6178L56.0725 95.6166H55.0725L55.5725 95.6178ZM55.5726 95.5958L55.0726 95.5941V95.5958H55.5726ZM68.7822 82.8272V83.3272L68.8374 82.3303L68.7822 82.8272ZM55.5726 69.9886H55.0726V69.996L55.0728 70.0034L55.5726 69.9886ZM55.5726 69.9844H56.0726L55.0728 69.97L55.5726 69.9844ZM55.5725 69.9865L55.0727 70.0015H56.0723L55.5725 69.9865ZM55.5724 69.9844L56.0722 69.97L55.0724 69.9844H55.5724ZM43.9419 83.2582C48.6096 82.8401 51.6275 80.5736 53.4813 77.8777C55.3224 75.2001 56.0095 72.1113 56.0722 70.0034L55.0727 69.9737C55.0145 71.9265 54.3703 74.8198 52.6573 77.3111C50.9569 79.7839 48.1978 81.873 43.8527 82.2622L43.9419 83.2582ZM42.418 83.3242C42.863 83.2747 43.3583 83.2504 43.8882 83.2601L43.9065 82.2603C43.3353 82.2498 42.797 82.2759 42.3076 82.3303L42.418 83.3242ZM43.8527 82.2622C43.376 82.3049 42.8796 82.3272 42.3628 82.3272V83.3272C42.9084 83.3272 43.4346 83.3037 43.9419 83.2582L43.8527 82.2622ZM56.0724 95.5941C56.055 90.3811 54.2421 87.044 51.7755 85.0096C49.3276 82.9907 46.2963 82.3042 43.9065 82.2603L43.8882 83.2601C46.1255 83.3012 48.9148 83.9465 51.1392 85.7811C53.3449 87.6002 55.0559 90.6384 55.0725 95.5974L56.0724 95.5941ZM55.0724 95.5958V95.6701H56.0724V95.5958H55.0724ZM56.0724 95.6701C56.0724 95.653 56.0725 95.636 56.0725 95.6189L55.0725 95.6166C55.0725 95.6344 55.0724 95.6522 55.0724 95.6701H56.0724ZM56.0726 95.6701C56.0726 95.6522 56.0726 95.6344 56.0725 95.6166L55.0725 95.6189C55.0726 95.6359 55.0726 95.653 55.0726 95.6701H56.0726ZM55.0726 95.5958V95.6701H56.0726V95.5958H55.0726ZM56.0726 95.5974C56.0891 90.6384 57.8002 87.6002 60.0058 85.7811C62.2302 83.9465 65.0195 83.3012 67.2569 83.2601L67.2385 82.2603C64.8487 82.3042 61.8175 82.9907 59.3696 85.0096C56.903 87.044 55.09 90.3811 55.0726 95.5941L56.0726 95.5974ZM67.2031 83.2582C67.7104 83.3037 68.2366 83.3272 68.7822 83.3272V82.3272C68.2654 82.3272 67.769 82.3049 67.2923 82.2622L67.2031 83.2582ZM68.8374 82.3303C68.3481 82.2759 67.8098 82.2498 67.2385 82.2603L67.2569 83.2601C67.7868 83.2504 68.282 83.2747 68.727 83.3242L68.8374 82.3303ZM67.2923 82.2622C62.9473 81.873 60.1881 79.7839 58.4877 77.3111C56.7747 74.8198 56.1305 71.9265 56.0724 69.9737L55.0728 70.0034C55.1356 72.1113 55.8226 75.2001 57.6637 77.8777C59.5175 80.5736 62.5354 82.8401 67.2031 83.2582L67.2923 82.2622ZM55.0726 69.9844V69.9886H56.0726V69.9844H55.0726ZM56.0723 70.0015C56.0723 70.0004 56.0723 69.9994 56.0724 69.9988L55.0728 69.97C55.0728 69.9707 55.0727 69.9711 55.0727 69.9714L56.0723 70.0015ZM56.0723 69.9714C56.0723 69.9709 56.0722 69.9703 56.0722 69.9702C56.0722 69.9699 56.0722 69.9699 56.0722 69.97L55.0727 69.9988C55.0727 69.9995 55.0727 70.0002 55.0727 70.0007C55.0727 70.0013 55.0727 70.0013 55.0727 70.0015L56.0723 69.9714ZM55.0724 69.9844V69.9886H56.0724V69.9844H55.0724Z" fill="black"/>
<path d="M23.7902 204.001L24.2899 204.016L24.2902 204.008V204.001H23.7902ZM1 226.157L0.944784 225.66L1 226.657V226.157ZM23.7902 248.269H24.2902L24.2902 248.268L23.7902 248.269ZM23.7902 248.283L24.2902 248.283L23.2902 248.283L23.7902 248.283ZM23.7902 248.269L23.2902 248.268V248.269H23.7902ZM46.5803 226.157V226.657L46.6356 225.66L46.5803 226.157ZM23.7902 204.001H23.2902V204.008L23.2904 204.016L23.7902 204.001ZM23.7902 204H24.2902L23.2904 203.984L23.7902 204ZM23.7902 204.001L23.2904 204.016L24.2899 204.017L23.7902 204.001ZM23.7902 204L24.2899 203.985L23.2902 204H23.7902ZM3.69206 226.54C11.6304 225.828 16.7439 221.98 19.8862 217.408C23.0159 212.855 24.1846 207.595 24.2899 204.016L23.2904 203.986C23.1896 207.41 22.0638 212.475 19.0621 216.842C16.0731 221.191 11.2184 224.861 3.60284 225.544L3.69206 226.54ZM1.05522 226.654C1.83906 226.567 2.70909 226.524 3.63827 226.541L3.65663 225.542C2.68609 225.524 1.77301 225.568 0.944784 225.66L1.05522 226.654ZM3.60284 225.544C2.76933 225.618 1.90212 225.657 1 225.657V226.657C1.9309 226.657 2.8279 226.617 3.69206 226.54L3.60284 225.544ZM24.2902 248.268C24.2796 239.332 21.1923 233.662 17.028 230.218C12.8825 226.789 7.73072 225.616 3.65662 225.542L3.63827 226.541C7.5597 226.613 12.4689 227.745 16.3907 230.989C20.2937 234.217 23.2799 239.587 23.2902 248.269L24.2902 248.268ZM23.2902 248.269V248.314H24.2902V248.269H23.2902ZM24.2902 248.314C24.2902 248.304 24.2902 248.294 24.2902 248.284L23.2902 248.283C23.2902 248.293 23.2902 248.304 23.2902 248.314H24.2902ZM24.2902 248.314C24.2902 248.304 24.2902 248.293 24.2902 248.283L23.2902 248.284C23.2902 248.294 23.2902 248.304 23.2902 248.314H24.2902ZM23.2902 248.269V248.314H24.2902V248.269H23.2902ZM24.2902 248.27C24.3004 239.587 27.2867 234.217 31.1897 230.989C35.1114 227.745 40.0206 226.614 43.9421 226.542L43.9237 225.542C39.8496 225.617 34.6979 226.79 30.5523 230.218C26.3881 233.663 23.3007 239.333 23.2902 248.268L24.2902 248.27ZM43.8883 226.54C44.7524 226.617 45.6494 226.657 46.5803 226.657V225.657C45.6782 225.657 44.811 225.618 43.9775 225.544L43.8883 226.54ZM46.6356 225.66C45.8073 225.568 44.8942 225.524 43.9237 225.542L43.9421 226.542C44.8713 226.525 45.7413 226.567 46.5251 226.654L46.6356 225.66ZM43.9775 225.544C36.3619 224.861 31.5072 221.191 28.5182 216.842C25.5166 212.475 24.3908 207.411 24.29 203.986L23.2904 204.016C23.3958 207.595 24.5644 212.855 27.6941 217.409C30.8365 221.981 35.95 225.829 43.8883 226.54L43.9775 225.544ZM23.2902 204V204.001H24.2902V204H23.2902ZM24.2899 204.017L24.2899 204.016L23.2904 203.984L23.2904 203.985L24.2899 204.017ZM24.2899 203.985C24.2899 203.985 24.2899 203.985 24.2899 203.985L23.2904 204.015C23.2904 204.016 23.2904 204.016 23.2904 204.016L24.2899 203.985ZM23.2902 204V204.001H24.2902V204H23.2902Z" fill="black"/>
<path d="M47.2627 203.686C75.5518 171.416 153.504 102.726 239 86.1294" stroke="black"/>
</svg>
