<svg width="94" height="85" viewBox="0 0 94 85" fill="none" xmlns="http://www.w3.org/2000/svg">
<mask id="path-1-inside-1_100_23" fill="white">
<path fill-rule="evenodd" clip-rule="evenodd" d="M25.138 80.2492C33.6351 85.155 50.2811 72.2311 62.3178 51.3829C74.3545 30.5346 77.224 9.65686 68.7269 4.75106C60.2298 -0.154736 43.5839 12.7692 31.5471 33.6174C19.5104 54.4657 16.6409 75.3434 25.138 80.2492ZM26.9673 77.0245C33.91 81.0329 48.4378 68.8678 59.416 49.8529C70.3942 30.8381 73.6656 12.1741 66.7229 8.16571C59.7801 4.15732 45.2524 16.3224 34.2741 35.3373C23.2959 54.3521 20.0245 73.0161 26.9673 77.0245Z"/>
</mask>
<path fill-rule="evenodd" clip-rule="evenodd" d="M25.138 80.2492C33.6351 85.155 50.2811 72.2311 62.3178 51.3829C74.3545 30.5346 77.224 9.65686 68.7269 4.75106C60.2298 -0.154736 43.5839 12.7692 31.5471 33.6174C19.5104 54.4657 16.6409 75.3434 25.138 80.2492ZM26.9673 77.0245C33.91 81.0329 48.4378 68.8678 59.416 49.8529C70.3942 30.8381 73.6656 12.1741 66.7229 8.16571C59.7801 4.15732 45.2524 16.3224 34.2741 35.3373C23.2959 54.3521 20.0245 73.0161 26.9673 77.0245Z" fill="white"/>
<path d="M62.3178 51.3829L63.1838 51.8829L63.1838 51.8829L62.3178 51.3829ZM25.138 80.2492L24.638 81.1153L24.638 81.1153L25.138 80.2492ZM31.5471 33.6174L30.6811 33.1174L30.6811 33.1174L31.5471 33.6174ZM26.9673 77.0245L27.4673 76.1585L26.9673 77.0245ZM66.7229 8.16571L67.2229 7.29969L67.2229 7.29968L66.7229 8.16571ZM34.2741 35.3373L35.1402 35.8373L35.1402 35.8373L34.2741 35.3373ZM61.4518 50.8829C55.4817 61.2233 48.3902 69.5574 41.7873 74.6839C38.4837 77.2489 35.3437 78.9786 32.5627 79.7793C29.7855 80.5789 27.4535 80.4314 25.638 79.3832L24.638 81.1153C27.071 82.52 30.0062 82.5966 33.1161 81.7012C36.2222 80.8069 39.5892 78.9226 43.0138 76.2637C49.8673 70.9427 57.1171 62.3907 63.1838 51.8829L61.4518 50.8829ZM68.2269 5.61709C70.0424 6.66528 71.3362 8.61109 72.0323 11.416C72.7294 14.2247 72.8013 17.8089 72.2319 21.9524C71.0936 30.234 67.4218 40.5424 61.4518 50.8829L63.1838 51.8829C69.2505 41.3751 73.0318 30.8205 74.2132 22.2247C74.8036 17.9295 74.752 14.0714 73.9734 10.9343C73.1939 7.79333 71.6599 5.28974 69.2269 3.88504L68.2269 5.61709ZM32.4132 34.1174C38.3832 23.777 45.4747 15.4429 52.0776 10.3164C55.3813 7.75143 58.5213 6.02165 61.3022 5.22097C64.0794 4.42138 66.4114 4.5689 68.2269 5.61709L69.2269 3.88504C66.7939 2.48033 63.8587 2.40366 60.7488 3.29905C57.6427 4.19335 54.2757 6.07773 50.8511 8.73659C43.9976 14.0576 36.7478 22.6096 30.6811 33.1174L32.4132 34.1174ZM25.638 79.3832C23.8225 78.335 22.5287 76.3892 21.8326 73.5843C21.1356 70.7756 21.0636 67.1914 21.6331 63.0479C22.7713 54.7663 26.4431 44.4578 32.4132 34.1174L30.6811 33.1174C24.6144 43.6252 20.8331 54.1798 19.6517 62.7756C19.0614 67.0708 19.1129 70.9289 19.8915 74.066C20.671 77.207 22.205 79.7105 24.638 81.1153L25.638 79.3832ZM58.55 49.3529C53.1037 58.7862 46.7974 66.4815 41.0363 71.3057C38.1524 73.7206 35.4481 75.3798 33.0937 76.1995C30.7356 77.0206 28.857 76.9608 27.4673 76.1585L26.4673 77.8905C28.5489 79.0923 31.0898 79.0151 33.7514 78.0883C36.4166 77.1603 39.3321 75.3413 42.3203 72.8391C48.3033 67.8291 54.7501 59.9345 60.282 50.3529L58.55 49.3529ZM66.2229 9.03174C67.6126 9.83411 68.6037 11.4312 69.0717 13.8838C69.5389 16.3327 69.4542 19.5043 68.8048 23.2093C67.5075 30.6106 63.9963 39.9197 58.55 49.3529L60.282 50.3529C65.8139 40.7714 69.4275 31.241 70.7748 23.5546C71.4477 19.7156 71.5652 16.2812 71.0362 13.509C70.508 10.7406 69.3045 8.5015 67.2229 7.29969L66.2229 9.03174ZM35.1402 35.8373C40.5865 26.404 46.8927 18.7087 52.6538 13.8845C55.5377 11.4696 58.242 9.81044 60.5964 8.99066C62.9545 8.16959 64.8331 8.22936 66.2229 9.03174L67.2229 7.29968C65.1413 6.09787 62.6004 6.17513 59.9388 7.10188C57.2735 8.02991 54.358 9.84886 51.3698 12.3511C45.3868 17.3611 38.94 25.2557 33.4081 34.8373L35.1402 35.8373ZM27.4673 76.1585C26.0775 75.3561 25.0864 73.759 24.6185 71.3064C24.1512 68.8575 24.2359 65.6859 24.8853 61.9809C26.1826 54.5796 29.6939 45.2705 35.1402 35.8373L33.4081 34.8373C27.8762 44.4188 24.2626 53.9492 22.9154 61.6356C22.2425 65.4746 22.125 68.909 22.6539 71.6812C23.1821 74.4496 24.3856 76.6887 26.4673 77.8905L27.4673 76.1585Z" fill="black" mask="url(#path-1-inside-1_100_23)"/>
<mask id="path-3-inside-2_100_23" fill="white">
<path fill-rule="evenodd" clip-rule="evenodd" d="M25.138 4.75102C33.6351 -0.154778 50.2811 12.7691 62.3178 33.6174C74.3545 54.4656 77.224 75.3434 68.7269 80.2492C60.2298 85.155 43.5839 72.2311 31.5471 51.3828C19.5104 30.5346 16.6409 9.65681 25.138 4.75102ZM26.9673 7.97586C33.91 3.96747 48.4378 16.1326 59.416 35.1474C70.3942 54.1622 73.6656 72.8262 66.7229 76.8346C59.7801 80.843 45.2524 68.6779 34.2741 49.6631C23.2959 30.6483 20.0245 11.9843 26.9673 7.97586Z"/>
</mask>
<path fill-rule="evenodd" clip-rule="evenodd" d="M25.138 4.75102C33.6351 -0.154778 50.2811 12.7691 62.3178 33.6174C74.3545 54.4656 77.224 75.3434 68.7269 80.2492C60.2298 85.155 43.5839 72.2311 31.5471 51.3828C19.5104 30.5346 16.6409 9.65681 25.138 4.75102ZM26.9673 7.97586C33.91 3.96747 48.4378 16.1326 59.416 35.1474C70.3942 54.1622 73.6656 72.8262 66.7229 76.8346C59.7801 80.843 45.2524 68.6779 34.2741 49.6631C23.2959 30.6483 20.0245 11.9843 26.9673 7.97586Z" fill="white"/>
<path d="M62.3178 33.6174L63.1838 33.1174L63.1838 33.1174L62.3178 33.6174ZM25.138 4.75102L25.638 5.61705L25.638 5.61705L25.138 4.75102ZM31.5471 51.3828L30.6811 51.8828L30.6811 51.8828L31.5471 51.3828ZM26.9673 7.97586L27.4673 8.84189L26.9673 7.97586ZM66.7229 76.8346L67.2229 77.7007L67.2229 77.7007L66.7229 76.8346ZM61.4518 34.1174C55.4817 23.7769 48.3902 15.4428 41.7873 10.3163C38.4837 7.75139 35.3437 6.02161 32.5627 5.22093C29.7855 4.42134 27.4535 4.56886 25.638 5.61705L24.638 3.885C27.071 2.48029 30.0062 2.40362 33.1161 3.29901C36.2222 4.19331 39.5892 6.07769 43.0138 8.73655C49.8673 14.0576 57.1171 22.6096 63.1838 33.1174L61.4518 34.1174ZM68.2269 79.3832C70.0424 78.335 71.3362 76.3892 72.0323 73.5842C72.7294 70.7755 72.8013 67.1913 72.2319 63.0479C71.0936 54.7663 67.4218 44.4578 61.4518 34.1174L63.1838 33.1174C69.2505 43.6252 73.0318 54.1797 74.2132 62.7755C74.8036 67.0708 74.752 70.9289 73.9734 74.066C73.1939 77.2069 71.6599 79.7105 69.2269 81.1152L68.2269 79.3832ZM32.4132 50.8828C38.3832 61.2233 45.4747 69.5574 52.0776 74.6839C55.3813 77.2488 58.5213 78.9786 61.3022 79.7793C64.0794 80.5789 66.4114 80.4313 68.2269 79.3832L69.2269 81.1152C66.7939 82.5199 63.8587 82.5966 60.7488 81.7012C57.6427 80.8069 54.2757 78.9225 50.8511 76.2637C43.9976 70.9426 36.7478 62.3906 30.6811 51.8828L32.4132 50.8828ZM25.638 5.61705C23.8225 6.66524 22.5287 8.61105 21.8326 11.416C21.1356 14.2247 21.0636 17.8089 21.6331 21.9523C22.7713 30.2339 26.4431 40.5424 32.4132 50.8828L30.6811 51.8828C24.6144 41.375 20.8331 30.8205 19.6517 22.2247C19.0614 17.9294 19.1129 14.0714 19.8915 10.9342C20.671 7.79329 22.205 5.2897 24.638 3.885L25.638 5.61705ZM58.55 35.6474C53.1037 26.2142 46.7974 18.5188 41.0363 13.6946C38.1524 11.2798 35.4481 9.62059 33.0937 8.8008C30.7356 7.97974 28.857 8.03951 27.4673 8.84189L26.4673 7.10983C28.5489 5.90802 31.0898 5.98528 33.7514 6.91203C36.4166 7.84006 39.3321 9.65901 42.3203 12.1612C48.3033 17.1712 54.7501 25.0658 60.282 34.6474L58.55 35.6474ZM66.2229 75.9686C67.6126 75.1662 68.6037 73.5692 69.0717 71.1165C69.5389 68.6676 69.4542 65.496 68.8048 61.7911C67.5075 54.3897 63.9963 45.0807 58.55 35.6474L60.282 34.6474C65.8139 44.229 69.4275 53.7593 70.7748 61.4458C71.4477 65.2848 71.5652 68.7191 71.0362 71.4913C70.508 74.2597 69.3045 76.4988 67.2229 77.7007L66.2229 75.9686ZM35.1402 49.1631C40.5865 58.5963 46.8927 66.2917 52.6538 71.1159C55.5377 73.5307 58.242 75.1899 60.5964 76.0097C62.9545 76.8307 64.8331 76.771 66.2229 75.9686L67.2229 77.7007C65.1413 78.9025 62.6004 78.8252 59.9388 77.8985C57.2735 76.9704 54.358 75.1515 51.3698 72.6493C45.3868 67.6393 38.94 59.7446 33.4081 50.1631L35.1402 49.1631ZM27.4673 8.84189C26.0775 9.64426 25.0864 11.2413 24.6185 13.694C24.1512 16.1428 24.2359 19.3145 24.8853 23.0194C26.1826 30.4208 29.6939 39.7298 35.1402 49.1631L33.4081 50.1631C27.8762 40.5815 24.2626 31.0511 22.9154 23.3647C22.2425 19.5257 22.125 16.0914 22.6539 13.3191C23.1821 10.5508 24.3856 8.31165 26.4673 7.10983L27.4673 8.84189Z" fill="black" mask="url(#path-3-inside-2_100_23)"/>
<mask id="path-5-inside-3_100_23" fill="white">
<path fill-rule="evenodd" clip-rule="evenodd" d="M3.34309 42.5001C3.34308 32.6885 22.8585 24.7347 46.932 24.7347C71.0054 24.7347 90.5209 32.6885 90.5209 42.5001C90.5209 52.3117 71.0055 60.2656 46.932 60.2656C22.8585 60.2656 3.34309 52.3117 3.34309 42.5001ZM7.05088 42.5284C7.05089 34.5116 24.8501 28.0127 46.8065 28.0127C68.7629 28.0127 86.5621 34.5116 86.5621 42.5284C86.5621 50.5452 68.7629 57.044 46.8065 57.044C24.8501 57.044 7.05089 50.5452 7.05088 42.5284Z"/>
</mask>
<path fill-rule="evenodd" clip-rule="evenodd" d="M3.34309 42.5001C3.34308 32.6885 22.8585 24.7347 46.932 24.7347C71.0054 24.7347 90.5209 32.6885 90.5209 42.5001C90.5209 52.3117 71.0055 60.2656 46.932 60.2656C22.8585 60.2656 3.34309 52.3117 3.34309 42.5001ZM7.05088 42.5284C7.05089 34.5116 24.8501 28.0127 46.8065 28.0127C68.7629 28.0127 86.5621 34.5116 86.5621 42.5284C86.5621 50.5452 68.7629 57.044 46.8065 57.044C24.8501 57.044 7.05089 50.5452 7.05088 42.5284Z" fill="white"/>
<path d="M46.932 24.7347L46.932 23.7347L46.932 23.7347L46.932 24.7347ZM46.932 60.2656L46.932 61.2656L46.932 61.2656L46.932 60.2656ZM46.8065 28.0127L46.8065 29.0127L46.8065 29.0127L46.8065 28.0127ZM7.05088 42.5284L6.05088 42.5284L6.05088 42.5284L7.05088 42.5284ZM86.5621 42.5284L85.5621 42.5284V42.5284L86.5621 42.5284ZM46.8065 57.044L46.8065 56.044H46.8065L46.8065 57.044ZM46.932 25.7347C34.9919 25.7347 24.2286 27.709 16.4874 30.8641C12.6143 32.4426 9.54628 34.2971 7.46239 36.3051C5.38133 38.3104 4.34308 40.4037 4.34309 42.5001L2.34309 42.5001C2.34308 39.6907 3.74427 37.1105 6.07464 34.8649C8.40219 32.6221 11.7176 30.6484 15.7325 29.012C23.7674 25.7372 34.7986 23.7347 46.932 23.7347L46.932 25.7347ZM89.5209 42.5001C89.5209 40.4037 88.4826 38.3104 86.4015 36.3051C84.3177 34.2971 81.2496 32.4426 77.3765 30.8641C69.6354 27.709 58.8721 25.7347 46.932 25.7347L46.932 23.7347C59.0653 23.7347 70.0965 25.7372 78.1314 29.012C82.1463 30.6484 85.4618 32.6221 87.7893 34.8649C90.1197 37.1105 91.5209 39.6907 91.5209 42.5001L89.5209 42.5001ZM46.932 59.2656C58.8721 59.2656 69.6354 57.2912 77.3765 54.1362C81.2496 52.5576 84.3177 50.7032 86.4015 48.6951C88.4826 46.6898 89.5209 44.5965 89.5209 42.5001L91.5209 42.5001C91.5209 45.3095 90.1197 47.8898 87.7893 50.1353C85.4618 52.3782 82.1463 54.3519 78.1314 55.9882C70.0965 59.263 59.0653 61.2656 46.932 61.2656L46.932 59.2656ZM4.34309 42.5001C4.34309 44.5965 5.38133 46.6898 7.4624 48.6952C9.54628 50.7032 12.6143 52.5576 16.4874 54.1362C24.2286 57.2912 34.9919 59.2656 46.932 59.2656L46.932 61.2656C34.7986 61.2656 23.7674 59.263 15.7326 55.9882C11.7176 54.3519 8.40219 52.3782 6.07464 50.1353C3.74427 47.8898 2.34309 45.3095 2.34309 42.5001L4.34309 42.5001ZM46.8065 29.0127C35.9139 29.0127 26.0964 30.6264 19.038 33.2036C15.5047 34.4937 12.7157 36.0061 10.8285 37.6352C8.93843 39.2668 8.05088 40.9236 8.05088 42.5284L6.05088 42.5284C6.05088 40.1247 7.38824 37.9629 9.52163 36.1213C11.658 34.2771 14.691 32.6617 18.3521 31.3249C25.6824 28.6485 35.7427 27.0127 46.8065 27.0127L46.8065 29.0127ZM85.5621 42.5284C85.5621 40.9236 84.6746 39.2668 82.7845 37.6352C80.8973 36.0061 78.1083 34.4937 74.575 33.2036C67.5166 30.6264 57.6991 29.0127 46.8065 29.0127L46.8065 27.0127C57.8704 27.0127 67.9307 28.6485 75.261 31.3249C78.9221 32.6617 81.9551 34.2771 84.0914 36.1213C86.2248 37.9629 87.5621 40.1247 87.5621 42.5284L85.5621 42.5284ZM46.8065 56.044C57.6991 56.044 67.5166 54.4303 74.575 51.8532C78.1083 50.5631 80.8973 49.0506 82.7845 47.4216C84.6746 45.7899 85.5621 44.1331 85.5621 42.5284L87.5621 42.5284C87.5621 44.932 86.2248 47.0939 84.0914 48.9355C81.9551 50.7797 78.9221 52.3951 75.261 53.7318C67.9307 56.4083 57.8704 58.044 46.8065 58.044L46.8065 56.044ZM8.05088 42.5284C8.05088 44.1331 8.93843 45.7899 10.8285 47.4216C12.7157 49.0506 15.5047 50.5631 19.038 51.8532C26.0964 54.4303 35.9139 56.044 46.8065 56.044L46.8065 58.044C35.7427 58.044 25.6824 56.4083 18.3521 53.7318C14.691 52.3951 11.658 50.7797 9.52163 48.9355C7.38824 47.0939 6.05088 44.932 6.05088 42.5284L8.05088 42.5284Z" fill="black" mask="url(#path-5-inside-3_100_23)"/>
<circle cx="46.8749" cy="42.6307" r="7.30217" stroke="black"/>
</svg>
