<svg width="117" height="103" viewBox="0 0 117 103" fill="none" xmlns="http://www.w3.org/2000/svg">
<path fill-rule="evenodd" clip-rule="evenodd" d="M59.2081 5.50506V5.50531C52.0512 4.95478 37.2419 9.35902 35.26 31.3803L35.2595 31.3804H35.2601C35.2601 41.4285 36.9485 53.0185 42.2804 59.2488C42.5949 59.2048 42.9163 59.182 43.2429 59.182C47.0435 59.182 50.1245 62.263 50.1245 66.0636C50.1245 69.8643 47.0435 72.9453 43.2429 72.9453C39.4423 72.9453 36.3613 69.8643 36.3613 66.0636C36.3613 64.839 36.6811 63.6891 37.2419 62.6929C34.499 59.2917 29.3282 48.6591 29.7548 31.3804L29.7547 31.3803C30.4887 20.9202 37.4071 0 59.2081 0C66.3651 0.36702 81.2294 6.88163 83.4315 30.0039L77.3757 28.0771C76.5499 20.5531 71.7603 5.50531 59.2082 5.50531L59.2081 5.50506Z" fill="#764ABC"/>
<path fill-rule="evenodd" clip-rule="evenodd" d="M102.26 81.5466L102.26 81.5467C113.161 62.6664 98.5027 46.2149 89.811 40.3492L89.8108 40.3491C75.2628 31.4639 63.5411 30.7576 59.0773 31.4016C58.4924 30.3229 57.6116 29.3872 56.471 28.7286C53.1795 26.8283 48.9708 27.9561 47.0705 31.2475C45.1702 34.5389 46.2979 38.7477 49.5893 40.648C52.8808 42.5483 57.0895 41.4206 58.9898 38.1291C59.2204 37.7297 59.4064 37.3168 59.5494 36.8961C67.5916 35.5268 78.4358 40.1387 87.0582 45.1168L87.0585 45.1164L87.0584 45.1169C105.138 57.8438 101.548 72.8711 97.4928 78.7939L97.4926 78.7939C91.2166 89.6643 75.79 86.2883 68.8612 83.2415L64.1645 87.5226C85.29 97.1766 98.364 87.5612 102.26 81.5466Z" fill="#764ABC"/>
<path fill-rule="evenodd" clip-rule="evenodd" d="M25.9841 41.0151L27.3434 47.2231C21.2404 51.7002 10.6034 63.372 16.8793 74.2424L16.8794 74.2423C19.9507 80.6521 30.9806 91.1307 50.674 82.3123C59.2314 77.2281 69.4154 69.5893 71.9591 62.122C71.7357 61.8455 71.5309 61.5481 71.3475 61.2305C69.4472 57.9391 70.5749 53.7303 73.8664 51.83C77.1578 49.9297 81.3665 51.0574 83.2668 54.3489C85.1672 57.6403 84.0394 61.849 80.748 63.7494C79.7034 64.3525 78.5663 64.6506 77.44 64.6713C76.0155 68.609 69.4533 78.3997 54.0146 86.8122L54.0144 86.812L54.0145 86.8122C44.5888 91.4066 23.0123 95.8752 12.1118 76.9951L12.1117 76.9951C8.85106 70.6136 7.06071 54.4834 25.9841 41.0151Z" fill="#764ABC"/>
</svg>
