<svg width="117" height="103" viewBox="0 0 117 103" fill="none" xmlns="http://www.w3.org/2000/svg">
<mask id="path-1-inside-1_98_3" fill="white">
<path fill-rule="evenodd" clip-rule="evenodd" d="M59.2081 5.50506V5.50531C52.0512 4.95478 37.2419 9.35902 35.26 31.3803L35.2595 31.3804H35.2601C35.2601 41.4285 36.9485 53.0185 42.2804 59.2488C42.5949 59.2048 42.9163 59.182 43.2429 59.182C47.0435 59.182 50.1245 62.263 50.1245 66.0636C50.1245 69.8643 47.0435 72.9453 43.2429 72.9453C39.4423 72.9453 36.3613 69.8643 36.3613 66.0636C36.3613 64.839 36.6811 63.6891 37.2419 62.6929C34.499 59.2917 29.3282 48.6591 29.7548 31.3804L29.7547 31.3803C30.4887 20.9202 37.4071 0 59.2081 0C66.3651 0.36702 81.2294 6.88163 83.4315 30.0039L77.3757 28.0771C76.5499 20.5531 71.7603 5.50531 59.2082 5.50531L59.2081 5.50506Z"/>
</mask>
<path d="M59.2081 5.50531L59.1314 6.50236L60.2081 6.58518V5.50531H59.2081ZM59.2081 5.50506L60.1358 5.13181L58.2081 5.50506H59.2081ZM35.26 31.3803L35.4791 32.356L36.1906 32.1962L36.256 31.4699L35.26 31.3803ZM35.2595 31.3804L35.0404 30.4047L35.2595 32.3804V31.3804ZM35.2601 31.3804H36.2601V30.3804H35.2601V31.3804ZM42.2804 59.2488L41.5207 59.899L41.8767 60.315L42.419 60.2391L42.2804 59.2488ZM37.2419 62.6929L38.1133 63.1834L38.4458 62.5927L38.0203 62.0651L37.2419 62.6929ZM29.7548 31.3804L30.7545 31.405L30.7661 30.9383L30.4157 30.6298L29.7548 31.3804ZM29.7547 31.3803L28.7572 31.3102L28.7225 31.8038L29.0939 32.1308L29.7547 31.3803ZM59.2081 0L59.2593 -0.998688L59.2337 -1H59.2081V0ZM83.4315 30.0039L83.1283 30.9568L84.5705 31.4157L84.427 29.9091L83.4315 30.0039ZM77.3757 28.0771L76.3817 28.1862L76.4526 28.8328L77.0725 29.03L77.3757 28.0771ZM59.2082 5.50531L58.2805 5.87855L58.5326 6.50531H59.2082V5.50531ZM60.2081 5.50531V5.50506H58.2081V5.50531H60.2081ZM36.256 31.4699C37.226 20.6919 41.3139 14.3564 45.9091 10.7664C50.5351 7.15232 55.7724 6.24397 59.1314 6.50236L59.2848 4.50825C55.4869 4.21611 49.7411 5.23462 44.6778 9.19034C39.5836 13.1702 35.2759 20.0473 34.264 31.2906L36.256 31.4699ZM35.4786 32.3561L35.4791 32.356L35.041 30.4045L35.0404 30.4047L35.4786 32.3561ZM35.2601 30.3804H35.2595V32.3804H35.2601V30.3804ZM43.0402 58.5986C40.5267 55.6617 38.8195 51.389 37.7473 46.5308C36.6786 41.6885 36.2601 36.3548 36.2601 31.3804H34.2601C34.2601 36.4541 34.6859 41.9395 35.7943 46.9618C36.8992 51.9681 38.7022 56.6056 41.5207 59.899L43.0402 58.5986ZM42.419 60.2391C42.6877 60.2015 42.9628 60.182 43.2429 60.182V58.182C42.8697 58.182 42.5021 58.208 42.1418 58.2584L42.419 60.2391ZM43.2429 60.182C46.4912 60.182 49.1245 62.8153 49.1245 66.0636H51.1245C51.1245 61.7107 47.5958 58.182 43.2429 58.182V60.182ZM49.1245 66.0636C49.1245 69.312 46.4912 71.9453 43.2429 71.9453V73.9453C47.5958 73.9453 51.1245 70.4166 51.1245 66.0636H49.1245ZM43.2429 71.9453C39.9946 71.9453 37.3613 69.312 37.3613 66.0636H35.3613C35.3613 70.4166 38.89 73.9453 43.2429 73.9453V71.9453ZM37.3613 66.0636C37.3613 65.0153 37.6347 64.0338 38.1133 63.1834L36.3705 62.2023C35.7276 63.3444 35.3613 64.6627 35.3613 66.0636H37.3613ZM28.7551 31.3557C28.3239 48.8209 33.543 59.6993 36.4635 63.3206L38.0203 62.0651C35.455 58.8841 30.3325 48.4973 30.7545 31.405L28.7551 31.3557ZM29.0939 32.1308L29.094 32.1309L30.4157 30.6298L30.4155 30.6297L29.0939 32.1308ZM59.2081 -1C47.9269 -1 40.4611 4.43721 35.7603 11.1966C31.088 17.9151 29.1337 25.9451 28.7572 31.3102L30.7522 31.4503C31.1098 26.3553 32.9816 18.6952 37.4023 12.3385C41.7944 6.02287 48.6882 1 59.2081 1V-1ZM84.427 29.9091C82.1759 6.27195 66.8902 -0.607364 59.2593 -0.998688L59.1569 0.998688C65.84 1.34141 80.283 7.49132 82.436 30.0987L84.427 29.9091ZM77.0725 29.03L83.1283 30.9568L83.7347 29.051L77.6789 27.1241L77.0725 29.03ZM59.2082 6.50531C65.0093 6.50531 69.0703 9.95904 71.8357 14.4906C74.6093 19.0357 75.9801 24.5274 76.3817 28.1862L78.3697 27.968C77.9455 24.1028 76.5086 18.3087 73.5429 13.4488C70.569 8.5755 65.9592 4.50531 59.2082 4.50531V6.50531ZM58.2804 5.87831L58.2805 5.87855L60.1359 5.13206L60.1358 5.13181L58.2804 5.87831Z" fill="black" mask="url(#path-1-inside-1_98_3)"/>
<mask id="path-3-inside-2_98_3" fill="white">
<path fill-rule="evenodd" clip-rule="evenodd" d="M102.26 81.5466L102.26 81.5467C113.161 62.6664 98.5027 46.2149 89.811 40.3492L89.8108 40.3491C75.2628 31.4639 63.5411 30.7576 59.0773 31.4016C58.4924 30.3229 57.6116 29.3872 56.471 28.7286C53.1795 26.8283 48.9708 27.9561 47.0705 31.2475C45.1702 34.5389 46.2979 38.7477 49.5893 40.648C52.8808 42.5483 57.0895 41.4206 58.9898 38.1291C59.2204 37.7297 59.4064 37.3168 59.5494 36.8961C67.5916 35.5268 78.4358 40.1387 87.0582 45.1168L87.0585 45.1164L87.0584 45.1169C105.138 57.8438 101.548 72.8711 97.4928 78.7939L97.4926 78.7939C91.2166 89.6643 75.79 86.2883 68.8612 83.2415L64.1645 87.5226C85.29 97.1766 98.364 87.5612 102.26 81.5466Z"/>
</mask>
<path d="M102.26 81.5467L101.76 82.4127L102.626 82.9127L103.126 82.0467L102.26 81.5467ZM102.26 81.5466L102.76 80.6806L101.938 80.2056L101.421 81.0029L102.26 81.5466ZM89.811 40.3492L90.3704 39.5203L90.2092 39.4114L90.0188 39.371L89.811 40.3492ZM89.8108 40.3491L89.2896 41.2025L89.4357 41.2917L89.603 41.3273L89.8108 40.3491ZM59.0773 31.4016L58.1982 31.8783L58.5304 32.4909L59.2201 32.3914L59.0773 31.4016ZM59.5494 36.8961L59.3816 35.9103L58.7943 36.0103L58.6026 36.5743L59.5494 36.8961ZM87.0582 45.1168L86.5582 45.9829L87.4242 46.4829L87.9242 45.6168L87.0582 45.1168ZM87.0585 45.1164L88.0445 45.2828L86.1924 44.6164L87.0585 45.1164ZM87.0584 45.1169L86.0723 44.9504L85.9674 45.5719L86.4828 45.9346L87.0584 45.1169ZM97.4928 78.7939L96.9928 79.66L97.7947 80.123L98.3179 79.3589L97.4928 78.7939ZM97.4926 78.7939L97.9926 77.9278L97.1266 77.4278L96.6266 78.2939L97.4926 78.7939ZM68.8612 83.2415L69.2637 82.3261L68.6683 82.0643L68.1875 82.5025L68.8612 83.2415ZM64.1645 87.5226L63.4909 86.7836L62.3724 87.8031L63.7489 88.4321L64.1645 87.5226ZM102.76 80.6806L102.76 80.6806L101.76 82.4126L101.76 82.4127L102.76 80.6806ZM89.2516 41.1781C93.4852 44.0351 99.1832 49.4863 102.478 56.493C105.751 63.4546 106.654 71.9362 101.394 81.0467L103.126 82.0467C108.767 72.2769 107.791 63.0927 104.288 55.642C100.806 48.2364 94.8286 42.5289 90.3704 39.5203L89.2516 41.1781ZM89.603 41.3273L89.6032 41.3273L90.0188 39.371L90.0186 39.3709L89.603 41.3273ZM59.2201 32.3914C63.4247 31.7848 74.9141 32.4227 89.2896 41.2025L90.3321 39.4957C75.6116 30.5052 63.6575 29.7305 58.9345 30.4119L59.2201 32.3914ZM55.971 29.5947C56.9472 30.1583 57.6988 30.9572 58.1982 31.8783L59.9564 30.9249C59.2859 29.6886 58.276 28.6161 56.971 27.8626L55.971 29.5947ZM47.9365 31.7475C49.5607 28.9344 53.1578 27.9705 55.971 29.5947L56.971 27.8626C53.2013 25.6862 48.3809 26.9778 46.2045 30.7475L47.9365 31.7475ZM50.0893 39.782C47.2762 38.1578 46.3124 34.5606 47.9365 31.7475L46.2045 30.7475C44.028 34.5172 45.3196 39.3376 49.0893 41.514L50.0893 39.782ZM58.1238 37.6291C56.4996 40.4423 52.9025 41.4061 50.0893 39.782L49.0893 41.514C52.8591 43.6905 57.6794 42.3989 59.8559 38.6291L58.1238 37.6291ZM58.6026 36.5743C58.4806 36.9334 58.3215 37.2867 58.1238 37.6291L59.8559 38.6291C60.1193 38.1728 60.3323 37.7001 60.4962 37.2179L58.6026 36.5743ZM87.5582 44.2508C83.2112 41.7411 78.2816 39.31 73.4035 37.6779C68.5426 36.0514 63.6377 35.1856 59.3816 35.9103L59.7173 37.8819C63.5033 37.2373 68.0416 37.9928 72.7689 39.5745C77.4792 41.1505 82.2828 43.5145 86.5582 45.9829L87.5582 44.2508ZM86.1924 44.6164L86.1922 44.6168L87.9242 45.6168L87.9245 45.6164L86.1924 44.6164ZM88.0444 45.2833L88.0445 45.2828L86.0724 44.9499L86.0723 44.9504L88.0444 45.2833ZM98.3179 79.3589C100.47 76.2159 102.461 70.7306 101.567 64.3678C100.667 57.9662 96.865 50.7971 87.634 44.2992L86.4828 45.9346C95.3317 52.1636 98.7745 58.8716 99.586 64.6461C100.403 70.4594 98.5709 75.4491 96.6676 78.229L98.3179 79.3589ZM96.9926 79.6599L96.9928 79.66L97.9928 77.9279L97.9926 77.9278L96.9926 79.6599ZM68.4586 84.1569C72.0181 85.7221 77.7544 87.3748 83.446 87.2364C89.1534 87.0975 94.9832 85.1404 98.3587 79.2939L96.6266 78.2939C93.7261 83.3177 88.7045 85.1079 83.3974 85.237C78.0745 85.3664 72.6331 83.8077 69.2637 82.3261L68.4586 84.1569ZM64.8382 88.2616L69.5348 83.9806L68.1875 82.5025L63.4909 86.7836L64.8382 88.2616ZM101.421 81.0029C97.7827 86.6192 85.2352 96.0521 64.5802 86.6131L63.7489 88.4321C85.3448 98.3011 98.9452 88.5031 103.1 82.0903L101.421 81.0029Z" fill="black" mask="url(#path-3-inside-2_98_3)"/>
<mask id="path-5-inside-3_98_3" fill="white">
<path fill-rule="evenodd" clip-rule="evenodd" d="M25.9841 41.0151L27.3434 47.2231C21.2404 51.7002 10.6034 63.372 16.8793 74.2424L16.8794 74.2423C19.9507 80.6521 30.9806 91.1307 50.674 82.3123C59.2314 77.2281 69.4154 69.5893 71.9591 62.122C71.7357 61.8455 71.5309 61.5481 71.3475 61.2305C69.4472 57.9391 70.5749 53.7303 73.8664 51.83C77.1578 49.9297 81.3665 51.0574 83.2668 54.3489C85.1672 57.6403 84.0394 61.849 80.748 63.7494C79.7034 64.3525 78.5663 64.6506 77.44 64.6713C76.0155 68.609 69.4533 78.3997 54.0146 86.8122L54.0144 86.812L54.0145 86.8122C44.5888 91.4066 23.0123 95.8752 12.1118 76.9951L12.1117 76.9951C8.85106 70.6136 7.06071 54.4834 25.9841 41.0151Z"/>
</mask>
<path d="M27.3434 47.2231L27.9348 48.0294L28.4593 47.6446L28.3202 47.0092L27.3434 47.2231ZM25.9841 41.0151L26.961 40.8012L26.6373 39.3228L25.4043 40.2004L25.9841 41.0151ZM16.8793 74.2424L16.0133 74.7424L16.5133 75.6084L17.3793 75.1084L16.8793 74.2424ZM16.8794 74.2423L17.7813 73.8102L17.3146 72.8364L16.3794 73.3763L16.8794 74.2423ZM50.674 82.3123L51.0827 83.2249L51.1353 83.2014L51.1848 83.172L50.674 82.3123ZM71.9591 62.122L72.9057 62.4445L73.0835 61.9224L72.7369 61.4935L71.9591 62.122ZM77.44 64.6713L77.4216 63.6715L76.7337 63.6841L76.4997 64.3311L77.44 64.6713ZM54.0146 86.8122L53.3694 87.5762L53.8922 88.0177L54.493 87.6903L54.0146 86.8122ZM54.0144 86.812L54.6595 86.0479L53.1483 87.312L54.0144 86.812ZM54.0145 86.8122L54.4526 87.7111L55.4168 87.2412L54.8805 86.3122L54.0145 86.8122ZM12.1118 76.9951L12.9778 76.4951L12.4778 75.629L11.6118 76.129L12.1118 76.9951ZM12.1117 76.9951L11.2212 77.4501L11.7001 78.3874L12.6117 77.8611L12.1117 76.9951ZM28.3202 47.0092L26.961 40.8012L25.0073 41.229L26.3665 47.4369L28.3202 47.0092ZM17.7454 73.7424C14.8449 68.7185 15.8054 63.4747 18.3472 58.814C20.8965 54.1395 24.9671 50.2065 27.9348 48.0294L26.7519 46.4168C23.6166 48.7167 19.3172 52.8581 16.5913 57.8564C13.8579 62.8686 12.6379 68.8958 16.0133 74.7424L17.7454 73.7424ZM16.3794 73.3763L16.3793 73.3764L17.3793 75.1084L17.3794 75.1084L16.3794 73.3763ZM50.2654 81.3996C40.6333 85.7127 33.2403 85.2631 27.9258 83.0639C22.5755 80.8499 19.2226 76.8183 17.7813 73.8102L15.9776 74.6744C17.6076 78.0762 21.3052 82.4887 27.1611 84.9119C33.0527 87.3499 41.0214 87.7303 51.0827 83.2249L50.2654 81.3996ZM71.0125 61.7996C69.826 65.2827 66.8039 68.9175 62.9092 72.3617C59.0377 75.7854 54.4087 78.9302 50.1633 81.4526L51.1848 83.172C55.4967 80.6102 60.2384 77.3935 64.2341 73.8599C68.2068 70.3468 71.5486 66.4285 72.9057 62.4445L71.0125 61.7996ZM72.7369 61.4935C72.5461 61.2573 72.3708 61.0028 72.2135 60.7305L70.4815 61.7305C70.6909 62.0933 70.9253 62.4337 71.1813 62.7505L72.7369 61.4935ZM72.2135 60.7305C70.5894 57.9174 71.5532 54.3202 74.3664 52.696L73.3664 50.964C69.5966 53.1404 68.305 57.9608 70.4815 61.7305L72.2135 60.7305ZM74.3664 52.696C77.1795 51.0719 80.7767 52.0357 82.4008 54.8489L84.1329 53.8489C81.9564 50.0791 77.1361 48.7875 73.3664 50.964L74.3664 52.696ZM82.4008 54.8489C84.025 57.662 83.0611 61.2592 80.248 62.8833L81.248 64.6154C85.0177 62.4389 86.3093 57.6186 84.1329 53.8489L82.4008 54.8489ZM80.248 62.8833C79.3537 63.3997 78.383 63.6538 77.4216 63.6715L77.4584 65.6711C78.7497 65.6474 80.053 65.3053 81.248 64.6154L80.248 62.8833ZM54.493 87.6903C70.0873 79.1931 76.8525 69.2351 78.3804 65.0115L76.4997 64.3311C75.1786 67.983 68.8194 77.6063 53.5361 85.9341L54.493 87.6903ZM53.3692 87.576L53.3694 87.5762L54.6597 86.0481L54.6595 86.0479L53.3692 87.576ZM54.8805 86.3122L54.8804 86.312L53.1483 87.312L53.1485 87.3122L54.8805 86.3122ZM11.2457 77.4951C16.8863 87.2648 25.328 91.0118 33.5322 91.703C41.6867 92.3901 49.618 90.0677 54.4526 87.7111L53.5763 85.9133C48.9853 88.1511 41.4155 90.3602 33.7001 89.7101C26.0345 89.0642 18.2377 85.6055 12.9778 76.4951L11.2457 77.4951ZM12.6117 77.8611L12.6118 77.8611L11.6118 76.129L11.6117 76.1291L12.6117 77.8611ZM25.4043 40.2004C6.05948 53.9685 7.74465 70.646 11.2212 77.4501L13.0022 76.5401C9.95746 70.5811 8.06194 54.9982 26.564 41.8298L25.4043 40.2004Z" fill="black" mask="url(#path-5-inside-3_98_3)"/>
</svg>
