<svg width="117" height="88" viewBox="0 0 117 88" fill="none" xmlns="http://www.w3.org/2000/svg">
<path d="M67.2062 14.7463H66.7062V14.7641L66.7075 14.7819L67.2062 14.7463ZM52.7742 7.87391V8.37391V7.87391ZM50.7125 34.218L50.5342 33.7508L50.4114 33.7977L50.3275 33.899L50.7125 34.218ZM50.7124 34.2181L50.9128 34.6762L51.0216 34.6286L51.0974 34.5371L50.7124 34.2181ZM28.9499 33.3018L29.309 32.9539L29.2904 32.9348L29.27 32.9177L28.9499 33.3018ZM27.5754 33.3018L27.083 33.3887L27.083 33.3887L27.5754 33.3018ZM52.7741 38.7997L52.9182 39.2785L53.0709 39.2325L53.1688 39.1067L52.7741 38.7997ZM52.7742 38.7996L52.6145 38.3258L52.4719 38.3738L52.3795 38.4926L52.7742 38.7996ZM73.3913 14.7463L73.8913 14.753V14.7463H73.3913ZM52.7742 1.00154H52.2742V1.50713L52.7798 1.50151L52.7742 1.00154ZM52.7742 1.00151H53.2742V0.463472L52.7376 0.502855L52.7742 1.00151ZM10.1655 19.786L9.81896 19.4254L9.81194 19.4324L10.1655 19.786ZM1.00233 35.8215V36.3215H1.50233V35.8215H1.00233ZM1.00231 35.8215V35.3215H0.51723L0.502538 35.8064L1.00231 35.8215ZM10.6236 50.4826L10.3312 50.8882L10.333 50.8895L10.6236 50.4826ZM23.4521 59.8748L23.6757 60.3221L23.952 60.1839L23.9521 59.8749L23.4521 59.8748ZM4.66757 78.4303L5.16688 78.4565L5.16757 78.4434V78.4303H4.66757ZM13.1435 87.1353L13.1828 86.6368L13.1632 86.6353H13.1435V87.1353ZM28.4918 78.4303L28.0865 78.1375L28.0836 78.1415L28.4918 78.4303ZM29.8663 60.333L30.32 60.1228L30.0817 59.6087L29.6013 59.909L29.8663 60.333ZM26.201 62.6238L25.936 62.1998L25.5855 62.4189L25.7347 62.8043L26.201 62.6238ZM23.4521 75.9104L23.8221 76.2467L23.8258 76.2426L23.4521 75.9104ZM14.7471 80.9501L14.6956 81.4475L14.7213 81.4501H14.7471V80.9501ZM14.7251 70.9017L14.382 70.538L14.3455 70.5725L14.3166 70.6135L14.7251 70.9017ZM36.2805 56.8968L36.4983 57.3469L36.6516 57.2727L36.7277 57.1204L36.2805 56.8968ZM36.5096 56.6678L36.0582 56.4528L36.0397 56.4915L36.0282 56.5327L36.5096 56.6678ZM41.0912 76.5976L41.0347 77.0944L41.0629 77.0976H41.0912V76.5976ZM48.1926 66.2891L48.6694 66.4397L48.6699 66.4382L48.1926 66.2891ZM51.4204 55.96L51.9006 56.0994L50.9432 55.8109L51.4204 55.96ZM48.4217 66.2891L47.9415 66.1497L47.9274 66.1982L47.9233 66.2487L48.4217 66.2891ZM56.2104 70.8706L56.6362 71.1327L56.6472 71.1149L56.6566 71.0962L56.2104 70.8706ZM66.5311 50.4536L67.0298 50.4181L66.9014 48.6128L66.0849 50.228L66.5311 50.4536ZM70.0025 59.812L70.4019 60.1127L70.6061 59.8414L70.4293 59.5516L70.0025 59.812ZM69.9551 59.8748L69.5557 59.5741L69.5471 59.5856L69.5391 59.5975L69.9551 59.8748ZM62.3955 69.4962L62.7734 69.8236L62.7761 69.8204L62.3955 69.4962ZM63.77 73.1614L63.7437 73.6608L63.7568 73.6614H63.77V73.1614ZM75.6821 67.2054L76.108 67.4675L76.1131 67.4589L75.6821 67.2054ZM74.9949 58.5004L74.5806 58.2204L74.3995 58.4885L74.5697 58.7636L74.9949 58.5004ZM81.8673 46.8173L82.3673 46.8173L81.3964 46.6492L81.8673 46.8173ZM85.0744 55.7514L85.3982 56.1324L85.76 55.8249L85.4715 55.4477L85.0744 55.7514ZM79.1183 68.8089L79.5595 68.5736L79.5528 68.5611L79.5454 68.549L79.1183 68.8089ZM87.8233 66.7472L88.1357 67.1377L88.1458 67.1296L88.1555 67.1209L87.8233 66.7472ZM91.7177 58.7295H91.2177V58.7426L91.2184 58.7557L91.7177 58.7295ZM90.8013 56.2096L90.3305 56.3777L90.3586 56.4566L90.4109 56.5219L90.8013 56.2096ZM90.7569 56.0851L90.488 55.6635L90.1519 55.8778L90.286 56.2532L90.7569 56.0851ZM102.943 54.377L103.013 53.882L102.997 53.8797L102.981 53.8785L102.943 54.377ZM113.251 61.7075L112.782 61.8812L112.785 61.8896L112.789 61.8979L113.251 61.7075ZM110.96 68.5799L110.657 68.1827L110.646 68.1912L110.635 68.2003L110.96 68.5799ZM111.648 69.7253L111.838 70.1876L111.85 70.1827L111.862 70.1772L111.648 69.7253ZM106.608 51.399L106.726 50.9132L106.721 50.912L106.608 51.399ZM89.6242 52.9007L89.1643 53.0967L89.3726 53.5854L89.8478 53.3479L89.6242 52.9007ZM88.0524 50.2535L88.4743 49.985L88.4684 49.9762L88.0524 50.2535ZM87.8233 40.6322L87.3702 40.4208L87.3688 40.4239L87.8233 40.6322ZM86.6779 36.9669L86.7194 36.4687L86.6987 36.4669H86.6779V36.9669ZM81.18 39.0286L81.6703 39.1267L81.6746 39.1054L81.677 39.0839L81.18 39.0286ZM78.6602 45.2138L78.2441 44.9364L78.2266 44.9628L78.2124 44.9912L78.6602 45.2138ZM73.3617 54.7777L72.9169 55.0061L73.3237 55.7985L73.7883 55.0385L73.3617 54.7777ZM72.475 43.3812L72.9261 43.5969L72.9316 43.5853L72.9365 43.5735L72.475 43.3812ZM71.3296 40.4031L71.3794 39.9056L71.3546 39.9031H71.3296V40.4031ZM65.6026 42.2358L65.1176 42.1145L65.1127 42.1339L65.1094 42.1536L65.6026 42.2358ZM63.0828 49.1081L62.6356 48.8845L62.6316 48.8924L62.628 48.9004L63.0828 49.1081ZM54.6068 67.6635L55.0458 67.903L55.0543 67.8874L55.0616 67.8713L54.6068 67.6635ZM53.6905 65.3728L53.2055 65.2515L53.1963 65.2879L53.1928 65.3253L53.6905 65.3728ZM56.6686 53.4606L57.1536 53.5819L57.1585 53.5625L57.1617 53.5428L56.6686 53.4606ZM55.7522 51.628L55.9379 51.1638L55.9003 51.1487L55.8607 51.1399L55.7522 51.628ZM52.657 52.0031L52.1797 51.854L51.7478 53.2363L52.9406 52.4149L52.657 52.0031ZM52.7742 51.628L52.298 51.4756L52.297 51.4789L52.7742 51.628ZM49.1089 44.7557L49.2109 44.2662L49.1911 44.262L49.171 44.2595L49.1089 44.7557ZM27.5225 57.7485L27.1351 58.0646L27.3928 58.3804L27.754 58.1917L27.5225 57.7485ZM27.1707 57.308L27.5632 56.9982L27.5612 56.9956L27.1707 57.308ZM27.1706 57.3078L26.7774 57.6167L26.7801 57.6201L27.1706 57.3078ZM27.1702 57.3073L26.7633 57.5979L26.77 57.6072L26.777 57.6162L27.1702 57.3073ZM27.1701 57.3072L27.577 57.0166L27.5701 57.0069L27.5627 56.9975L27.1701 57.3072ZM22.0776 52.7734L22.3748 52.3713L22.3682 52.3665L22.0776 52.7734ZM9.70733 35.8215L9.21333 35.7444L9.20733 35.7827V35.8215H9.70733ZM15.8925 24.5967L16.1982 24.9923L16.2144 24.9798L16.2295 24.966L15.8925 24.5967ZM67.6644 69.2671L67.9347 69.6877L67.9468 69.6799L67.9585 69.6714L67.6644 69.2671ZM66.9771 68.3507L67.3589 68.6737L67.3631 68.6686L66.9771 68.3507ZM71.1006 65.1436L71.5648 65.3293L71.5672 65.3231L71.1006 65.1436ZM70.1843 64.4564L69.8126 64.1219L69.8053 64.1301L69.7983 64.1385L70.1843 64.4564ZM50.0253 50.9407L50.5156 51.0387L50.522 51.0066L50.5242 50.9739L50.0253 50.9407ZM47.2764 49.7953L47.568 50.2014L47.5747 50.1966L47.5812 50.1916L47.2764 49.7953ZM43.1529 69.4961L43.5433 69.8085L43.5719 69.7728L43.5935 69.7325L43.1529 69.4961ZM41.5494 69.4961L41.0633 69.6134L41.0813 69.6878L41.1206 69.7534L41.5494 69.4961ZM82.5545 63.9982L83.0448 64.0963L83.0475 64.0827L83.0495 64.0689L82.5545 63.9982ZM85.5325 58.9585L85.1962 58.5885L85.1669 58.6152L85.1421 58.6461L85.5325 58.9585ZM84.3871 65.1436L84.0549 64.7699L84.0508 64.7736L84.3871 65.1436ZM86.6779 61.9365L86.1941 61.8103L86.1885 61.8321L86.1848 61.8543L86.6779 61.9365ZM67.7062 14.7463C67.7062 12.0101 64.3887 7.37391 52.7742 7.37391V8.37391C64.2509 8.37391 66.7062 12.9009 66.7062 14.7463H67.7062ZM50.8907 34.6851C53.8404 33.5596 58.2075 31.2258 61.7545 27.8631C65.3 24.5019 68.0864 20.0512 67.7049 14.7107L66.7075 14.7819C67.059 19.7041 64.5003 23.882 61.0665 27.1374C57.6342 30.3913 53.3879 32.6619 50.5342 33.7508L50.8907 34.6851ZM51.0974 34.5371L51.0975 34.537L50.3275 33.899L50.3274 33.8991L51.0974 34.5371ZM28.5907 33.6497C31.5795 36.7349 35.9778 37.5003 40.1576 37.2601C44.3482 37.0193 48.4269 35.7638 50.9128 34.6762L50.512 33.76C48.1108 34.8105 44.1488 36.0291 40.1002 36.2617C36.0409 36.495 32.0014 35.7332 29.309 32.9539L28.5907 33.6497ZM28.0678 33.215C28.0274 32.9858 28.1036 33.0681 27.989 33.1748C27.8722 33.2835 27.772 33.219 27.8932 33.2513C27.9825 33.2751 28.111 33.334 28.2579 33.4226C28.3999 33.5081 28.5339 33.606 28.6298 33.6859L29.27 32.9177C29.024 32.7127 28.5667 32.3959 28.1507 32.2851C27.9626 32.2349 27.5932 32.1769 27.3075 32.4429C27.024 32.7069 27.0316 33.0972 27.083 33.3887L28.0678 33.215ZM52.6299 38.3209C44.1827 40.8642 38.1712 40.4481 34.2165 38.9671C30.2413 37.4785 28.3713 34.9347 28.0678 33.2149L27.083 33.3887C27.4667 35.5632 29.6744 38.3341 33.8658 39.9036C38.0778 41.4809 44.3221 41.8666 52.9182 39.2785L52.6299 38.3209ZM52.3795 38.4926L52.3794 38.4927L53.1688 39.1067L53.1689 39.1065L52.3795 38.4926ZM72.8914 14.7396C72.8174 20.2851 68.6963 32.9049 52.6145 38.3258L52.9339 39.2734C69.473 33.6984 73.8125 20.6613 73.8913 14.753L72.8914 14.7396ZM52.7798 1.50151C56.1665 1.46388 61.2391 2.09883 65.4447 4.10444C69.6359 6.10318 72.8913 9.4165 72.8913 14.7463H73.8913C73.8913 8.89702 70.2744 5.29978 65.8751 3.20182C61.4903 1.11073 56.2543 0.462842 52.7687 0.501572L52.7798 1.50151ZM52.2742 1.00151V1.00154H53.2742V1.00151H52.2742ZM10.512 20.1465C24.51 6.69387 44.5557 2.10605 52.8108 1.50017L52.7376 0.502855C44.3463 1.11873 24.0436 5.75517 9.81903 19.4255L10.512 20.1465ZM1.50233 35.8215C1.50233 33.2265 2.95781 30.0858 4.85786 27.1598C6.74492 24.2537 9.01249 21.6461 10.519 20.1396L9.81194 19.4324C8.2641 20.9803 5.95009 23.6415 4.01917 26.6152C2.10123 29.5688 0.502325 32.9187 0.502325 35.8215H1.50233ZM1.00231 36.3215H1.00233V35.3215H1.00231V36.3215ZM10.916 50.077C3.14604 44.4754 1.4316 38.1626 1.50208 35.8367L0.502538 35.8064C0.420302 38.5202 2.34058 45.1275 10.3312 50.8882L10.916 50.077ZM23.9521 59.8749C23.9521 59.7638 23.9153 59.6823 23.901 59.6527C23.8829 59.615 23.8636 59.5865 23.8519 59.5702C23.8283 59.5373 23.8041 59.511 23.7893 59.4955C23.7576 59.4622 23.7202 59.428 23.6848 59.3969C23.6114 59.3325 23.5095 59.2493 23.3866 59.152C23.139 58.9559 22.7839 58.6852 22.3487 58.3593C21.4772 57.7067 20.2722 56.823 18.9355 55.851C16.2613 53.9065 13.053 51.6034 10.9143 50.0757L10.333 50.8895C12.4705 52.4162 15.6763 54.7176 18.3474 56.6598C19.6832 57.6311 20.8835 58.5114 21.7492 59.1597C22.1826 59.4843 22.5291 59.7484 22.7658 59.9359C22.8851 60.0304 22.9712 60.1011 23.0252 60.1485C23.0382 60.16 23.0482 60.169 23.0556 60.1759C23.0633 60.1831 23.066 60.186 23.0655 60.1854C23.0651 60.185 23.0627 60.1825 23.0589 60.1782C23.0555 60.1742 23.0485 60.1657 23.0398 60.1536C23.0322 60.1431 23.016 60.1196 23 60.0863C22.9878 60.061 22.952 59.983 22.9521 59.8748L23.9521 59.8749ZM5.16757 78.4303C5.16757 76.7383 5.89217 74.9573 7.13332 73.1631C8.37183 71.3728 10.0982 69.6077 12.0358 67.9584C15.9111 64.6597 20.571 61.8744 23.6757 60.3221L23.2285 59.4276C20.0716 61.0061 15.3392 63.8332 11.3877 67.1969C9.41183 68.8788 7.61615 70.7074 6.31092 72.5942C5.00834 74.4772 4.16757 76.457 4.16757 78.4303H5.16757ZM13.1435 86.6353C9.72854 86.6353 7.72829 85.2607 6.58029 83.588C5.41227 81.8861 5.0948 79.826 5.16688 78.4565L4.16826 78.404C4.08762 79.9362 4.43448 82.2286 5.75579 84.1538C7.09711 86.1082 9.41118 87.6353 13.1435 87.6353V86.6353ZM28.0836 78.1415C22.8773 85.5021 15.9204 86.8529 13.1828 86.6368L13.1041 87.6337C16.1699 87.8757 23.477 86.386 28.9 78.719L28.0836 78.1415ZM29.4126 60.5432C31.1024 64.1896 31.2543 67.9211 30.7359 71.0877C30.2161 74.2626 29.0282 76.8336 28.0865 78.1375L28.8972 78.723C29.9408 77.2779 31.1812 74.5572 31.7227 71.2492C32.2657 67.9328 32.1122 63.9902 30.32 60.1228L29.4126 60.5432ZM26.466 63.0478L30.1313 60.757L29.6013 59.909L25.936 62.1998L26.466 63.0478ZM23.8258 76.2426C28.3847 71.1137 27.629 64.9278 26.6673 62.4433L25.7347 62.8043C26.6056 65.0541 27.316 70.8109 23.0784 75.5782L23.8258 76.2426ZM14.7471 81.4501C16.547 81.4501 18.4438 80.5425 20.0415 79.4761C21.6528 78.4006 23.0348 77.1127 23.822 76.2467L23.0821 75.5741C22.3422 76.388 21.021 77.62 19.4863 78.6444C17.938 79.6778 16.2458 80.4501 14.7471 80.4501V81.4501ZM14.3166 70.6135C11.6548 74.386 10.9949 77.0012 11.4404 78.7707C11.8992 80.5927 13.4646 81.3201 14.6956 81.4475L14.7985 80.4528C13.8181 80.3514 12.7306 79.7991 12.4102 78.5265C12.0765 77.2012 12.5114 74.9066 15.1337 71.19L14.3166 70.6135ZM36.0627 56.4467C24.9513 61.8232 17.1449 67.9315 14.382 70.538L15.0682 71.2654C17.7541 68.7315 25.4752 62.6806 36.4983 57.3469L36.0627 56.4467ZM38.3532 51.6335L35.8333 56.6732L36.7277 57.1204L39.2476 52.0807L38.3532 51.6335ZM36.961 56.8827L39.2518 52.072L38.3489 51.6421L36.0582 56.4528L36.961 56.8827ZM41.1476 76.1008C39.2839 75.889 38.0092 75.0049 37.143 73.7009C36.263 72.3761 35.7908 70.5941 35.616 68.5936C35.2665 64.5931 36.1207 59.9055 36.991 56.8028L36.0282 56.5327C35.1422 59.6915 34.2554 64.5107 34.6198 68.6807C34.802 70.7654 35.3006 72.7345 36.31 74.2542C37.3332 75.7945 38.8666 76.848 41.0347 77.0944L41.1476 76.1008ZM47.7158 66.1385C46.3407 70.4932 45.2725 72.9973 44.2382 74.4127C43.7289 75.1097 43.2429 75.5206 42.7525 75.7627C42.2624 76.0048 41.7289 76.0976 41.0912 76.0976V77.0976C41.8279 77.0976 42.5257 76.99 43.1953 76.6594C43.8646 76.3288 44.4668 75.7947 45.0456 75.0027C46.1875 73.4401 47.2956 70.7899 48.6694 66.4397L47.7158 66.1385ZM50.9432 55.8109L47.7154 66.14L48.6699 66.4382L51.8977 56.1092L50.9432 55.8109ZM48.9019 66.4285L51.9006 56.0994L50.9403 55.8206L47.9415 66.1497L48.9019 66.4285ZM51.1706 74.265C50.6873 74.265 50.2954 74.0287 49.9579 73.5499C49.6098 73.056 49.3487 72.3373 49.1686 71.4834C48.8099 69.7818 48.8077 67.7153 48.9201 66.3295L47.9233 66.2487C47.8066 67.6882 47.8044 69.8596 48.1902 71.6897C48.3824 72.6016 48.6796 73.4721 49.1405 74.126C49.612 74.7949 50.2795 75.265 51.1706 75.265V74.265ZM55.7846 70.6086C54.0013 73.5064 52.2282 74.265 51.1706 74.265V75.265C52.7093 75.265 54.7542 74.1909 56.6362 71.1327L55.7846 70.6086ZM66.0849 50.228L55.7642 70.6451L56.6566 71.0962L66.9773 50.6792L66.0849 50.228ZM70.4293 59.5516C69.8825 58.6552 69.088 57.1962 68.4016 55.5415C67.7128 53.8813 67.1464 52.0563 67.0298 50.4181L66.0324 50.4891C66.1599 52.2817 66.7711 54.2209 67.4779 55.9247C68.187 57.634 69.0062 59.1389 69.5756 60.0723L70.4293 59.5516ZM70.3546 60.1756L70.4019 60.1127L69.603 59.5112L69.5557 59.5741L70.3546 60.1756ZM62.7761 69.8204C66.9991 64.863 69.5932 61.3191 70.3711 60.1522L69.5391 59.5975C68.7898 60.7214 66.222 64.2331 62.0149 69.1719L62.7761 69.8204ZM63.7963 72.6621C62.9713 72.6187 62.4965 72.4498 62.2363 72.265C62.0009 72.0976 61.9143 71.8996 61.9043 71.668C61.8931 71.4102 61.9795 71.0923 62.1499 70.7482C62.3174 70.4101 62.5475 70.0843 62.7734 69.8236L62.0177 69.1687C61.7472 69.4808 61.4657 69.8765 61.2538 70.3044C61.0448 70.7263 60.8839 71.2188 60.9052 71.7112C60.9276 72.2298 61.1532 72.7219 61.657 73.08C62.1361 73.4206 62.8277 73.6125 63.7437 73.6608L63.7963 72.6621ZM66.2899 72.6614H63.77V73.6614H66.2899V72.6614ZM75.2563 66.9433C72.429 71.5377 68.0535 72.6614 66.2899 72.6614V73.6614C68.3442 73.6614 73.0708 72.4027 76.1079 67.4674L75.2563 66.9433ZM74.5697 58.7636C76.842 62.4342 75.9333 65.7922 75.2512 66.9519L76.1131 67.4589C76.9581 66.0223 77.9126 62.2637 75.42 58.2372L74.5697 58.7636ZM81.3964 46.6492C80.9583 47.8759 79.7457 50.0471 78.376 52.3019C77.0161 54.5406 75.5316 56.813 74.5806 58.2204L75.4092 58.7803C76.3672 57.3624 77.8607 55.0762 79.2307 52.8211C80.5908 50.5821 81.8599 48.3244 82.3381 46.9855L81.3964 46.6492ZM85.4715 55.4477C84.5036 54.1819 82.3673 50.8693 82.3673 46.8173L81.3673 46.8173C81.3673 51.1955 83.6598 54.7247 84.6772 56.0552L85.4715 55.4477ZM79.5454 68.549C78.4169 66.6949 79.0095 64.3097 80.4191 61.9278C81.8107 59.5762 83.8991 57.4066 85.3982 56.1324L84.7505 55.3705C83.1952 56.6925 81.0228 58.9441 79.5585 61.4185C78.1122 63.8625 77.2541 66.7079 78.6912 69.0689L79.5454 68.549ZM87.511 66.3568C84.7987 68.5266 82.8698 69.2606 81.5998 69.3585C80.3479 69.4549 79.7551 68.9405 79.5595 68.5736L78.6771 69.0442C79.0924 69.8228 80.1032 70.4767 81.6766 70.3555C83.2319 70.2357 85.35 69.3662 88.1357 67.1377L87.511 66.3568ZM91.2184 58.7557C91.303 60.3633 90.7204 61.9639 89.9225 63.3344C89.1262 64.7022 88.1414 65.7955 87.4911 66.3735L88.1555 67.1209C88.8797 66.4772 89.9337 65.3026 90.7867 63.8375C91.6382 62.375 92.3156 60.5776 92.217 58.7032L91.2184 58.7557ZM90.4109 56.5219C91.0541 57.3259 91.2177 58.3503 91.2177 58.7295H92.2177C92.2177 58.1923 92.0147 56.9259 91.1918 55.8972L90.4109 56.5219ZM90.286 56.2532L90.3305 56.3777L91.2722 56.0414L91.2278 55.9169L90.286 56.2532ZM102.981 53.8785C101.495 53.7642 99.0927 53.7622 96.7183 54.0053C94.3694 54.2458 91.9438 54.7351 90.488 55.6635L91.0257 56.5066C92.2646 55.7166 94.4771 55.24 96.8201 55.0001C99.1376 54.7628 101.48 54.766 102.904 54.8755L102.981 53.8785ZM113.72 61.5339C112.903 59.3276 109.636 54.8282 103.013 53.882L102.872 54.872C109.077 55.7585 112.072 59.9641 112.782 61.8812L113.72 61.5339ZM111.264 68.9771C111.966 68.4404 112.915 67.4414 113.525 66.1539C114.141 64.8557 114.421 63.2361 113.713 61.5172L112.789 61.8979C113.364 63.2944 113.148 64.6147 112.622 65.7257C112.09 66.8473 111.253 67.7268 110.657 68.1827L111.264 68.9771ZM111.457 69.263C111.144 69.3917 110.799 69.5166 110.499 69.599C110.349 69.6402 110.219 69.6683 110.116 69.6821C110.065 69.689 110.026 69.6916 109.998 69.6917C109.968 69.6919 109.961 69.6891 109.97 69.6912C109.978 69.693 110.025 69.7047 110.078 69.7502C110.141 69.8032 110.185 69.8793 110.2 69.9617C110.213 70.033 110.198 70.0787 110.197 70.0809C110.196 70.0843 110.202 70.0672 110.227 70.0263C110.279 69.9434 110.38 69.8145 110.559 69.6308C110.734 69.4499 110.972 69.2282 111.286 68.9595L110.635 68.2003C109.992 68.7512 109.58 69.174 109.378 69.4973C109.287 69.6437 109.169 69.8767 109.216 70.1377C109.277 70.4804 109.556 70.6207 109.74 70.6643C109.912 70.7051 110.098 70.6937 110.25 70.6732C110.412 70.6513 110.589 70.6114 110.764 70.5632C111.116 70.4666 111.502 70.3261 111.838 70.1876L111.457 69.263ZM115.5 62.6238C115.5 64.2106 114.666 67.7424 111.433 69.2734L111.862 70.1772C115.593 68.4095 116.5 64.3969 116.5 62.6238H115.5ZM106.489 51.8848C107.984 52.2493 110.252 53.2327 112.138 54.9839C114.012 56.725 115.5 59.214 115.5 62.6238H116.5C116.5 58.8864 114.857 56.1448 112.818 54.2512C110.79 52.3677 108.362 51.3123 106.726 50.9132L106.489 51.8848ZM89.8478 53.3479C92.2391 52.1526 98.9621 50.1343 106.495 51.886L106.721 50.912C98.9216 49.0982 91.9603 51.1739 89.4006 52.4534L89.8478 53.3479ZM87.6306 50.522C87.869 50.8967 88.2145 51.4488 88.5223 51.9589C88.8394 52.4847 89.0906 52.9239 89.1643 53.0967L90.0842 52.7046C89.9768 52.4527 89.682 51.9455 89.3785 51.4424C89.0656 50.9237 88.7157 50.3645 88.4742 49.9851L87.6306 50.522ZM87.3688 40.4239C86.9254 41.3911 86.416 43.0313 86.2992 44.8612C86.1823 46.6912 86.4557 48.7598 87.6364 50.5309L88.4684 49.9762C87.4499 48.4485 87.1888 46.6227 87.2972 44.9249C87.4056 43.227 87.8812 41.7059 88.2778 40.8405L87.3688 40.4239ZM86.6364 37.4652C86.9924 37.4949 87.4211 37.6725 87.6446 38.0514C87.8584 38.4138 87.9769 39.1208 87.3702 40.4208L88.2764 40.8436C88.9526 39.3947 88.9565 38.3072 88.506 37.5433C88.0651 36.7959 87.2798 36.5154 86.7194 36.4687L86.6364 37.4652ZM84.158 37.4669H86.6779V36.4669H84.158V37.4669ZM81.677 39.0839C81.7026 38.8533 81.8455 38.4498 82.2142 38.1056C82.5713 37.7722 83.1702 37.4669 84.158 37.4669V36.4669C82.9467 36.4669 82.0948 36.849 81.5318 37.3746C80.9803 37.8894 80.7338 38.5168 80.6831 38.9734L81.677 39.0839ZM79.0762 45.4911C79.7126 44.5365 81.1044 41.9562 81.6703 39.1267L80.6897 38.9306C80.156 41.599 78.8294 44.0585 78.2441 44.9364L79.0762 45.4911ZM73.7883 55.0385C76.0344 51.3643 78.0921 47.4791 79.1079 45.4364L78.2124 44.9912C77.2068 47.0135 75.163 50.8724 72.9351 54.5169L73.7883 55.0385ZM72.0239 43.1654C71.1228 45.0496 70.3127 49.9338 72.9169 55.0061L73.8065 54.5493C71.3511 49.7669 72.1538 45.2117 72.9261 43.5969L72.0239 43.1654ZM71.2799 40.9006C71.5636 40.929 71.918 41.0748 72.1157 41.3726C72.2969 41.6456 72.4334 42.181 72.0135 43.1888L72.9365 43.5735C73.4329 42.3822 73.3785 41.4667 72.9488 40.8195C72.5357 40.1972 71.8592 39.9536 71.3794 39.9056L71.2799 40.9006ZM68.3516 40.9031H71.3296V39.9031H68.3516V40.9031ZM66.0877 42.357C66.196 41.9239 66.7915 40.9031 68.3516 40.9031V39.9031C66.2464 39.9031 65.3147 41.3258 65.1176 42.1145L66.0877 42.357ZM63.53 49.3317C64.2182 47.9553 65.7159 44.5978 66.0958 42.318L65.1094 42.1536C64.7564 44.272 63.3218 47.512 62.6356 48.8845L63.53 49.3317ZM55.0616 67.8713L63.5376 49.3159L62.628 48.9004L54.152 67.4558L55.0616 67.8713ZM53.1928 65.3253C53.1001 66.2988 53.0801 67.007 53.1159 67.508C53.1338 67.7582 53.1666 67.9732 53.2188 68.1511C53.2684 68.32 53.3505 68.5084 53.5042 68.6473C53.6864 68.8119 53.9181 68.861 54.1356 68.8088C54.3194 68.7647 54.4621 68.6569 54.5576 68.5689C54.7532 68.3887 54.9218 68.1303 55.0458 67.903L54.1679 67.4241C54.0628 67.6168 53.9565 67.7631 53.8801 67.8334C53.8396 67.8707 53.847 67.8497 53.9022 67.8364C53.9912 67.815 54.1013 67.839 54.1746 67.9053C54.2195 67.9459 54.2057 67.9627 54.1783 67.8695C54.1536 67.7852 54.1284 67.6474 54.1134 67.4368C54.0833 67.0162 54.0977 66.371 54.1883 65.4202L53.1928 65.3253ZM56.1835 53.3394L53.2055 65.2515L54.1756 65.494L57.1536 53.5819L56.1835 53.3394ZM55.5665 52.0922C55.8635 52.211 56.0237 52.4263 56.1106 52.6749C56.2026 52.938 56.2021 53.2178 56.1754 53.3784L57.1617 53.5428C57.2113 53.2453 57.2109 52.7921 57.0547 52.345C56.8934 51.8835 56.5573 51.4115 55.9379 51.1638L55.5665 52.0922ZM52.9406 52.4149C53.2975 52.1692 53.8008 52.0494 54.3336 52.0197C54.8592 51.9903 55.3546 52.0518 55.6438 52.1161L55.8607 51.1399C55.4898 51.0575 54.9025 50.9864 54.2779 51.0212C53.6606 51.0557 52.9463 51.1968 52.3734 51.5913L52.9406 52.4149ZM52.297 51.4789L52.1797 51.854L53.1342 52.1523L53.2514 51.7772L52.297 51.4789ZM49.007 45.2451C51.029 45.6664 51.9565 46.7782 52.3444 47.9739C52.7459 49.2112 52.5818 50.5886 52.298 51.4756L53.2504 51.7804C53.5774 50.7584 53.7799 49.1579 53.2956 47.6653C52.7978 46.1311 51.5872 44.7612 49.2109 44.2662L49.007 45.2451ZM39.2258 52.1198C42.9956 46.0163 47.4502 45.0522 49.0469 45.2518L49.171 44.2595C47.1024 44.001 42.3022 45.236 38.375 51.5943L39.2258 52.1198ZM27.754 58.1917L39.0319 52.3003L38.5689 51.4139L27.291 57.3053L27.754 58.1917ZM26.7782 57.6177C26.8896 57.7589 27.0065 57.907 27.1351 58.0646L27.9099 57.4324C27.7872 57.282 27.6752 57.1401 27.5632 56.9982L26.7782 57.6177ZM26.7801 57.6201L26.7803 57.6203L27.5612 56.9956L27.561 56.9954L26.7801 57.6201ZM26.777 57.6162L26.7774 57.6167L27.5637 56.9989L27.5634 56.9984L26.777 57.6162ZM26.7633 57.5978L26.7633 57.5979L27.5771 57.0167L27.577 57.0166L26.7633 57.5978ZM21.7804 53.1755C25.3905 55.8438 26.0141 56.6493 26.7776 57.617L27.5627 56.9975C26.7297 55.9418 26.0349 55.0766 22.3748 52.3713L21.7804 53.1755ZM9.20733 35.8215C9.20733 38.44 9.50203 40.782 11.2642 43.4879C13.0061 46.1628 16.1614 49.162 21.787 53.1803L22.3682 52.3665C16.769 48.3671 13.7391 45.456 12.1021 42.9422C10.4853 40.4595 10.2073 38.3345 10.2073 35.8215H9.20733ZM15.5867 24.201C13.4867 25.8238 11.9932 28.0946 10.9788 30.248C9.96381 32.4027 9.41153 34.4759 9.21333 35.7444L10.2013 35.8987C10.3849 34.7237 10.9093 32.7421 11.8835 30.6742C12.8583 28.6049 14.2665 26.485 16.1982 24.9923L15.5867 24.201ZM52.7742 7.37391C45.2366 7.3739 37.4595 10.2008 30.8241 13.7027C24.1834 17.2074 18.6395 21.4131 15.5554 24.2273L16.2295 24.966C19.2542 22.206 24.729 18.0502 31.2909 14.5871C37.8581 11.1212 45.4675 8.3739 52.7742 8.37391L52.7742 7.37391ZM67.394 68.8465C67.081 69.0477 66.83 69.1952 66.6317 69.2991C66.4295 69.405 66.299 69.4565 66.2237 69.4773C66.1864 69.4875 66.1793 69.4855 66.194 69.4854C66.2072 69.4852 66.2722 69.4863 66.3506 69.5322C66.3913 69.556 66.4299 69.5888 66.4619 69.6301C66.4936 69.671 66.5133 69.7127 66.5248 69.7492C66.5463 69.8173 66.5394 69.865 66.5387 69.8695C66.5377 69.877 66.538 69.869 66.5481 69.8419C66.5576 69.8163 66.5725 69.7819 66.5947 69.7384C66.6392 69.6508 66.7034 69.5441 66.7845 69.4233C66.9464 69.1822 67.1564 68.9129 67.3588 68.6737L66.5954 68.0278C66.3779 68.2849 66.1431 68.5846 65.9542 68.866C65.8599 69.0065 65.7723 69.1495 65.7033 69.2852C65.6387 69.4121 65.5712 69.5694 65.5485 69.7298C65.5271 69.882 65.5319 70.2116 65.8453 70.3952C66.0841 70.535 66.3479 70.4803 66.4893 70.4413C66.8206 70.3501 67.2935 70.0999 67.9347 69.6877L67.394 68.8465ZM70.6363 64.9579C70.3011 65.796 69.6956 66.623 69.0533 67.3263C68.4137 68.0268 67.7631 68.577 67.3703 68.8627L67.9585 69.6714C68.4056 69.3463 69.1065 68.7511 69.7918 68.0007C70.4743 67.2532 71.167 66.3239 71.5648 65.3293L70.6363 64.9579ZM70.5559 64.7909C70.7544 64.5703 70.9162 64.4078 71.0458 64.292C71.179 64.1731 71.2628 64.1177 71.3052 64.0959C71.3252 64.0856 71.3216 64.0905 71.2984 64.0949C71.2738 64.0996 71.2164 64.1056 71.144 64.0819C71.0665 64.0565 71.0065 64.0084 70.9676 63.9574C70.9328 63.9117 70.9221 63.8737 70.9196 63.8641C70.9169 63.8537 70.9188 63.8556 70.9194 63.8753C70.92 63.8939 70.9192 63.9214 70.9156 63.9586C70.9083 64.0339 70.8913 64.13 70.8642 64.2433C70.81 64.4697 70.7242 64.7293 70.6339 64.9641L71.5672 65.3231C71.6678 65.0616 71.7692 64.7581 71.8367 64.4762C71.8704 64.3354 71.8978 64.1911 71.911 64.0549C71.9234 63.9265 71.9272 63.7683 71.8886 63.6169C71.8492 63.4627 71.737 63.2239 71.4554 63.1316C71.2097 63.0511 70.984 63.1368 70.8487 63.2062C70.5663 63.351 70.2261 63.6625 69.8126 64.1219L70.5559 64.7909ZM67.3631 68.6686L70.5702 64.7743L69.7983 64.1385L66.5912 68.0329L67.3631 68.6686ZM50.5242 50.9739C50.5457 50.6514 50.5317 50.2727 50.451 49.9117C50.3719 49.5582 50.2169 49.1683 49.914 48.8856C49.5872 48.5808 49.1466 48.4549 48.6326 48.548C48.1451 48.6364 47.5962 48.9184 46.9715 49.399L47.5812 50.1916C48.1477 49.7558 48.5476 49.5797 48.8108 49.532C49.0475 49.4891 49.1595 49.5494 49.2318 49.6168C49.3278 49.7064 49.4181 49.8749 49.4751 50.1298C49.5304 50.3774 49.5431 50.6573 49.5264 50.9074L50.5242 50.9739ZM43.5935 69.7325C45.2848 66.5805 49.0359 58.4372 50.5156 51.0387L49.535 50.8426C48.0825 58.1051 44.3809 66.1502 42.7123 69.2597L43.5935 69.7325ZM41.1206 69.7534C41.2721 70.0058 41.5843 70.3593 42.0463 70.4693C42.5728 70.5947 43.098 70.3651 43.5433 69.8085L42.7625 69.1838C42.6146 69.3686 42.4981 69.4464 42.4254 69.4781C42.3595 69.5068 42.3144 69.5052 42.278 69.4965C42.1788 69.4729 42.0557 69.3682 41.9781 69.2389L41.1206 69.7534ZM46.9848 49.3891C43.8665 51.6279 38.4431 58.758 41.0633 69.6134L42.0354 69.3788C39.5243 58.9757 44.7302 52.2388 47.568 50.2014L46.9848 49.3891ZM83.0495 64.0689C83.0841 63.8268 83.2081 63.4794 83.4177 63.0499C83.6229 62.6293 83.8931 62.1638 84.1908 61.6948C84.7862 60.7567 85.4737 59.8324 85.923 59.2708L85.1421 58.6461C84.6751 59.23 83.9652 60.1841 83.3465 61.1589C83.0372 61.6462 82.7461 62.1458 82.5189 62.6114C82.2961 63.0681 82.1166 63.5282 82.0595 63.9275L83.0495 64.0689ZM84.0508 64.7736C83.5625 65.2176 83.2591 65.3749 83.1018 65.4126C83.0344 65.4287 83.0242 65.4155 83.0434 65.423C83.0642 65.4312 83.0653 65.4423 83.0519 65.4209C83.0103 65.3551 82.964 65.1914 82.9607 64.9122C82.9576 64.6516 82.9924 64.3582 83.0448 64.0963L82.0642 63.9002C82.0021 64.211 81.9567 64.5761 81.9608 64.924C81.9646 65.2533 82.0128 65.648 82.2061 65.9544C82.31 66.1192 82.4636 66.2699 82.6786 66.3541C82.892 66.4377 83.1177 66.437 83.3345 66.3851C83.7456 66.2868 84.2039 65.986 84.7235 65.5136L84.0508 64.7736ZM86.1848 61.8543C86.1155 62.2699 85.7868 62.8334 85.329 63.4136C84.886 63.9751 84.3802 64.4809 84.055 64.7699L84.7193 65.5173C85.0814 65.1955 85.6293 64.6475 86.1141 64.033C86.5841 63.4373 87.0571 62.7027 87.1711 62.0187L86.1848 61.8543ZM85.8689 59.3284C86.1025 59.1161 86.277 58.9971 86.3991 58.9374C86.5242 58.8761 86.5483 58.899 86.5116 58.8903C86.4581 58.8777 86.4462 58.8418 86.4636 58.8733C86.4865 58.915 86.5175 59.0047 86.5367 59.162C86.6158 59.8136 86.4224 60.9352 86.1941 61.8103L87.1618 62.0627C87.3916 61.1815 87.6334 59.8978 87.5294 59.0413C87.5027 58.8216 87.4492 58.5903 87.3397 58.3913C87.2246 58.1821 87.0324 57.9857 86.7412 57.917C86.4668 57.8523 86.1959 57.9235 85.9596 58.0391C85.7202 58.1563 85.4666 58.3427 85.1962 58.5885L85.8689 59.3284Z" fill="black"/>
</svg>
