<svg width="246" height="95" viewBox="0 0 246 95" fill="none" xmlns="http://www.w3.org/2000/svg">
<path fill-rule="evenodd" clip-rule="evenodd" d="M9.5 1C9.42324 3.61208 7.78875 8.70108 1.98742 9.22078C1.63315 9.21427 1.30063 9.23049 1 9.26389C1.34183 9.26389 1.67083 9.24914 1.98742 9.22078C4.97092 9.27554 9.49661 10.9415 9.5 17.5204C9.5 17.522 9.5 17.5236 9.5 17.5253C9.5 17.5236 9.5 17.522 9.5 17.5204C9.50339 10.9415 14.0291 9.27555 17.0126 9.22078C17.3292 9.24914 17.6582 9.26389 18 9.26389C17.6994 9.23049 17.3668 9.21428 17.0126 9.22078C11.2113 8.70109 9.57676 3.61209 9.5 1Z" fill="white"/>
<path d="M9.5 1L9.99978 0.985313L9.00022 0.985312L9.5 1ZM1 9.26389L0.944785 8.76695L1 9.76389V9.26389ZM18 9.26389V9.76389L18.0552 8.76695L18 9.26389ZM2.03203 9.71878C5.09408 9.44448 7.08243 7.95353 8.30249 6.17823C9.5099 4.42134 9.95912 2.39835 9.99978 1.01469L9.00022 0.985312C8.96412 2.21373 8.55771 4.04128 7.47835 5.61184C6.41165 7.16398 4.68209 8.47738 1.9428 8.72277L2.03203 9.71878ZM1.05522 9.76083C1.33365 9.72989 1.64465 9.71457 1.97824 9.72069L1.99659 8.72086C1.62165 8.71398 1.2676 8.73108 0.944785 8.76695L1.05522 9.76083ZM1.9428 8.72277C1.64154 8.74976 1.32744 8.76389 1 8.76389V9.76389C1.35622 9.76389 1.70012 9.74851 2.03203 9.71878L1.9428 8.72277ZM10 17.5201C9.99824 14.1039 8.81556 11.8928 7.18009 10.5389C5.56336 9.20051 3.56471 8.74965 1.99659 8.72086L1.97824 9.72069C3.39363 9.74667 5.14958 10.1562 6.54241 11.3092C7.91651 12.4467 8.99837 14.3579 9 17.5206L10 17.5201ZM10 17.5253C10 17.5243 10 17.5233 10 17.5225C10 17.5217 10 17.521 10 17.5204H9C9 17.5214 9 17.5223 9 17.5231C9 17.524 9 17.5246 9 17.5253H10ZM10 17.5253C10 17.5243 10 17.5233 10 17.5225C10 17.5217 10 17.521 10 17.5204H9C9 17.5214 9 17.5223 9 17.5231C9 17.524 9 17.5246 9 17.5253H10ZM10 17.5206C10.0016 14.3579 11.0835 12.4467 12.4576 11.3092C13.8504 10.1562 15.6064 9.74668 17.0218 9.72069L17.0034 8.72086C15.4353 8.74965 13.4366 9.20051 11.8199 10.5389C10.1844 11.8928 9.00176 14.1039 9 17.5201L10 17.5206ZM16.968 9.71878C17.2999 9.74852 17.6438 9.76389 18 9.76389V8.76389C17.6726 8.76389 17.3585 8.74976 17.0572 8.72277L16.968 9.71878ZM18.0552 8.76695C17.7324 8.73108 17.3783 8.71398 17.0034 8.72086L17.0218 9.72069C17.3554 9.71457 17.6663 9.7299 17.9448 9.76083L18.0552 8.76695ZM17.0572 8.72277C14.3179 8.47738 12.5883 7.16399 11.5216 5.61184C10.4423 4.04128 10.0359 2.21373 9.99978 0.985313L9.00022 1.01469C9.04088 2.39835 9.4901 4.42135 10.6975 6.17823C11.9176 7.95353 13.9059 9.44448 16.968 9.71878L17.0572 8.72277Z" fill="black"/>
<path fill-rule="evenodd" clip-rule="evenodd" d="M83.5 61C83.4232 63.6121 81.7887 68.7011 75.9874 69.2208C75.6331 69.2143 75.3006 69.2305 75 69.2639C75.3418 69.2639 75.6708 69.2491 75.9874 69.2208C78.9709 69.2755 83.4966 70.9415 83.5 77.5204C83.5 77.522 83.5 77.5236 83.5 77.5253C83.5 77.5236 83.5 77.522 83.5 77.5204C83.5034 70.9415 88.0291 69.2755 91.0126 69.2208C91.3292 69.2491 91.6582 69.2639 92 69.2639C91.6994 69.2305 91.3668 69.2143 91.0126 69.2208C85.2113 68.7011 83.5768 63.6121 83.5 61Z" fill="white"/>
<path d="M83.5 61L83.9998 60.9853L83.0002 60.9853L83.5 61ZM75 69.2639L74.9448 68.7669L75 69.7639V69.2639ZM92 69.2639V69.7639L92.0552 68.767L92 69.2639ZM76.032 69.7188C79.0941 69.4445 81.0824 67.9535 82.3025 66.1782C83.5099 64.4213 83.9591 62.3984 83.9998 61.0147L83.0002 60.9853C82.9641 62.2137 82.5577 64.0413 81.4784 65.6118C80.4116 67.164 78.6821 68.4774 75.9428 68.7228L76.032 69.7188ZM75.0552 69.7608C75.3337 69.7299 75.6446 69.7146 75.9782 69.7207L75.9966 68.7209C75.6217 68.714 75.2676 68.7311 74.9448 68.7669L75.0552 69.7608ZM75.9428 68.7228C75.6415 68.7498 75.3274 68.7639 75 68.7639V69.7639C75.3562 69.7639 75.7001 69.7485 76.032 69.7188L75.9428 68.7228ZM84 77.5201C83.9982 74.1039 82.8156 71.8928 81.1801 70.5389C79.5634 69.2005 77.5647 68.7496 75.9966 68.7209L75.9782 69.7207C77.3936 69.7467 79.1496 70.1562 80.5424 71.3092C81.9165 72.4467 82.9984 74.3579 83 77.5206L84 77.5201ZM84 77.5253C84 77.5243 84 77.5233 84 77.5225C84 77.5217 84 77.521 84 77.5204H83C83 77.5214 83 77.5223 83 77.5231C83 77.524 83 77.5246 83 77.5253H84ZM84 77.5253C84 77.5243 84 77.5233 84 77.5225C84 77.5217 84 77.521 84 77.5204H83C83 77.5214 83 77.5223 83 77.5231C83 77.524 83 77.5246 83 77.5253H84ZM84 77.5206C84.0016 74.3579 85.0835 72.4467 86.4576 71.3092C87.8504 70.1562 89.6064 69.7467 91.0218 69.7207L91.0034 68.7209C89.4353 68.7496 87.4366 69.2005 85.8199 70.5389C84.1844 71.8928 83.0018 74.1039 83 77.5201L84 77.5206ZM90.968 69.7188C91.2999 69.7485 91.6438 69.7639 92 69.7639V68.7639C91.6726 68.7639 91.3585 68.7498 91.0572 68.7228L90.968 69.7188ZM92.0552 68.767C91.7324 68.7311 91.3783 68.714 91.0034 68.7209L91.0218 69.7207C91.3554 69.7146 91.6663 69.7299 91.9448 69.7608L92.0552 68.767ZM91.0572 68.7228C88.3179 68.4774 86.5883 67.164 85.5216 65.6118C84.4423 64.0413 84.0359 62.2137 83.9998 60.9853L83.0002 61.0147C83.0409 62.3984 83.4901 64.4213 84.6975 66.1782C85.9176 67.9535 87.9059 69.4445 90.968 69.7188L91.0572 68.7228Z" fill="black"/>
<path fill-rule="evenodd" clip-rule="evenodd" d="M162.5 10C162.423 12.6121 160.789 17.7011 154.987 18.2208C154.633 18.2143 154.301 18.2305 154 18.2639C154.342 18.2639 154.671 18.2491 154.987 18.2208C157.971 18.2755 162.497 19.9415 162.5 26.5204C162.5 26.522 162.5 26.5236 162.5 26.5253C162.5 26.5236 162.5 26.522 162.5 26.5204C162.503 19.9415 167.029 18.2755 170.013 18.2208C170.329 18.2491 170.658 18.2639 171 18.2639C170.699 18.2305 170.367 18.2143 170.013 18.2208C164.211 17.7011 162.577 12.6121 162.5 10Z" fill="white"/>
<path d="M162.5 10L163 9.98531L162 9.98531L162.5 10ZM154 18.2639L153.945 17.7669L154 18.7639V18.2639ZM171 18.2639V18.7639L171.055 17.767L171 18.2639ZM155.032 18.7188C158.094 18.4445 160.082 16.9535 161.302 15.1782C162.51 13.4213 162.959 11.3984 163 10.0147L162 9.98531C161.964 11.2137 161.558 13.0413 160.478 14.6118C159.412 16.164 157.682 17.4774 154.943 17.7228L155.032 18.7188ZM154.055 18.7608C154.334 18.7299 154.645 18.7146 154.978 18.7207L154.997 17.7209C154.622 17.714 154.268 17.7311 153.945 17.7669L154.055 18.7608ZM154.943 17.7228C154.642 17.7498 154.327 17.7639 154 17.7639V18.7639C154.356 18.7639 154.7 18.7485 155.032 18.7188L154.943 17.7228ZM163 26.5201C162.998 23.1039 161.816 20.8928 160.18 19.5389C158.563 18.2005 156.565 17.7496 154.997 17.7209L154.978 18.7207C156.394 18.7467 158.15 19.1562 159.542 20.3092C160.917 21.4467 161.998 23.3579 162 26.5206L163 26.5201ZM163 26.5253C163 26.5243 163 26.5233 163 26.5225C163 26.5217 163 26.521 163 26.5204H162C162 26.5214 162 26.5223 162 26.5231C162 26.524 162 26.5246 162 26.5253H163ZM163 26.5253C163 26.5243 163 26.5233 163 26.5225C163 26.5217 163 26.521 163 26.5204H162C162 26.5214 162 26.5223 162 26.5231C162 26.524 162 26.5246 162 26.5253H163ZM163 26.5206C163.002 23.3579 164.083 21.4467 165.458 20.3092C166.85 19.1562 168.606 18.7467 170.022 18.7207L170.003 17.7209C168.435 17.7496 166.437 18.2005 164.82 19.5389C163.184 20.8928 162.002 23.1039 162 26.5201L163 26.5206ZM169.968 18.7188C170.3 18.7485 170.644 18.7639 171 18.7639V17.7639C170.673 17.7639 170.358 17.7498 170.057 17.7228L169.968 18.7188ZM171.055 17.767C170.732 17.7311 170.378 17.714 170.003 17.7209L170.022 18.7207C170.355 18.7146 170.666 18.7299 170.945 18.7608L171.055 17.767ZM170.057 17.7228C167.318 17.4774 165.588 16.164 164.522 14.6118C163.442 13.0413 163.036 11.2137 163 9.98531L162 10.0147C162.041 11.3984 162.49 13.4213 163.698 15.1782C164.918 16.9535 166.906 18.4445 169.968 18.7188L170.057 17.7228Z" fill="black"/>
<path fill-rule="evenodd" clip-rule="evenodd" d="M236.5 78C236.423 80.6121 234.789 85.7011 228.987 86.2208C228.633 86.2143 228.301 86.2305 228 86.2639C228.342 86.2639 228.671 86.2491 228.987 86.2208C231.971 86.2755 236.497 87.9415 236.5 94.5204C236.5 94.522 236.5 94.5236 236.5 94.5253C236.5 94.5236 236.5 94.522 236.5 94.5204C236.503 87.9415 241.029 86.2755 244.013 86.2208C244.329 86.2491 244.658 86.2639 245 86.2639C244.699 86.2305 244.367 86.2143 244.013 86.2208C238.211 85.7011 236.577 80.6121 236.5 78Z" fill="white"/>
<path d="M236.5 78L237 77.9853L236 77.9853L236.5 78ZM228 86.2639L227.945 85.7669L228 86.7639V86.2639ZM245 86.2639V86.7639L245.055 85.767L245 86.2639ZM229.032 86.7188C232.094 86.4445 234.082 84.9535 235.302 83.1782C236.51 81.4213 236.959 79.3984 237 78.0147L236 77.9853C235.964 79.2137 235.558 81.0413 234.478 82.6118C233.412 84.164 231.682 85.4774 228.943 85.7228L229.032 86.7188ZM228.055 86.7608C228.334 86.7299 228.645 86.7146 228.978 86.7207L228.997 85.7209C228.622 85.714 228.268 85.7311 227.945 85.7669L228.055 86.7608ZM228.943 85.7228C228.642 85.7498 228.327 85.7639 228 85.7639V86.7639C228.356 86.7639 228.7 86.7485 229.032 86.7188L228.943 85.7228ZM237 94.5201C236.998 91.1039 235.816 88.8928 234.18 87.5389C232.563 86.2005 230.565 85.7496 228.997 85.7209L228.978 86.7207C230.394 86.7467 232.15 87.1562 233.542 88.3092C234.917 89.4467 235.998 91.3579 236 94.5206L237 94.5201ZM237 94.5253C237 94.5243 237 94.5233 237 94.5225C237 94.5217 237 94.521 237 94.5204H236C236 94.5214 236 94.5223 236 94.5231C236 94.524 236 94.5246 236 94.5253H237ZM237 94.5253C237 94.5243 237 94.5233 237 94.5225C237 94.5217 237 94.521 237 94.5204H236C236 94.5214 236 94.5223 236 94.5231C236 94.524 236 94.5246 236 94.5253H237ZM237 94.5206C237.002 91.3579 238.083 89.4467 239.458 88.3092C240.85 87.1562 242.606 86.7467 244.022 86.7207L244.003 85.7209C242.435 85.7496 240.437 86.2005 238.82 87.5389C237.184 88.8928 236.002 91.1039 236 94.5201L237 94.5206ZM243.968 86.7188C244.3 86.7485 244.644 86.7639 245 86.7639V85.7639C244.673 85.7639 244.358 85.7498 244.057 85.7228L243.968 86.7188ZM245.055 85.767C244.732 85.7311 244.378 85.714 244.003 85.7209L244.022 86.7207C244.355 86.7146 244.666 86.7299 244.945 86.7608L245.055 85.767ZM244.057 85.7228C241.318 85.4774 239.588 84.164 238.522 82.6118C237.442 81.0413 237.036 79.2137 237 77.9853L236 78.0147C236.041 79.3984 236.49 81.4213 237.698 83.1782C238.918 84.9535 240.906 86.4445 243.968 86.7188L244.057 85.7228Z" fill="black"/>
</svg>
