<?xml-stylesheet type="text/css" href="../css/slideDetailSvg.css"?>

<svg width="237" height="61" viewBox="0 0 237 61" fill="none" xmlns="http://www.w3.org/2000/svg">
<mask id="path-1-outside-1_96_5" maskUnits="userSpaceOnUse" x="67.3252" y="0.489502" width="170" height="61" fill="black">
<rect fill="white" x="67.3252" y="0.489502" width="170" height="61"/>
<path d="M91.4903 8.15531V13.9017L104.208 13.9017V8.15531H91.4903ZM91.4903 17.8667V23.6131H104.208V17.8667H91.4903ZM102.562 1.4895V28.7848H110.113V1.4895L102.562 1.4895ZM75.3656 30.8535V36.7148H102.619V39.588H75.4224V51.8278H82.917V45.1046H110.113V30.8535H75.3656ZM75.4224 48.2076V54.1264H111.589V48.2076H75.4224ZM68.3252 3.67313V27.3482H93.1936V3.67313L85.8126 3.67313V9.87922H75.8198V3.67313H68.3252ZM75.8198 15.6256H85.8126V21.372H75.8198V15.6256Z"/>
<path d="M152.181 1.4895V28.0378H159.732V1.4895L152.181 1.4895ZM156.666 11.6606V17.9242H166.659V11.6606L156.666 11.6606ZM119.875 3.96045V26.084L144.913 26.084V3.96045L119.875 3.96045ZM137.475 9.93668V20.1078L127.312 20.1078V9.93668H137.475ZM124.984 30.164V36.0253H152.294V39.2433H125.098V51.0808H132.593V44.7598H159.732V30.164L124.984 30.164ZM125.098 48.1502V54.1264H161.265V48.1502H125.098Z"/>
<path d="M181.064 43.873L180.842 46.1177C180.667 47.9134 180.331 49.7024 179.834 51.4845C179.35 53.2803 178.839 54.906 178.302 56.3616C177.777 57.8172 177.354 58.96 177.031 59.7898H171.467C171.668 58.9872 171.944 57.8649 172.293 56.4228C172.643 54.9944 172.972 53.3891 173.281 51.607C173.59 49.8248 173.785 48.0087 173.866 46.1585L173.967 43.873H181.064Z"/>
<path d="M187.761 25.6818V31.773H235.34V25.6818H187.761ZM197.753 2.58131V4.87987C197.753 9.76429 194.971 14.8786 188.101 17.0622L191.621 22.6362C200.025 19.8205 203.431 12.6375 203.431 4.87987V2.58131H197.753ZM199.627 2.58131V4.87987C199.627 12.3502 202.693 20.3376 211.494 23.3832L214.332 17.4645C207.86 14.8786 205.248 9.64937 205.248 4.87987V2.58131H199.627ZM217.739 2.58131V4.87987C217.739 9.70683 215.127 14.936 208.655 17.4645L211.494 23.3832C220.294 20.3951 223.417 12.4651 223.417 4.87987V2.58131H217.739ZM219.613 2.58131V4.87987C219.613 12.8673 223.019 19.8779 231.479 22.6362L234.943 17.0622C228.073 14.936 225.347 9.93668 225.347 4.87987V2.58131H219.613ZM193.268 35.5656V54.1264L229.605 54.1264V35.5656L193.268 35.5656ZM222.224 41.5993V48.0927H200.706V41.5993H222.224Z"/>
</mask>
<path d="M91.4903 8.15531V13.9017L104.208 13.9017V8.15531H91.4903ZM91.4903 17.8667V23.6131H104.208V17.8667H91.4903ZM102.562 1.4895V28.7848H110.113V1.4895L102.562 1.4895ZM75.3656 30.8535V36.7148H102.619V39.588H75.4224V51.8278H82.917V45.1046H110.113V30.8535H75.3656ZM75.4224 48.2076V54.1264H111.589V48.2076H75.4224ZM68.3252 3.67313V27.3482H93.1936V3.67313L85.8126 3.67313V9.87922H75.8198V3.67313H68.3252ZM75.8198 15.6256H85.8126V21.372H75.8198V15.6256Z" stroke="black" stroke-width="2" mask="url(#path-1-outside-1_96_5)"/>
<path d="M152.181 1.4895V28.0378H159.732V1.4895L152.181 1.4895ZM156.666 11.6606V17.9242H166.659V11.6606L156.666 11.6606ZM119.875 3.96045V26.084L144.913 26.084V3.96045L119.875 3.96045ZM137.475 9.93668V20.1078L127.312 20.1078V9.93668H137.475ZM124.984 30.164V36.0253H152.294V39.2433H125.098V51.0808H132.593V44.7598H159.732V30.164L124.984 30.164ZM125.098 48.1502V54.1264H161.265V48.1502H125.098Z" stroke="black" stroke-width="2" mask="url(#path-1-outside-1_96_5)"/>
<path d="M181.064 43.873L180.842 46.1177C180.667 47.9134 180.331 49.7024 179.834 51.4845C179.35 53.2803 178.839 54.906 178.302 56.3616C177.777 57.8172 177.354 58.96 177.031 59.7898H171.467C171.668 58.9872 171.944 57.8649 172.293 56.4228C172.643 54.9944 172.972 53.3891 173.281 51.607C173.59 49.8248 173.785 48.0087 173.866 46.1585L173.967 43.873H181.064Z" stroke="black" stroke-width="2" mask="url(#path-1-outside-1_96_5)"/>
<path d="M187.761 25.6818V31.773H235.34V25.6818H187.761ZM197.753 2.58131V4.87987C197.753 9.76429 194.971 14.8786 188.101 17.0622L191.621 22.6362C200.025 19.8205 203.431 12.6375 203.431 4.87987V2.58131H197.753ZM199.627 2.58131V4.87987C199.627 12.3502 202.693 20.3376 211.494 23.3832L214.332 17.4645C207.86 14.8786 205.248 9.64937 205.248 4.87987V2.58131H199.627ZM217.739 2.58131V4.87987C217.739 9.70683 215.127 14.936 208.655 17.4645L211.494 23.3832C220.294 20.3951 223.417 12.4651 223.417 4.87987V2.58131H217.739ZM219.613 2.58131V4.87987C219.613 12.8673 223.019 19.8779 231.479 22.6362L234.943 17.0622C228.073 14.936 225.347 9.93668 225.347 4.87987V2.58131H219.613ZM193.268 35.5656V54.1264L229.605 54.1264V35.5656L193.268 35.5656ZM222.224 41.5993V48.0927H200.706V41.5993H222.224Z" stroke="black" stroke-width="2" mask="url(#path-1-outside-1_96_5)"/>
<path d="M41.779 24.6117L41.7838 24.6134L42.9582 25.0402C42.9586 25.0404 42.959 25.0405 42.9594 25.0407C43.7307 25.3256 44.3938 25.8342 44.8613 26.4974C45.3289 27.1608 45.5788 27.9475 45.5788 28.7526C45.5788 29.5577 45.3289 30.3445 44.8613 31.0079C44.3936 31.6714 43.73 32.1802 42.9582 32.465L42.9549 32.4662L41.7791 32.9094C41.7791 32.9094 41.7791 32.9094 41.779 32.9094C38.5292 34.1276 35.6287 36.1045 33.328 38.6704C31.0277 41.236 29.3962 44.3134 28.5747 47.6377C28.5746 47.6383 28.5744 47.6389 28.5743 47.6395L26.9633 53.9717L26.9625 53.9748C26.749 54.8366 26.2468 55.6047 25.5342 56.1549C24.8215 56.7053 23.9401 57.0052 23.0313 57.0052C22.1226 57.0052 21.2412 56.7053 20.5285 56.1549C19.8159 55.6047 19.3136 54.8366 19.1002 53.9748L19.0994 53.9717L17.4884 47.6395C17.4883 47.639 17.4881 47.6385 17.488 47.638C16.6666 44.3135 15.035 41.236 12.7346 38.6704C10.4343 36.1048 7.53423 34.1281 4.28488 32.9099C4.28444 32.9097 4.28399 32.9096 4.28355 32.9094L3.126 32.4671L3.12601 32.467L3.12061 32.465C2.34877 32.1802 1.68521 31.6714 1.21752 31.0079C0.749907 30.3445 0.5 29.5577 0.5 28.7526C0.5 27.9475 0.749907 27.1608 1.21752 26.4974C1.68517 25.8339 2.34865 25.3251 3.1204 25.0403C3.12047 25.0403 3.12054 25.0402 3.12061 25.0402L4.28094 24.6126L4.28365 24.6116C7.53547 23.3919 10.4373 21.4126 12.7381 18.8436C15.0385 16.2752 16.6689 13.1945 17.488 9.86722C17.4882 9.86658 17.4883 9.86594 17.4885 9.8653L19.0994 3.53352L19.1002 3.53046C19.3136 2.66865 19.8159 1.90052 20.5285 1.35031C21.2412 0.799983 22.1226 0.5 23.0313 0.5C23.9401 0.5 24.8215 0.799983 25.5342 1.35031C26.2468 1.90052 26.749 2.66865 26.9625 3.53046L27.4478 3.41024L26.9633 3.53352L28.5742 9.8653C28.5743 9.86594 28.5745 9.86658 28.5747 9.86722C29.3937 13.1945 31.0242 16.2752 33.3246 18.8436C35.6254 21.4126 38.5272 23.3919 41.779 24.6117Z" stroke="black"/>
</svg>
