<svg width="236" height="60" viewBox="0 0 236 60" fill="none" xmlns="http://www.w3.org/2000/svg">
<path d="M92.067 8.21342V13.9598L104.785 13.9598V8.21342H92.067ZM92.067 17.9248V23.6712H104.785V17.9248H92.067ZM103.139 1.54761V28.8429H110.69V1.54761L103.139 1.54761ZM75.9422 30.9116V36.773H103.195V39.6461H75.999V51.8859H83.4936V45.1627H110.69V30.9116H75.9422ZM75.999 48.2657V54.1845H112.166V48.2657H75.999ZM68.9019 3.73123V27.4063H93.7703V3.73123L86.3893 3.73123V9.93733H76.3965V3.73123H68.9019ZM76.3965 15.6837H86.3893V21.4301H76.3965V15.6837Z" fill="#FAA500"/>
<path d="M152.757 1.54761V28.0959H160.309V1.54761L152.757 1.54761ZM157.243 11.7187V17.9823H167.236V11.7187L157.243 11.7187ZM120.451 4.01855V26.1421L145.49 26.1421V4.01855H120.451ZM138.052 9.99479V20.1659L127.889 20.1659V9.99479H138.052ZM125.561 30.2221V36.0834H152.871V39.3014H125.675V51.1389H133.169V44.8179H160.309V30.2221L125.561 30.2221ZM125.675 48.2083V54.1845H161.842V48.2083H125.675Z" fill="#FAA500"/>
<path d="M181.641 43.9311L181.419 46.1758C181.244 47.9715 180.908 49.7605 180.411 51.5426C179.927 53.3384 179.416 54.9641 178.878 56.4197C178.354 57.8754 177.931 59.0181 177.608 59.848H172.043C172.245 59.0453 172.52 57.923 172.87 56.4809C173.219 55.0525 173.549 53.4472 173.858 51.6651C174.167 49.8829 174.362 48.0668 174.443 46.2166L174.543 43.9311H181.641Z" fill="#FAA500"/>
<path d="M188.337 25.7399V31.8311H235.917V25.7399H188.337ZM198.33 2.63942V4.93797C198.33 9.8224 195.548 14.9367 188.678 17.1203L192.198 22.6943C200.601 19.8786 204.008 12.6956 204.008 4.93797V2.63942H198.33ZM200.204 2.63942V4.93797C200.204 12.4083 203.27 20.3958 212.07 23.4413L214.909 17.5226C208.436 14.9367 205.825 9.70747 205.825 4.93797V2.63942H200.204ZM218.316 2.63942V4.93797C218.316 9.76494 215.704 14.9941 209.231 17.5226L212.07 23.4413C220.871 20.4532 223.993 12.5232 223.993 4.93797V2.63942H218.316ZM220.189 2.63942V4.93797C220.189 12.9254 223.596 19.936 232.056 22.6943L235.519 17.1203C228.649 14.9941 225.924 9.99479 225.924 4.93797V2.63942H220.189ZM193.845 35.6237V54.1845L230.182 54.1845V35.6237L193.845 35.6237ZM222.801 41.6574V48.1508H201.283V41.6574H222.801Z" fill="#FAA500"/>
<path d="M28.0245 3.46835L29.6364 9.80394C30.4356 13.0518 32.0271 16.0598 34.2737 18.5682C36.5203 21.0766 39.3544 23.01 42.5313 24.2016L43.7079 24.6292C44.5738 24.9488 45.3199 25.5202 45.8466 26.2674C46.3733 27.0146 46.6554 27.9018 46.6554 28.8107C46.6554 29.7196 46.3733 30.6069 45.8466 31.354C45.3199 32.1012 44.5738 32.6727 43.7079 32.9922L42.5313 33.4357C39.3563 34.6258 36.5234 36.5568 34.277 39.0623C32.0305 41.5678 30.4379 44.5725 29.6364 47.8175L28.0245 54.1531C27.7836 55.1256 27.2173 55.9904 26.4164 56.6088C25.6156 57.2272 24.6265 57.5633 23.608 57.5633C22.5894 57.5633 21.6004 57.2272 20.7995 56.6088C19.9987 55.9904 19.4324 55.1256 19.1915 54.1531L17.5796 47.8175C16.7781 44.5725 15.1855 41.5678 12.939 39.0623C10.6926 36.5568 7.85973 34.6258 4.68472 33.4357L3.52417 32.9922C2.65827 32.6727 1.91217 32.1012 1.3855 31.354C0.858834 30.6069 0.57666 29.7196 0.57666 28.8107C0.57666 27.9018 0.858834 27.0146 1.3855 26.2674C1.91217 25.5202 2.65827 24.9488 3.52417 24.6292L4.68472 24.2016C7.86163 23.01 10.6957 21.0766 12.9423 18.5682C15.1888 16.0598 16.7804 13.0518 17.5796 9.80394L19.1915 3.46835C19.4324 2.49586 19.9987 1.63106 20.7995 1.01267C21.6004 0.394266 22.5894 0.0581055 23.608 0.0581055C24.6265 0.0581055 25.6156 0.394266 26.4164 1.01267C27.2173 1.63106 27.7836 2.49586 28.0245 3.46835V3.46835Z" fill="#FAA500"/>
</svg>
