<svg width="266" height="179" viewBox="0 0 266 179" fill="none" xmlns="http://www.w3.org/2000/svg">
<path fill-rule="evenodd" clip-rule="evenodd" d="M107.928 67.7374H117.251V61.1833H124.765V88.0208H117.251V82.9358H107.928V86.6083H83.1812V63.3303H90.6392V69.4323H100.583V63.3303H107.928V67.7374ZM99.5832 68.4323V62.3303H108.928V66.7374H116.251V60.1833H125.765V89.0208H116.251V83.9358H108.928V87.6083H82.1812V62.3303H91.6392V68.4323H99.5832ZM117.251 73.3873H107.928V77.2858H117.251V73.3873ZM116.251 76.2858V74.3873H108.928V76.2858H116.251ZM89.1872 89.0549H125.765V105.067H98.7017V106.118H127.234V113.937H89.2437V97.6428H116.307V96.8179H89.1872V89.0549ZM90.2437 112.937H126.234V107.118H97.7017V104.067H124.765V90.0549H90.1872V95.8179H117.307V98.6428H90.2437V112.937ZM99.5832 76.0823H91.6392V79.7323H99.5832V76.0823ZM165.627 60.1833H175.142V70.1838H182.035V78.3424H175.142V88.2864H165.627V60.1833ZM174.142 77.3424H181.035V71.1838H174.142V61.1833H166.627V87.2864H174.142V77.3424ZM133.479 62.6128L160.395 62.6128V86.3653H133.479V62.6128ZM138.564 88.3769H175.142V104.728H148.135V106.061H176.667V113.937H138.677V97.3039H165.74V96.1399H138.564V88.3769ZM139.677 112.937H175.667V107.061H147.135V103.728H174.142V89.3769H139.564V95.1399H166.74V98.3039H139.677V112.937ZM159.395 85.3653V63.6129L134.479 63.6129V85.3653H159.395ZM150.994 78.4893V70.4888H142.88V78.4893H150.994ZM196.474 101.856L196.144 105.161C195.964 106.985 195.619 108.801 195.109 110.607C194.622 112.393 194.105 114.019 193.559 115.482C193.036 116.914 192.612 118.045 192.287 118.872L192.038 119.506H184.533L184.85 118.259C185.049 117.474 185.323 116.374 185.67 114.957L185.671 114.955C186.012 113.577 186.335 112.022 186.64 110.287C186.94 108.579 187.129 106.836 187.207 105.059L187.35 101.856H196.474ZM192.621 115.135C193.156 113.704 193.664 112.105 194.145 110.34C194.64 108.588 194.975 106.829 195.149 105.063L195.369 102.856H188.307L188.206 105.103C188.126 106.922 187.932 108.708 187.625 110.46C187.317 112.212 186.989 113.791 186.641 115.195C186.422 116.091 186.231 116.861 186.071 117.506C185.977 117.882 185.893 118.215 185.819 118.506H191.356C191.678 117.69 192.099 116.566 192.621 115.135ZM201.033 83.9698L250.38 83.9698V91.9589L201.033 91.9589V83.9698ZM210.977 61.2568H220.435V64.5168C220.435 67.961 221.954 71.7037 225.67 74.2819C229.354 71.7331 230.865 67.9978 230.865 64.5168V61.2568H240.436V64.5168C240.436 66.8206 241.063 69.08 242.456 70.999C243.846 72.9134 246.04 74.5486 249.277 75.5386L250.527 75.9208L245.971 83.1654L245.232 82.9272C240.871 81.5225 237.748 79.0291 235.715 75.8399C233.798 79.1572 230.79 81.9352 226.369 83.5189L226.164 83.9422L225.647 83.7657L225.135 83.9376L224.93 83.5159C220.514 81.9056 217.521 79.1042 215.619 75.7844C213.615 78.939 210.542 81.4838 206.19 82.9247L205.451 83.1691L200.826 75.9323L202.073 75.5408C208.486 73.5268 210.977 68.8895 210.977 64.5168V61.2568ZM215.073 74.7593C215.283 74.4016 215.479 74.036 215.662 73.6633C215.831 74.0423 216.013 74.4159 216.208 74.7831C217.856 77.8872 220.457 80.5394 224.284 82.1841C224.723 82.3729 225.178 82.5484 225.65 82.7099C226.12 82.5522 226.574 82.3806 227.011 82.1958C230.847 80.5767 233.463 77.9455 235.126 74.8421C235.322 74.4762 235.505 74.1038 235.675 73.7258C235.857 74.0982 236.053 74.463 236.262 74.8194C238.151 78.0315 241.167 80.5671 245.538 81.9753L248.985 76.4948C248.65 76.3924 248.325 76.2832 248.009 76.1675C241.889 73.9225 239.436 69.2452 239.436 64.5168V62.2568H231.865V64.5168C231.865 68.2034 230.297 72.1286 226.578 74.8625C226.288 75.0757 225.985 75.2817 225.669 75.4797C225.352 75.2808 225.05 75.0742 224.76 74.8606C221.014 72.101 219.435 68.1717 219.435 64.5168V62.2568H211.977V64.5168C211.977 69.0848 209.473 73.8572 203.345 76.16C203.03 76.2782 202.706 76.39 202.372 76.4948L205.875 81.9753C210.196 80.5449 213.189 77.9681 215.073 74.7593ZM206.514 93.6879H244.674V113.937H206.514V93.6879ZM202.033 90.9589V84.9698L249.38 84.9698V90.9589L202.033 90.9589ZM207.514 112.937V94.6879H243.674V112.937H207.514ZM235.329 106.005V101.62H215.915V106.005H235.329ZM90.6392 75.0823V80.7323H100.583V75.0823H90.6392ZM151.994 69.4888H141.88V79.4893H151.994V69.4888ZM236.329 100.62H214.915V107.005H236.329V100.62Z" fill="black"/>
<path d="M56.7659 83.9259L56.7707 83.9276L56.766 92.0674L56.9393 92.5353L56.7652 92.0677L56.7654 92.0676C53.5319 93.2652 50.6454 95.2089 48.3554 97.7325C46.0656 100.256 44.4411 103.283 43.6231 106.554C43.623 106.554 43.6228 106.555 43.6227 106.556L42.0195 112.781L42.0187 112.785C41.8071 113.629 41.3088 114.383 40.6003 114.923C39.8915 115.464 39.0141 115.759 38.1088 115.759C37.2035 115.759 36.3261 115.464 35.6173 114.923C34.9088 114.383 34.4105 113.629 34.1989 112.785L34.1981 112.781L32.5949 106.556C32.5948 106.555 32.5946 106.554 32.5945 106.554C31.7765 103.283 30.152 100.256 27.8622 97.7325C25.5724 95.2092 22.6862 93.2656 19.453 92.0679C19.4526 92.0677 19.4521 92.0676 19.4516 92.0674L18.2997 91.6324L18.2997 91.6324L18.2943 91.6305C17.5259 91.3503 16.8663 90.8501 16.4019 90.1991C15.9376 89.5484 15.6899 88.7773 15.6899 87.9889C15.6899 87.2004 15.9376 86.4293 16.4019 85.7786C16.8663 85.1276 17.5259 84.6274 18.2943 84.3473L19.449 83.9269L19.4517 83.9259C22.6874 82.7267 25.5754 80.7805 27.8656 78.2539C30.1555 75.7277 31.779 72.6973 32.5946 69.4236C32.5947 69.423 32.5949 69.4223 32.5951 69.4217L34.1981 63.1962L34.1989 63.1931C34.4105 62.3489 34.9088 61.5951 35.6173 61.0546C36.3261 60.5138 37.2035 60.2185 38.1088 60.2185C39.0141 60.2185 39.8915 60.5138 40.6003 61.0546C41.3088 61.5951 41.8071 62.3489 42.0187 63.1931L42.5037 63.0715L42.0195 63.1962L43.6225 69.4217C43.6227 69.4223 43.6229 69.423 43.623 69.4236C44.4386 72.6973 46.0621 75.7277 48.352 78.2539C50.6422 80.7805 53.5302 82.7267 56.7659 83.9259ZM57.9402 84.3476L57.9416 84.3481L58.1106 83.8776L57.9393 84.3473C57.9396 84.3474 57.9399 84.3475 57.9402 84.3476Z" stroke="black"/>
</svg>
