<svg width="122" height="54" viewBox="0 0 122 54" fill="none" xmlns="http://www.w3.org/2000/svg">
<path d="M67.6079 53.599H48.5771L65.4934 39.3259C65.2819 42.9206 67.9603 44.0836 69.4581 44.0836L76.3304 38.533C78.6564 40.6475 76.3304 44.8766 73.6872 47.7841L67.6079 53.599Z" stroke="black" stroke-width="0.7"/>
<path d="M50.4273 26.3743L37.2114 36.947V49.6343L61.7929 28.7532C62.6387 27.0616 62.1453 26.11 61.7929 25.8457L55.185 30.8677C51.3788 32.1365 50.4273 28.4008 50.4273 26.3743Z" stroke="black" stroke-width="0.7"/>
<path d="M37.2114 53.5992V49.6345L61 29.5464C60.1542 32.5067 63.2026 34.0398 64.9647 34.5684L72.6299 28.7534C73.2643 30.2336 72.718 32.3658 72.3656 33.2468L48.5771 53.5992H37.2114Z" stroke="black" stroke-width="0.7"/>
<path d="M64.1718 17.9162C61.9491 15.9156 54.1277 22.6739 50.4273 26.3743C50.4273 31.0263 53.4229 31.4845 54.9207 31.1321L61.7929 25.8458C63.467 24.0836 66.815 20.2952 64.1718 17.9162Z" stroke="black" stroke-width="0.7"/>
<path d="M74.4802 20.9221C72.2575 18.9215 64.4361 26.11 60.7357 29.8105C60.4714 32.7179 63.7313 34.4904 65.2291 34.138L72.1013 28.8517C73.7753 27.0895 77.1233 23.3011 74.4802 20.9221Z" stroke="black" stroke-width="0.7"/>
<path d="M89.8106 1H80.2952L78.7093 7.0793C78.7093 7.71366 81.3525 9.45815 82.674 10.2511L79.2379 25.3172C78.3921 25.3172 77.2996 27.6079 76.8591 28.7533C76.8591 31.5022 74.7445 34.1278 73.6873 35.0969C80.4538 36.1542 81.9692 29.0176 81.8811 25.3172L86.3745 11.0441H89.8106V1Z" stroke="black" stroke-width="0.7"/>
<path d="M22.674 20.5594L21.0881 17.9163L1 30.3392V34.5682L21.0881 47.2555L22.674 44.6123L3.64317 32.4537L22.674 20.5594Z" stroke="black" stroke-width="0.7"/>
<path d="M99.326 20.5594L100.912 17.9163L121 30.3392V34.5682L100.912 47.2555L99.326 44.6123L118.357 32.4537L99.326 20.5594Z" stroke="black" stroke-width="0.7"/>
<path fill-rule="evenodd" clip-rule="evenodd" d="M79.6442 32.9489C79.6708 33.5225 79.4906 34.1322 79.1673 34.749C78.5022 36.0181 77.2871 37.214 76.3702 38.0002L69.3042 43.7577C68.7155 43.8545 67.8231 43.5364 67.0665 42.8045C66.3206 42.0829 65.7725 41.0156 65.849 39.7393C67.6956 37.8979 70.4464 35.3112 73.0121 33.415C74.2809 32.4772 75.4864 31.722 76.5038 31.3047L76.832 30.4432C76.6685 30.4932 76.5034 30.5516 76.3379 30.6169C75.2165 31.0594 73.9188 31.8744 72.596 32.852C69.9452 34.8112 67.1163 37.4819 65.2623 39.3359L65.1727 39.4255L65.1612 39.5517C65.0179 41.128 65.684 42.441 66.5798 43.3076C67.4567 44.1558 68.6265 44.639 69.5383 44.4245L69.6167 44.406L69.6792 44.3551L76.8158 38.5401L76.8159 38.5402L76.8225 38.5345C77.7555 37.7348 79.0574 36.4668 79.7874 35.0739C80.1538 34.3748 80.3898 33.6187 80.3402 32.8593C80.327 32.6557 80.2933 32.4545 80.2377 32.2565L79.6442 32.9489Z" fill="black"/>
</svg>
