<svg width="86" height="85" viewBox="0 0 86 85" fill="none" xmlns="http://www.w3.org/2000/svg">
<mask id="path-1-inside-1_100_26" fill="white">
<path fill-rule="evenodd" clip-rule="evenodd" d="M0.632324 0H85.6323V85H0.632324V0ZM19.235 46.2205H30.2535V77.5589H38.1239V46.2205H49.1424V39.2087H19.235V46.2205ZM64.4536 45.6483C65.6938 45.4575 68.632 45.8486 70.4637 48.9395L76.4738 44.9328C75.329 42.2617 71.0362 37.778 62.8798 38.9226L62.8798 38.9225C55.8966 39.7238 53.96 45.5527 53.8646 48.3669H61.5919C61.7063 46.7644 63.5472 45.8867 64.4536 45.6481L64.4536 45.6483ZM57.5853 57.8114C59.1117 58.9085 63.1947 61.446 67.3158 62.8198L67.3157 62.8199C68.6036 63.2492 71.1221 64.8519 70.8932 67.256H70.8934C70.7502 68.7347 69.4623 71.5774 65.4557 71.1195V77.9881C69.9394 78.2266 78.9068 76.4141 78.9068 67.2558H78.9066C79.0497 64.8231 78.1052 59.2425 73.1828 56.953L73.1829 56.9528C70.7503 55.808 65.7419 53.4612 65.1695 53.2323L65.1692 53.2324C63.7859 52.7077 61.1339 51.0001 61.5919 48.3671H53.8646C53.6261 50.5136 54.0077 55.3789 57.442 57.6685L57.4422 57.6684L57.5853 57.8114ZM57.8713 66.2543C59.9319 69.9176 63.786 71.0242 65.4555 71.1196V77.9883C57.2131 77.9883 52.5767 72.7414 51.2888 70.1179L57.8713 66.2543Z"/>
</mask>
<path d="M85.6323 0H86.6323V-1H85.6323V0ZM0.632324 0V-1H-0.367676V0H0.632324ZM85.6323 85V86H86.6323V85H85.6323ZM0.632324 85H-0.367676V86H0.632324V85ZM30.2535 46.2205H31.2535V45.2205H30.2535V46.2205ZM19.235 46.2205H18.235V47.2205H19.235V46.2205ZM30.2535 77.5589H29.2535V78.5589H30.2535V77.5589ZM38.1239 77.5589V78.5589H39.1239V77.5589H38.1239ZM38.1239 46.2205V45.2205H37.1239V46.2205H38.1239ZM49.1424 46.2205V47.2205H50.1424V46.2205H49.1424ZM49.1424 39.2087H50.1424V38.2087H49.1424V39.2087ZM19.235 39.2087V38.2087H18.235V39.2087H19.235ZM70.4637 48.9395L69.6034 49.4493L70.141 50.3565L71.0184 49.7716L70.4637 48.9395ZM64.4536 45.6483L63.4792 45.8732L63.688 46.7779L64.6056 46.6367L64.4536 45.6483ZM76.4738 44.9328L77.0285 45.7648L77.7206 45.3034L77.3929 44.5389L76.4738 44.9328ZM62.8798 38.9226L61.907 39.1543L62.1177 40.0394L63.0188 39.9129L62.8798 38.9226ZM62.8798 38.9225L63.8526 38.6909L63.6471 37.8279L62.7658 37.929L62.8798 38.9225ZM53.8646 48.3669L52.8652 48.333L52.8301 49.3669H53.8646V48.3669ZM61.5919 48.3669V49.3669H62.523L62.5893 48.4382L61.5919 48.3669ZM64.4536 45.6481L65.4279 45.4233L65.1961 44.4186L64.199 44.6811L64.4536 45.6481ZM67.3158 62.8198L68.023 63.5269L69.1671 62.3828L67.6321 61.8711L67.3158 62.8198ZM57.5853 57.8114L56.8782 58.5185L56.9357 58.576L57.0017 58.6234L57.5853 57.8114ZM67.3157 62.8199L66.6086 62.1128L65.4645 63.2569L66.9995 63.7686L67.3157 62.8199ZM70.8932 67.256L69.8977 67.1611L69.7934 68.256H70.8932V67.256ZM70.8934 67.256L71.8887 67.3523L71.9948 66.256H70.8934V67.256ZM65.4557 71.1195L65.5692 70.1259L64.4557 69.9987V71.1195H65.4557ZM65.4557 77.9881H64.4557V78.9364L65.4025 78.9867L65.4557 77.9881ZM78.9068 67.2558H79.9068V66.2558H78.9068V67.2558ZM78.9066 67.2558L77.9084 67.1971L77.8461 68.2558H78.9066V67.2558ZM73.1828 56.953L72.4757 56.2459L71.4648 57.2568L72.7611 57.8597L73.1828 56.953ZM73.1829 56.9528L73.8901 57.6599L74.8961 56.6538L73.6087 56.048L73.1829 56.9528ZM65.1695 53.2323L65.5409 52.3038L65.0917 52.1241L64.672 52.3648L65.1695 53.2323ZM65.1692 53.2324L64.8145 54.1674L65.2566 54.3351L65.6667 54.0999L65.1692 53.2324ZM61.5919 48.3671L62.5771 48.5385L62.7808 47.3671H61.5919V48.3671ZM53.8646 48.3671V47.3671H52.9695L52.8707 48.2567L53.8646 48.3671ZM57.442 57.6685L56.8873 58.5005L57.4067 58.8468L57.9459 58.5323L57.442 57.6685ZM57.4422 57.6684L58.1494 56.9612L57.6043 56.4161L56.9384 56.8046L57.4422 57.6684ZM65.4555 71.1196H66.4555V70.1751L65.5125 70.1212L65.4555 71.1196ZM57.8713 66.2543L58.7429 65.764L58.2435 64.8763L57.3651 65.3919L57.8713 66.2543ZM65.4555 77.9883V78.9883H66.4555V77.9883H65.4555ZM51.2888 70.1179L50.7826 69.2555L49.9821 69.7254L50.3911 70.5586L51.2888 70.1179ZM85.6323 -1H0.632324V1H85.6323V-1ZM86.6323 85V0H84.6323V85H86.6323ZM0.632324 86H85.6323V84H0.632324V86ZM-0.367676 0V85H1.63232V0H-0.367676ZM30.2535 45.2205H19.235V47.2205H30.2535V45.2205ZM31.2535 77.5589V46.2205H29.2535V77.5589H31.2535ZM38.1239 76.5589H30.2535V78.5589H38.1239V76.5589ZM37.1239 46.2205V77.5589H39.1239V46.2205H37.1239ZM49.1424 45.2205H38.1239V47.2205H49.1424V45.2205ZM48.1424 39.2087V46.2205H50.1424V39.2087H48.1424ZM19.235 40.2087H49.1424V38.2087H19.235V40.2087ZM20.235 46.2205V39.2087H18.235V46.2205H20.235ZM71.324 48.4297C69.2438 44.9194 65.8607 44.42 64.3015 44.6599L64.6056 46.6367C65.5268 46.4949 68.0203 46.7778 69.6034 49.4493L71.324 48.4297ZM75.9191 44.1007L69.909 48.1075L71.0184 49.7716L77.0285 45.7648L75.9191 44.1007ZM63.0188 39.9129C70.6998 38.835 74.576 43.0433 75.5546 45.3267L77.3929 44.5389C76.082 41.48 71.3725 36.721 62.7408 37.9324L63.0188 39.9129ZM61.907 39.1541L61.907 39.1543L63.8526 38.691L63.8526 38.6909L61.907 39.1541ZM54.864 48.4008C54.906 47.1628 55.3635 45.1997 56.6019 43.4726C57.8163 41.779 59.7991 40.2826 62.9938 39.916L62.7658 37.929C58.9773 38.3637 56.5001 40.1824 54.9766 42.3071C53.4771 44.3983 52.9186 46.7568 52.8652 48.333L54.864 48.4008ZM61.5919 47.3669H53.8646V49.3669H61.5919V47.3669ZM64.199 44.6811C63.6433 44.8274 62.8302 45.1573 62.1183 45.7017C61.4078 46.2451 60.6799 47.0991 60.5944 48.2957L62.5893 48.4382C62.6183 48.0322 62.8681 47.6461 63.3332 47.2904C63.797 46.9357 64.3574 46.7075 64.7081 46.6152L64.199 44.6811ZM65.428 45.4234L65.4279 45.4233L63.4792 45.873L63.4792 45.8732L65.428 45.4234ZM67.6321 61.8711C63.6384 60.5399 59.6464 58.0613 58.1689 56.9994L57.0017 58.6234C58.5769 59.7556 62.7509 62.3522 66.9996 63.7685L67.6321 61.8711ZM68.0228 63.527L68.023 63.5269L66.6087 62.1127L66.6086 62.1128L68.0228 63.527ZM71.8887 67.3508C72.0415 65.7459 71.2644 64.466 70.377 63.587C69.4956 62.7138 68.4073 62.1297 67.6319 61.8712L66.9995 63.7686C67.512 63.9395 68.3269 64.3713 68.9695 65.0078C69.6061 65.6385 69.9738 66.362 69.8977 67.1611L71.8887 67.3508ZM70.8934 66.256H70.8932V68.256H70.8934V66.256ZM65.3421 72.113C67.6208 72.3734 69.2546 71.6937 70.3294 70.6221C71.3644 69.59 71.7991 68.2774 71.8887 67.3523L69.898 67.1596C69.8444 67.7132 69.5636 68.5613 68.9172 69.2058C68.3106 69.8107 67.2971 70.3234 65.5692 70.1259L65.3421 72.113ZM66.4557 77.9881V71.1195H64.4557V77.9881H66.4557ZM77.9068 67.2558C77.9068 71.4288 75.9011 73.8592 73.3743 75.2731C70.7828 76.7232 67.6224 77.102 65.5088 76.9896L65.4025 78.9867C67.7727 79.1128 71.3378 78.7045 74.351 77.0184C77.4288 75.2961 79.9068 72.2411 79.9068 67.2558H77.9068ZM78.9066 68.2558H78.9068V66.2558H78.9066V68.2558ZM72.7611 57.8597C74.9429 58.8745 76.2593 60.6206 77.0222 62.4378C77.7917 64.2707 77.9717 66.1201 77.9084 67.1971L79.9049 67.3145C79.9846 65.9589 79.7639 63.8015 78.8663 61.6636C77.9621 59.51 76.345 57.3209 73.6045 56.0462L72.7611 57.8597ZM72.4758 56.2457L72.4757 56.2459L73.8899 57.6601L73.8901 57.6599L72.4758 56.2457ZM64.7981 54.1608C65.3341 54.3751 70.2976 56.7002 72.7571 57.8576L73.6087 56.048C71.203 54.9159 66.1497 52.5473 65.5409 52.3038L64.7981 54.1608ZM65.6667 54.0999L65.667 54.0997L64.672 52.3648L64.6717 52.365L65.6667 54.0999ZM60.6066 48.1958C60.3065 49.9216 61.0472 51.3107 61.9643 52.2782C62.8684 53.2323 64.0154 53.8643 64.8145 54.1674L65.5239 52.2974C64.9398 52.0759 64.0691 51.5917 63.4159 50.9025C62.7756 50.2268 62.4193 49.4456 62.5771 48.5385L60.6066 48.1958ZM53.8646 49.3671H61.5919V47.3671H53.8646V49.3671ZM57.9967 56.8364C56.5461 55.8693 55.6954 54.3277 55.2391 52.695C54.7825 51.0611 54.7517 49.4382 54.8585 48.4776L52.8707 48.2567C52.7389 49.4425 52.7797 51.3256 53.3129 53.2333C53.8464 55.1423 54.9036 57.1781 56.8873 58.5005L57.9967 56.8364ZM56.9384 56.8046L56.9381 56.8047L57.9459 58.5323L57.9461 58.5321L56.9384 56.8046ZM58.2924 57.1043L58.1494 56.9612L56.7351 58.3755L56.8782 58.5185L58.2924 57.1043ZM65.5125 70.1212C64.0592 70.0382 60.5833 69.0359 58.7429 65.764L56.9997 66.7445C59.2805 70.7992 63.5128 72.0102 65.3984 72.118L65.5125 70.1212ZM66.4555 77.9883V71.1196H64.4555V77.9883H66.4555ZM50.3911 70.5586C51.8097 73.4482 56.7536 78.9883 65.4555 78.9883V76.9883C57.6726 76.9883 53.3437 72.0345 52.1865 69.6772L50.3911 70.5586ZM57.3651 65.3919L50.7826 69.2555L51.795 70.9803L58.3775 67.1167L57.3651 65.3919Z" fill="black" mask="url(#path-1-inside-1_100_26)"/>
</svg>
